<ttFont>
    <TTGlyph name=".notdef" xMin="32" yMin="0" xMax="440" yMax="780">
      <contour>
        <pt x="32" y="0" on="1"/>
        <pt x="32" y="780" on="1"/>
        <pt x="440" y="780" on="1"/>
        <pt x="440" y="0" on="1"/>
      </contour>
      <contour>
        <pt x="100" y="68" on="1"/>
        <pt x="372" y="68" on="1"/>
        <pt x="372" y="712" on="1"/>
        <pt x="100" y="712" on="1"/>
      </contour>
    </TTGlyph>
    <TTGlyph name="A" xMin="-29" yMin="0" xMax="554" yMax="698">
      <contour>
        <pt x="459" y="0" on="1"/>
        <pt x="435" y="197" on="1"/>
        <pt x="173" y="197" on="1"/>
        <pt x="70" y="0" on="1"/>
        <pt x="-29" y="0" on="1"/>
        <pt x="341" y="698" on="1"/>
        <pt x="463" y="698" on="1"/>
        <pt x="554" y="0" on="1"/>
      </contour>
      <contour>
        <pt x="387" y="611" on="1"/>
        <pt x="382" y="611" on="1"/>
        <pt x="214" y="280" on="1"/>
        <pt x="426" y="280" on="1"/>
      </contour>
    </TTGlyph>
    <TTGlyph name="AE" xMin="-45" yMin="0" xMax="920" yMax="698">
      <contour>
        <pt x="400" y="198" on="1"/>
        <pt x="191" y="198" on="1"/>
        <pt x="60" y="0" on="1"/>
        <pt x="-45" y="0" on="1"/>
        <pt x="430" y="698" on="1"/>
        <pt x="920" y="698" on="1"/>
        <pt x="903" y="615" on="1"/>
        <pt x="578" y="615" on="1"/>
        <pt x="535" y="395" on="1"/>
        <pt x="826" y="395" on="1"/>
        <pt x="809" y="312" on="1"/>
        <pt x="518" y="312" on="1"/>
        <pt x="472" y="83" on="1"/>
        <pt x="812" y="83" on="1"/>
        <pt x="795" y="0" on="1"/>
        <pt x="361" y="0" on="1"/>
      </contour>
      <contour>
        <pt x="472" y="619" on="1"/>
        <pt x="246" y="280" on="1"/>
        <pt x="417" y="280" on="1"/>
        <pt x="485" y="619" on="1"/>
      </contour>
    </TTGlyph>
    <TTGlyph name="AEacute" xMin="-45" yMin="0" xMax="920" yMax="955">
      <component glyphName="AE" x="0" y="0" flags="0x204"/>
      <component glyphName="acute.case" x="360" y="0" flags="0x4"/>
    </TTGlyph>
    <TTGlyph name="Aacute" xMin="-29" yMin="0" xMax="554" yMax="955">
      <component glyphName="A" x="0" y="0" flags="0x204"/>
      <component glyphName="acute.case" x="107" y="0" flags="0x4"/>
    </TTGlyph>
    <TTGlyph name="Abreve" xMin="-29" yMin="0" xMax="592" yMax="921">
      <component glyphName="A" x="0" y="0" flags="0x204"/>
      <component glyphName="breve.case" x="106" y="0" flags="0x4"/>
    </TTGlyph>
    <TTGlyph name="Acircumflex" xMin="-29" yMin="0" xMax="576" yMax="939">
      <component glyphName="A" x="0" y="0" flags="0x204"/>
      <component glyphName="circumflex.case" x="107" y="0" flags="0x4"/>
    </TTGlyph>
    <TTGlyph name="Adieresis" xMin="-29" yMin="0" xMax="573" yMax="897">
      <component glyphName="A" x="0" y="0" flags="0x204"/>
      <component glyphName="dieresis.case" x="107" y="0" flags="0x4"/>
    </TTGlyph>
    <TTGlyph name="Agrave" xMin="-29" yMin="0" xMax="554" yMax="954">
      <component glyphName="A" x="0" y="0" flags="0x204"/>
      <component glyphName="grave.case" x="107" y="0" flags="0x4"/>
    </TTGlyph>
    <TTGlyph name="Alpha" xMin="-29" yMin="0" xMax="554" yMax="698">
      <component glyphName="A" x="0" y="0" flags="0x204"/>
    </TTGlyph>
    <TTGlyph name="Alphatonos" xMin="-29" yMin="0" xMax="554" yMax="787">
      <component glyphName="A" x="0" y="0" flags="0x204"/>
      <component glyphName="tonos.case" x="-187" y="0" flags="0x4"/>
    </TTGlyph>
    <TTGlyph name="Amacron" xMin="-29" yMin="0" xMax="569" yMax="877">
      <component glyphName="A" x="0" y="0" flags="0x204"/>
      <component glyphName="macron.case" x="107" y="0" flags="0x4"/>
    </TTGlyph>
    <TTGlyph name="Aogonek" xMin="-29" yMin="-208" xMax="563" yMax="698">
      <contour>
        <pt x="341" y="698" on="1"/>
        <pt x="463" y="698" on="1"/>
        <pt x="554" y="0" on="1"/>
        <pt x="514" y="-26" on="0"/>
        <pt x="467" y="-64" on="0"/>
        <pt x="443" y="-92" on="0"/>
        <pt x="436" y="-112" on="0"/>
        <pt x="436" y="-120" on="1"/>
        <pt x="436" y="-135" on="0"/>
        <pt x="455" y="-151" on="0"/>
        <pt x="469" y="-151" on="1"/>
        <pt x="497" y="-151" on="0"/>
        <pt x="523" y="-124" on="1"/>
        <pt x="563" y="-168" on="1"/>
        <pt x="549" y="-185" on="0"/>
        <pt x="499" y="-208" on="0"/>
        <pt x="462" y="-208" on="1"/>
        <pt x="442" y="-208" on="0"/>
        <pt x="405" y="-199" on="0"/>
        <pt x="377" y="-180" on="0"/>
        <pt x="361" y="-151" on="0"/>
        <pt x="361" y="-131" on="1"/>
        <pt x="361" y="-90" on="0"/>
        <pt x="429" y="-29" on="0"/>
        <pt x="489" y="-5" on="1"/>
        <pt x="488" y="0" on="1"/>
        <pt x="459" y="0" on="1"/>
        <pt x="435" y="197" on="1"/>
        <pt x="173" y="197" on="1"/>
        <pt x="70" y="0" on="1"/>
        <pt x="-29" y="0" on="1"/>
      </contour>
      <contour>
        <pt x="387" y="611" on="1"/>
        <pt x="382" y="611" on="1"/>
        <pt x="214" y="280" on="1"/>
        <pt x="426" y="280" on="1"/>
      </contour>
    </TTGlyph>
    <TTGlyph name="Aring" xMin="-29" yMin="0" xMax="554" yMax="982">
      <component glyphName="A" x="0" y="0" flags="0x204"/>
      <component glyphName="ring.case" x="102" y="0" flags="0x4"/>
    </TTGlyph>
    <TTGlyph name="Aringacute" xMin="-29" yMin="0" xMax="564" yMax="1126">
      <component glyphName="A" x="0" y="0" flags="0x204"/>
      <component glyphName="ringacute.case" x="102" y="0" flags="0x4"/>
    </TTGlyph>
    <TTGlyph name="Atilde" xMin="-29" yMin="0" xMax="592" yMax="900">
      <component glyphName="A" x="0" y="0" flags="0x204"/>
      <component glyphName="tilde.case" x="107" y="0" flags="0x4"/>
    </TTGlyph>
    <TTGlyph name="B" xMin="36" yMin="0" xMax="610" yMax="698">
      <contour>
        <pt x="176" y="698" on="1"/>
        <pt x="441" y="698" on="1"/>
        <pt x="521" y="698" on="0"/>
        <pt x="610" y="619" on="0"/>
        <pt x="610" y="550" on="1"/>
        <pt x="610" y="485" on="0"/>
        <pt x="538" y="383" on="0"/>
        <pt x="469" y="366" on="1"/>
        <pt x="468" y="361" on="1"/>
        <pt x="517" y="349" on="0"/>
        <pt x="569" y="289" on="0"/>
        <pt x="569" y="235" on="1"/>
        <pt x="569" y="186" on="0"/>
        <pt x="535" y="101" on="0"/>
        <pt x="475" y="37" on="0"/>
        <pt x="390" y="0" on="0"/>
        <pt x="339" y="0" on="1"/>
        <pt x="36" y="0" on="1"/>
      </contour>
      <contour>
        <pt x="338" y="83" on="1"/>
        <pt x="387" y="83" on="0"/>
        <pt x="452" y="132" on="0"/>
        <pt x="463" y="185" on="1"/>
        <pt x="468" y="211" on="0"/>
        <pt x="472" y="236" on="0"/>
        <pt x="472" y="243" on="1"/>
        <pt x="472" y="278" on="0"/>
        <pt x="425" y="318" on="0"/>
        <pt x="379" y="318" on="1"/>
        <pt x="193" y="318" on="1"/>
        <pt x="146" y="83" on="1"/>
      </contour>
      <contour>
        <pt x="372" y="397" on="1"/>
        <pt x="424" y="397" on="0"/>
        <pt x="491" y="441" on="0"/>
        <pt x="501" y="490" on="1"/>
        <pt x="506" y="513" on="0"/>
        <pt x="509" y="538" on="0"/>
        <pt x="509" y="545" on="1"/>
        <pt x="509" y="578" on="0"/>
        <pt x="468" y="615" on="0"/>
        <pt x="426" y="615" on="1"/>
        <pt x="252" y="615" on="1"/>
        <pt x="208" y="397" on="1"/>
      </contour>
    </TTGlyph>
    <TTGlyph name="Beta" xMin="36" yMin="0" xMax="610" yMax="698">
      <component glyphName="B" x="0" y="0" flags="0x204"/>
    </TTGlyph>
    <TTGlyph name="C" xMin="55" yMin="-12" xMax="622" yMax="710">
      <contour>
        <pt x="293" y="-12" on="1"/>
        <pt x="241" y="-12" on="0"/>
        <pt x="154" y="24" on="0"/>
        <pt x="91" y="95" on="0"/>
        <pt x="55" y="199" on="0"/>
        <pt x="55" y="267" on="1"/>
        <pt x="55" y="358" on="0"/>
        <pt x="104" y="519" on="0"/>
        <pt x="194" y="640" on="0"/>
        <pt x="320" y="710" on="0"/>
        <pt x="396" y="710" on="1"/>
        <pt x="571" y="710" on="0"/>
        <pt x="622" y="549" on="1"/>
        <pt x="540" y="513" on="1"/>
        <pt x="523" y="568" on="0"/>
        <pt x="452" y="626" on="0"/>
        <pt x="387" y="626" on="1"/>
        <pt x="348" y="626" on="0"/>
        <pt x="280" y="597" on="0"/>
        <pt x="226" y="544" on="0"/>
        <pt x="187" y="469" on="0"/>
        <pt x="178" y="423" on="1"/>
        <pt x="155" y="309" on="1"/>
        <pt x="151" y="291" on="0"/>
        <pt x="149" y="260" on="0"/>
        <pt x="149" y="246" on="1"/>
        <pt x="149" y="168" on="0"/>
        <pt x="228" y="72" on="0"/>
        <pt x="300" y="72" on="1"/>
        <pt x="336" y="72" on="0"/>
        <pt x="391" y="89" on="0"/>
        <pt x="436" y="121" on="0"/>
        <pt x="472" y="167" on="0"/>
        <pt x="488" y="196" on="1"/>
        <pt x="562" y="159" on="1"/>
        <pt x="516" y="71" on="0"/>
        <pt x="386" y="-12" on="0"/>
      </contour>
    </TTGlyph>
    <TTGlyph name="Cacute" xMin="55" yMin="-12" xMax="622" yMax="955">
      <component glyphName="C" x="0" y="0" flags="0x204"/>
      <component glyphName="acute.case" x="107" y="0" flags="0x4"/>
    </TTGlyph>
    <TTGlyph name="Ccaron" xMin="55" yMin="-12" xMax="622" yMax="949">
      <component glyphName="C" x="0" y="0" flags="0x204"/>
      <component glyphName="caron.case" x="106" y="0" flags="0x4"/>
    </TTGlyph>
    <TTGlyph name="Ccedilla" xMin="55" yMin="-208" xMax="622" yMax="710">
      <contour>
        <pt x="387" y="626" on="1"/>
        <pt x="348" y="626" on="0"/>
        <pt x="280" y="596" on="0"/>
        <pt x="225" y="543" on="0"/>
        <pt x="187" y="468" on="0"/>
        <pt x="178" y="423" on="1"/>
        <pt x="155" y="309" on="1"/>
        <pt x="151" y="291" on="0"/>
        <pt x="149" y="260" on="0"/>
        <pt x="149" y="246" on="1"/>
        <pt x="149" y="208" on="0"/>
        <pt x="169" y="144" on="0"/>
        <pt x="207" y="98" on="0"/>
        <pt x="264" y="72" on="0"/>
        <pt x="300" y="72" on="1"/>
        <pt x="371" y="72" on="0"/>
        <pt x="457" y="138" on="0"/>
        <pt x="488" y="196" on="1"/>
        <pt x="562" y="159" on="1"/>
        <pt x="517" y="74" on="0"/>
        <pt x="394" y="-9" on="0"/>
        <pt x="306" y="-12" on="1"/>
        <pt x="289" y="-61" on="1"/>
        <pt x="291" y="-63" on="1"/>
        <pt x="298" y="-61" on="0"/>
        <pt x="314" y="-58" on="0"/>
        <pt x="325" y="-58" on="1"/>
        <pt x="350" y="-58" on="0"/>
        <pt x="384" y="-84" on="0"/>
        <pt x="384" y="-114" on="1"/>
        <pt x="384" y="-158" on="0"/>
        <pt x="320" y="-208" on="0"/>
        <pt x="269" y="-208" on="1"/>
        <pt x="231" y="-208" on="0"/>
        <pt x="178" y="-185" on="0"/>
        <pt x="167" y="-169" on="1"/>
        <pt x="209" y="-126" on="1"/>
        <pt x="216" y="-136" on="0"/>
        <pt x="246" y="-152" on="0"/>
        <pt x="268" y="-152" on="1"/>
        <pt x="289" y="-152" on="0"/>
        <pt x="314" y="-133" on="0"/>
        <pt x="314" y="-117" on="1"/>
        <pt x="314" y="-101" on="0"/>
        <pt x="290" y="-82" on="0"/>
        <pt x="257" y="-78" on="1"/>
        <pt x="232" y="-75" on="1"/>
        <pt x="254" y="-10" on="1"/>
        <pt x="210" y="-3" on="0"/>
        <pt x="136" y="40" on="0"/>
        <pt x="84" y="109" on="0"/>
        <pt x="55" y="206" on="0"/>
        <pt x="55" y="267" on="1"/>
        <pt x="55" y="358" on="0"/>
        <pt x="105" y="519" on="0"/>
        <pt x="195" y="640" on="0"/>
        <pt x="320" y="710" on="0"/>
        <pt x="396" y="710" on="1"/>
        <pt x="571" y="710" on="0"/>
        <pt x="622" y="549" on="1"/>
        <pt x="540" y="512" on="1"/>
        <pt x="524" y="566" on="0"/>
        <pt x="453" y="626" on="0"/>
      </contour>
    </TTGlyph>
    <TTGlyph name="Ccircumflex" xMin="55" yMin="-12" xMax="622" yMax="939">
      <component glyphName="C" x="0" y="0" flags="0x204"/>
      <component glyphName="circumflex.case" x="107" y="0" flags="0x4"/>
    </TTGlyph>
    <TTGlyph name="Cdotaccent" xMin="55" yMin="-12" xMax="622" yMax="897">
      <component glyphName="C" x="0" y="0" flags="0x204"/>
      <component glyphName="dotaccent.case" x="107" y="0" flags="0x4"/>
    </TTGlyph>
    <TTGlyph name="Chi" xMin="-28" yMin="0" xMax="663" yMax="698">
      <component glyphName="X" x="0" y="0" flags="0x204"/>
    </TTGlyph>
    <TTGlyph name="D" xMin="36" yMin="0" xMax="630" yMax="698">
      <contour>
        <pt x="176" y="698" on="1"/>
        <pt x="385" y="698" on="1"/>
        <pt x="499" y="698" on="0"/>
        <pt x="630" y="562" on="0"/>
        <pt x="630" y="429" on="1"/>
        <pt x="630" y="346" on="0"/>
        <pt x="583" y="191" on="0"/>
        <pt x="493" y="72" on="0"/>
        <pt x="362" y="0" on="0"/>
        <pt x="278" y="0" on="1"/>
        <pt x="36" y="0" on="1"/>
      </contour>
      <contour>
        <pt x="282" y="83" on="1"/>
        <pt x="367" y="83" on="0"/>
        <pt x="487" y="190" on="0"/>
        <pt x="507" y="292" on="1"/>
        <pt x="527" y="392" on="1"/>
        <pt x="530" y="408" on="0"/>
        <pt x="533" y="441" on="0"/>
        <pt x="533" y="454" on="1"/>
        <pt x="533" y="533" on="0"/>
        <pt x="452" y="615" on="0"/>
        <pt x="383" y="615" on="1"/>
        <pt x="253" y="615" on="1"/>
        <pt x="147" y="83" on="1"/>
      </contour>
    </TTGlyph>
    <TTGlyph name="Dcaron" xMin="36" yMin="0" xMax="630" yMax="949">
      <component glyphName="D" x="0" y="0" flags="0x204"/>
      <component glyphName="caron.case" x="90" y="0" flags="0x4"/>
    </TTGlyph>
    <TTGlyph name="Dcroat" xMin="32" yMin="0" xMax="631" yMax="698">
      <contour>
        <pt x="102" y="329" on="1"/>
        <pt x="32" y="329" on="1"/>
        <pt x="47" y="402" on="1"/>
        <pt x="117" y="402" on="1"/>
        <pt x="177" y="698" on="1"/>
        <pt x="386" y="698" on="1"/>
        <pt x="500" y="698" on="0"/>
        <pt x="631" y="562" on="0"/>
        <pt x="631" y="429" on="1"/>
        <pt x="631" y="346" on="0"/>
        <pt x="584" y="191" on="0"/>
        <pt x="494" y="72" on="0"/>
        <pt x="363" y="0" on="0"/>
        <pt x="279" y="0" on="1"/>
        <pt x="37" y="0" on="1"/>
      </contour>
      <contour>
        <pt x="283" y="83" on="1"/>
        <pt x="368" y="83" on="0"/>
        <pt x="488" y="190" on="0"/>
        <pt x="508" y="292" on="1"/>
        <pt x="528" y="392" on="1"/>
        <pt x="531" y="408" on="0"/>
        <pt x="534" y="441" on="0"/>
        <pt x="534" y="454" on="1"/>
        <pt x="534" y="533" on="0"/>
        <pt x="453" y="615" on="0"/>
        <pt x="384" y="615" on="1"/>
        <pt x="254" y="615" on="1"/>
        <pt x="211" y="402" on="1"/>
        <pt x="343" y="402" on="1"/>
        <pt x="328" y="329" on="1"/>
        <pt x="196" y="329" on="1"/>
        <pt x="148" y="83" on="1"/>
      </contour>
    </TTGlyph>
    <TTGlyph name="Delta" xMin="-9" yMin="0" xMax="555" yMax="698">
      <contour>
        <pt x="8" y="85" on="1"/>
        <pt x="343" y="698" on="1"/>
        <pt x="465" y="698" on="1"/>
        <pt x="555" y="85" on="1"/>
        <pt x="538" y="0" on="1"/>
        <pt x="-9" y="0" on="1"/>
      </contour>
      <contour>
        <pt x="390" y="611" on="1"/>
        <pt x="384" y="611" on="1"/>
        <pt x="105" y="83" on="1"/>
        <pt x="461" y="83" on="1"/>
      </contour>
    </TTGlyph>
    <TTGlyph name="E" xMin="36" yMin="0" xMax="595" yMax="698">
      <contour>
        <pt x="36" y="0" on="1"/>
        <pt x="176" y="698" on="1"/>
        <pt x="595" y="698" on="1"/>
        <pt x="578" y="615" on="1"/>
        <pt x="253" y="615" on="1"/>
        <pt x="210" y="395" on="1"/>
        <pt x="501" y="395" on="1"/>
        <pt x="484" y="312" on="1"/>
        <pt x="193" y="312" on="1"/>
        <pt x="147" y="83" on="1"/>
        <pt x="487" y="83" on="1"/>
        <pt x="470" y="0" on="1"/>
      </contour>
    </TTGlyph>
    <TTGlyph name="Eacute" xMin="36" yMin="0" xMax="595" yMax="955">
      <component glyphName="E" x="0" y="0" flags="0x204"/>
      <component glyphName="acute.case" x="89" y="0" flags="0x4"/>
    </TTGlyph>
    <TTGlyph name="Ebreve" xMin="36" yMin="0" xMax="595" yMax="921">
      <component glyphName="E" x="0" y="0" flags="0x204"/>
      <component glyphName="breve.case" x="88" y="0" flags="0x4"/>
    </TTGlyph>
    <TTGlyph name="Ecaron" xMin="36" yMin="0" xMax="595" yMax="949">
      <component glyphName="E" x="0" y="0" flags="0x204"/>
      <component glyphName="caron.case" x="88" y="0" flags="0x4"/>
    </TTGlyph>
    <TTGlyph name="Ecircumflex" xMin="36" yMin="0" xMax="595" yMax="939">
      <component glyphName="E" x="0" y="0" flags="0x204"/>
      <component glyphName="circumflex.case" x="89" y="0" flags="0x4"/>
    </TTGlyph>
    <TTGlyph name="Edieresis" xMin="36" yMin="0" xMax="595" yMax="897">
      <component glyphName="E" x="0" y="0" flags="0x204"/>
      <component glyphName="dieresis.case" x="89" y="0" flags="0x4"/>
    </TTGlyph>
    <TTGlyph name="Edotaccent" xMin="36" yMin="0" xMax="595" yMax="897">
      <component glyphName="E" x="0" y="0" flags="0x204"/>
      <component glyphName="dotaccent.case" x="89" y="0" flags="0x4"/>
    </TTGlyph>
    <TTGlyph name="Egrave" xMin="36" yMin="0" xMax="595" yMax="954">
      <component glyphName="E" x="0" y="0" flags="0x204"/>
      <component glyphName="grave.case" x="89" y="0" flags="0x4"/>
    </TTGlyph>
    <TTGlyph name="Emacron" xMin="36" yMin="0" xMax="595" yMax="877">
      <component glyphName="E" x="0" y="0" flags="0x204"/>
      <component glyphName="macron.case" x="89" y="0" flags="0x4"/>
    </TTGlyph>
    <TTGlyph name="Eng" xMin="36" yMin="-200" xMax="687" yMax="698">
      <contour>
        <pt x="36" y="0" on="1"/>
        <pt x="176" y="698" on="1"/>
        <pt x="282" y="698" on="1"/>
        <pt x="426" y="294" on="1"/>
        <pt x="479" y="132" on="1"/>
        <pt x="484" y="132" on="1"/>
        <pt x="597" y="698" on="1"/>
        <pt x="687" y="698" on="1"/>
        <pt x="529" y="-90" on="1"/>
        <pt x="518" y="-147" on="0"/>
        <pt x="461" y="-200" on="0"/>
        <pt x="405" y="-200" on="1"/>
        <pt x="333" y="-200" on="1"/>
        <pt x="349" y="-121" on="1"/>
        <pt x="434" y="-121" on="1"/>
        <pt x="458" y="0" on="1"/>
        <pt x="441" y="0" on="1"/>
        <pt x="297" y="404" on="1"/>
        <pt x="244" y="566" on="1"/>
        <pt x="239" y="566" on="1"/>
        <pt x="126" y="0" on="1"/>
      </contour>
    </TTGlyph>
    <TTGlyph name="Eogonek" xMin="36" yMin="-208" xMax="595" yMax="698">
      <contour>
        <pt x="176" y="698" on="1"/>
        <pt x="595" y="698" on="1"/>
        <pt x="578" y="615" on="1"/>
        <pt x="253" y="615" on="1"/>
        <pt x="210" y="395" on="1"/>
        <pt x="501" y="395" on="1"/>
        <pt x="484" y="312" on="1"/>
        <pt x="193" y="312" on="1"/>
        <pt x="147" y="83" on="1"/>
        <pt x="487" y="83" on="1"/>
        <pt x="470" y="0" on="1"/>
        <pt x="430" y="-26" on="0"/>
        <pt x="383" y="-64" on="0"/>
        <pt x="359" y="-92" on="0"/>
        <pt x="352" y="-112" on="0"/>
        <pt x="352" y="-120" on="1"/>
        <pt x="352" y="-135" on="0"/>
        <pt x="371" y="-151" on="0"/>
        <pt x="385" y="-151" on="1"/>
        <pt x="413" y="-151" on="0"/>
        <pt x="439" y="-124" on="1"/>
        <pt x="479" y="-168" on="1"/>
        <pt x="465" y="-185" on="0"/>
        <pt x="415" y="-208" on="0"/>
        <pt x="378" y="-208" on="1"/>
        <pt x="358" y="-208" on="0"/>
        <pt x="322" y="-199" on="0"/>
        <pt x="294" y="-180" on="0"/>
        <pt x="277" y="-151" on="0"/>
        <pt x="277" y="-131" on="1"/>
        <pt x="277" y="-90" on="0"/>
        <pt x="345" y="-29" on="0"/>
        <pt x="405" y="-5" on="1"/>
        <pt x="404" y="0" on="1"/>
        <pt x="36" y="0" on="1"/>
      </contour>
    </TTGlyph>
    <TTGlyph name="Epsilon" xMin="36" yMin="0" xMax="595" yMax="698">
      <component glyphName="E" x="0" y="0" flags="0x204"/>
    </TTGlyph>
    <TTGlyph name="Epsilontonos" xMin="57" yMin="0" xMax="644" yMax="787">
      <component glyphName="E" x="49" y="0" flags="0x4"/>
      <component glyphName="tonos.case" x="-232" y="0" flags="0x4"/>
    </TTGlyph>
    <TTGlyph name="Eta" xMin="36" yMin="0" xMax="688" yMax="698">
      <component glyphName="H" x="0" y="0" flags="0x204"/>
    </TTGlyph>
    <TTGlyph name="Etatonos" xMin="57" yMin="0" xMax="737" yMax="787">
      <component glyphName="H" x="49" y="0" flags="0x4"/>
      <component glyphName="tonos.case" x="-232" y="0" flags="0x4"/>
    </TTGlyph>
    <TTGlyph name="Eth" xMin="32" yMin="0" xMax="631" yMax="698">
      <component glyphName="Dcroat" x="0" y="0" flags="0x204"/>
    </TTGlyph>
    <TTGlyph name="Euro" xMin="55" yMin="-12" xMax="617" yMax="710">
      <contour>
        <pt x="286" y="-12" on="1"/>
        <pt x="238" y="-12" on="0"/>
        <pt x="153" y="24" on="0"/>
        <pt x="91" y="95" on="0"/>
        <pt x="55" y="200" on="0"/>
        <pt x="55" y="269" on="1"/>
        <pt x="55" y="361" on="0"/>
        <pt x="106" y="522" on="0"/>
        <pt x="196" y="641" on="0"/>
        <pt x="320" y="710" on="0"/>
        <pt x="394" y="710" on="1"/>
        <pt x="479" y="710" on="0"/>
        <pt x="592" y="636" on="0"/>
        <pt x="617" y="563" on="1"/>
        <pt x="539" y="519" on="1"/>
        <pt x="522" y="573" on="0"/>
        <pt x="450" y="627" on="0"/>
        <pt x="388" y="627" on="1"/>
        <pt x="319" y="627" on="0"/>
        <pt x="214" y="540" on="0"/>
        <pt x="188" y="465" on="1"/>
        <pt x="436" y="465" on="1"/>
        <pt x="422" y="397" on="1"/>
        <pt x="171" y="397" on="1"/>
        <pt x="152" y="301" on="1"/>
        <pt x="403" y="301" on="1"/>
        <pt x="389" y="233" on="1"/>
        <pt x="148" y="233" on="1"/>
        <pt x="151" y="157" on="0"/>
        <pt x="230" y="71" on="0"/>
        <pt x="297" y="71" on="1"/>
        <pt x="368" y="71" on="0"/>
        <pt x="452" y="133" on="0"/>
        <pt x="484" y="189" on="1"/>
        <pt x="546" y="140" on="1"/>
        <pt x="523" y="102" on="0"/>
        <pt x="472" y="46" on="0"/>
        <pt x="411" y="7" on="0"/>
        <pt x="334" y="-12" on="0"/>
      </contour>
    </TTGlyph>
    <TTGlyph name="F" xMin="36" yMin="0" xMax="583" yMax="698">
      <contour>
        <pt x="36" y="0" on="1"/>
        <pt x="176" y="698" on="1"/>
        <pt x="583" y="698" on="1"/>
        <pt x="566" y="615" on="1"/>
        <pt x="253" y="615" on="1"/>
        <pt x="210" y="395" on="1"/>
        <pt x="495" y="395" on="1"/>
        <pt x="478" y="312" on="1"/>
        <pt x="193" y="312" on="1"/>
        <pt x="130" y="0" on="1"/>
      </contour>
    </TTGlyph>
    <TTGlyph name="G" xMin="55" yMin="-12" xMax="647" yMax="710">
      <contour>
        <pt x="483" y="104" on="1"/>
        <pt x="478" y="104" on="1"/>
        <pt x="467" y="80" on="0"/>
        <pt x="430" y="38" on="0"/>
        <pt x="381" y="7" on="0"/>
        <pt x="318" y="-12" on="0"/>
        <pt x="281" y="-12" on="1"/>
        <pt x="231" y="-12" on="0"/>
        <pt x="148" y="24" on="0"/>
        <pt x="88" y="94" on="0"/>
        <pt x="55" y="198" on="0"/>
        <pt x="55" y="267" on="1"/>
        <pt x="55" y="356" on="0"/>
        <pt x="103" y="517" on="0"/>
        <pt x="194" y="638" on="0"/>
        <pt x="325" y="710" on="0"/>
        <pt x="408" y="710" on="1"/>
        <pt x="499" y="710" on="0"/>
        <pt x="625" y="625" on="0"/>
        <pt x="647" y="550" on="1"/>
        <pt x="568" y="512" on="1"/>
        <pt x="550" y="566" on="0"/>
        <pt x="467" y="626" on="0"/>
        <pt x="398" y="626" on="1"/>
        <pt x="311" y="626" on="0"/>
        <pt x="196" y="514" on="0"/>
        <pt x="176" y="415" on="1"/>
        <pt x="155" y="310" on="1"/>
        <pt x="149" y="280" on="0"/>
        <pt x="149" y="251" on="1"/>
        <pt x="149" y="166" on="0"/>
        <pt x="232" y="72" on="0"/>
        <pt x="307" y="72" on="1"/>
        <pt x="342" y="72" on="0"/>
        <pt x="406" y="93" on="0"/>
        <pt x="458" y="132" on="0"/>
        <pt x="494" y="190" on="0"/>
        <pt x="502" y="228" on="1"/>
        <pt x="513" y="282" on="1"/>
        <pt x="368" y="282" on="1"/>
        <pt x="386" y="365" on="1"/>
        <pt x="620" y="365" on="1"/>
        <pt x="547" y="0" on="1"/>
        <pt x="462" y="0" on="1"/>
      </contour>
    </TTGlyph>
    <TTGlyph name="Gamma" xMin="36" yMin="0" xMax="546" yMax="698">
      <component glyphName="uni0413" x="0" y="0" flags="0x204"/>
    </TTGlyph>
    <TTGlyph name="Gbreve" xMin="55" yMin="-12" xMax="647" yMax="921">
      <component glyphName="G" x="0" y="0" flags="0x204"/>
      <component glyphName="breve.case" x="121" y="0" flags="0x4"/>
    </TTGlyph>
    <TTGlyph name="Gcircumflex" xMin="55" yMin="-12" xMax="647" yMax="939">
      <component glyphName="G" x="0" y="0" flags="0x204"/>
      <component glyphName="circumflex.case" x="122" y="0" flags="0x4"/>
    </TTGlyph>
    <TTGlyph name="Gcommaaccent" xMin="55" yMin="-251" xMax="647" yMax="710">
      <component glyphName="G" x="0" y="0" flags="0x204"/>
      <component glyphName="uni0326" x="279" y="0" flags="0x4"/>
    </TTGlyph>
    <TTGlyph name="Gdotaccent" xMin="55" yMin="-12" xMax="647" yMax="897">
      <component glyphName="G" x="0" y="0" flags="0x204"/>
      <component glyphName="dotaccent.case" x="122" y="0" flags="0x4"/>
    </TTGlyph>
    <TTGlyph name="H" xMin="36" yMin="0" xMax="688" yMax="698">
      <contour>
        <pt x="517" y="312" on="1"/>
        <pt x="193" y="312" on="1"/>
        <pt x="130" y="0" on="1"/>
        <pt x="36" y="0" on="1"/>
        <pt x="176" y="698" on="1"/>
        <pt x="270" y="698" on="1"/>
        <pt x="210" y="395" on="1"/>
        <pt x="534" y="395" on="1"/>
        <pt x="594" y="698" on="1"/>
        <pt x="688" y="698" on="1"/>
        <pt x="548" y="0" on="1"/>
        <pt x="454" y="0" on="1"/>
      </contour>
    </TTGlyph>
    <TTGlyph name="Hbar" xMin="39" yMin="0" xMax="735" yMax="698">
      <contour>
        <pt x="519" y="312" on="1"/>
        <pt x="195" y="312" on="1"/>
        <pt x="132" y="0" on="1"/>
        <pt x="39" y="0" on="1"/>
        <pt x="142" y="519" on="1"/>
        <pt x="75" y="519" on="1"/>
        <pt x="89" y="589" on="1"/>
        <pt x="156" y="589" on="1"/>
        <pt x="179" y="698" on="1"/>
        <pt x="272" y="698" on="1"/>
        <pt x="250" y="589" on="1"/>
        <pt x="574" y="589" on="1"/>
        <pt x="596" y="698" on="1"/>
        <pt x="690" y="698" on="1"/>
        <pt x="668" y="589" on="1"/>
        <pt x="735" y="589" on="1"/>
        <pt x="721" y="519" on="1"/>
        <pt x="654" y="519" on="1"/>
        <pt x="550" y="0" on="1"/>
        <pt x="456" y="0" on="1"/>
      </contour>
      <contour>
        <pt x="536" y="395" on="1"/>
        <pt x="560" y="519" on="1"/>
        <pt x="236" y="519" on="1"/>
        <pt x="212" y="395" on="1"/>
      </contour>
    </TTGlyph>
    <TTGlyph name="Hcircumflex" xMin="36" yMin="0" xMax="688" yMax="939">
      <component glyphName="H" x="0" y="0" flags="0x204"/>
      <component glyphName="circumflex.case" x="140" y="0" flags="0x4"/>
    </TTGlyph>
    <TTGlyph name="I" xMin="7" yMin="0" xMax="423" yMax="698">
      <contour>
        <pt x="7" y="0" on="1"/>
        <pt x="22" y="78" on="1"/>
        <pt x="114" y="78" on="1"/>
        <pt x="223" y="620" on="1"/>
        <pt x="131" y="620" on="1"/>
        <pt x="147" y="698" on="1"/>
        <pt x="423" y="698" on="1"/>
        <pt x="408" y="620" on="1"/>
        <pt x="316" y="620" on="1"/>
        <pt x="207" y="78" on="1"/>
        <pt x="299" y="78" on="1"/>
        <pt x="283" y="0" on="1"/>
      </contour>
    </TTGlyph>
    <TTGlyph name="IJ" xMin="73" yMin="-12" xMax="643" yMax="698">
      <contour>
        <pt x="643" y="698" on="1"/>
        <pt x="547" y="219" on="1"/>
        <pt x="524" y="108" on="0"/>
        <pt x="387" y="-12" on="0"/>
        <pt x="277" y="-12" on="1"/>
        <pt x="231" y="-12" on="0"/>
        <pt x="156" y="14" on="0"/>
        <pt x="103" y="59" on="0"/>
        <pt x="73" y="122" on="0"/>
        <pt x="73" y="160" on="1"/>
        <pt x="158" y="180" on="1"/>
        <pt x="160" y="127" on="0"/>
        <pt x="224" y="71" on="0"/>
        <pt x="284" y="71" on="1"/>
        <pt x="352" y="71" on="0"/>
        <pt x="440" y="151" on="0"/>
        <pt x="455" y="226" on="1"/>
        <pt x="533" y="615" on="1"/>
        <pt x="390" y="615" on="1"/>
        <pt x="406" y="698" on="1"/>
      </contour>
      <contour>
        <pt x="176" y="698" on="1"/>
        <pt x="269" y="698" on="1"/>
        <pt x="188" y="294" on="1"/>
        <pt x="95" y="294" on="1"/>
      </contour>
    </TTGlyph>
    <TTGlyph name="IJacute" xMin="73" yMin="-12" xMax="675" yMax="955">
      <component glyphName="IJ" x="0" y="0" flags="0x4"/>
      <component glyphName="acute.case" x="-69" y="0" flags="0x4"/>
      <component glyphName="acute.case" x="232" y="0" flags="0x4"/>
    </TTGlyph>
    <TTGlyph name="Iacute" xMin="7" yMin="0" xMax="434" yMax="955">
      <component glyphName="I" x="0" y="0" flags="0x204"/>
      <component glyphName="acute.case" x="-9" y="0" flags="0x4"/>
    </TTGlyph>
    <TTGlyph name="Ibreve" xMin="7" yMin="0" xMax="476" yMax="921">
      <component glyphName="I" x="0" y="0" flags="0x204"/>
      <component glyphName="breve.case" x="-10" y="0" flags="0x4"/>
    </TTGlyph>
    <TTGlyph name="Icircumflex" xMin="7" yMin="0" xMax="460" yMax="939">
      <component glyphName="I" x="0" y="0" flags="0x204"/>
      <component glyphName="circumflex.case" x="-9" y="0" flags="0x4"/>
    </TTGlyph>
    <TTGlyph name="Idieresis" xMin="7" yMin="0" xMax="457" yMax="897">
      <component glyphName="I" x="0" y="0" flags="0x204"/>
      <component glyphName="dieresis.case" x="-9" y="0" flags="0x4"/>
    </TTGlyph>
    <TTGlyph name="Idotaccent" xMin="7" yMin="0" xMax="423" yMax="897">
      <component glyphName="I" x="0" y="0" flags="0x204"/>
      <component glyphName="dotaccent.case" x="-9" y="0" flags="0x4"/>
    </TTGlyph>
    <TTGlyph name="Igrave" xMin="7" yMin="0" xMax="423" yMax="954">
      <component glyphName="I" x="0" y="0" flags="0x204"/>
      <component glyphName="grave.case" x="-9" y="0" flags="0x4"/>
    </TTGlyph>
    <TTGlyph name="Imacron" xMin="7" yMin="0" xMax="453" yMax="877">
      <component glyphName="I" x="0" y="0" flags="0x204"/>
      <component glyphName="macron.case" x="-9" y="0" flags="0x4"/>
    </TTGlyph>
    <TTGlyph name="Iogonek" xMin="7" yMin="-208" xMax="424" yMax="698">
      <contour>
        <pt x="22" y="78" on="1"/>
        <pt x="114" y="78" on="1"/>
        <pt x="223" y="620" on="1"/>
        <pt x="131" y="620" on="1"/>
        <pt x="147" y="698" on="1"/>
        <pt x="424" y="698" on="1"/>
        <pt x="408" y="620" on="1"/>
        <pt x="316" y="620" on="1"/>
        <pt x="207" y="78" on="1"/>
        <pt x="299" y="78" on="1"/>
        <pt x="283" y="0" on="1"/>
        <pt x="243" y="-26" on="0"/>
        <pt x="196" y="-64" on="0"/>
        <pt x="172" y="-92" on="0"/>
        <pt x="165" y="-112" on="0"/>
        <pt x="165" y="-120" on="1"/>
        <pt x="165" y="-135" on="0"/>
        <pt x="184" y="-151" on="0"/>
        <pt x="198" y="-151" on="1"/>
        <pt x="226" y="-151" on="0"/>
        <pt x="252" y="-124" on="1"/>
        <pt x="292" y="-168" on="1"/>
        <pt x="278" y="-185" on="0"/>
        <pt x="228" y="-208" on="0"/>
        <pt x="191" y="-208" on="1"/>
        <pt x="171" y="-208" on="0"/>
        <pt x="135" y="-199" on="0"/>
        <pt x="107" y="-180" on="0"/>
        <pt x="90" y="-151" on="0"/>
        <pt x="90" y="-131" on="1"/>
        <pt x="90" y="-90" on="0"/>
        <pt x="158" y="-29" on="0"/>
        <pt x="218" y="-5" on="1"/>
        <pt x="217" y="0" on="1"/>
        <pt x="7" y="0" on="1"/>
      </contour>
    </TTGlyph>
    <TTGlyph name="Iota" xMin="7" yMin="0" xMax="423" yMax="698">
      <component glyphName="I" x="0" y="0" flags="0x204"/>
    </TTGlyph>
    <TTGlyph name="Iotadieresis" xMin="7" yMin="0" xMax="457" yMax="897">
      <component glyphName="I" x="0" y="0" flags="0x204"/>
      <component glyphName="dieresis.case" x="-9" y="0" flags="0x4"/>
    </TTGlyph>
    <TTGlyph name="Iotatonos" xMin="57" yMin="0" xMax="502" yMax="787">
      <component glyphName="I" x="79" y="0" flags="0x4"/>
      <component glyphName="tonos.case" x="-232" y="0" flags="0x4"/>
    </TTGlyph>
    <TTGlyph name="Itilde" xMin="7" yMin="0" xMax="476" yMax="900">
      <component glyphName="I" x="0" y="0" flags="0x204"/>
      <component glyphName="tilde.case" x="-9" y="0" flags="0x4"/>
    </TTGlyph>
    <TTGlyph name="J" xMin="3" yMin="-12" xMax="505" yMax="698">
      <contour>
        <pt x="505" y="698" on="1"/>
        <pt x="403" y="187" on="1"/>
        <pt x="384" y="93" on="0"/>
        <pt x="270" y="-12" on="0"/>
        <pt x="179" y="-12" on="1"/>
        <pt x="101" y="-12" on="0"/>
        <pt x="6" y="78" on="0"/>
        <pt x="3" y="158" on="1"/>
        <pt x="89" y="176" on="1"/>
        <pt x="92" y="131" on="0"/>
        <pt x="136" y="73" on="0"/>
        <pt x="182" y="73" on="1"/>
        <pt x="287" y="73" on="0"/>
        <pt x="312" y="199" on="1"/>
        <pt x="395" y="615" on="1"/>
        <pt x="167" y="615" on="1"/>
        <pt x="184" y="698" on="1"/>
      </contour>
    </TTGlyph>
    <TTGlyph name="Jacute" xMin="3" yMin="-12" xMax="505" yMax="955">
      <component glyphName="J" x="0" y="0" flags="0x204"/>
      <component glyphName="acute.case" x="45" y="0" flags="0x4"/>
    </TTGlyph>
    <TTGlyph name="Jcircumflex" xMin="3" yMin="-12" xMax="514" yMax="939">
      <component glyphName="J" x="0" y="0" flags="0x204"/>
      <component glyphName="circumflex.case" x="45" y="0" flags="0x4"/>
    </TTGlyph>
    <TTGlyph name="K" xMin="36" yMin="0" xMax="676" yMax="698">
      <contour>
        <pt x="296" y="335" on="1"/>
        <pt x="173" y="217" on="1"/>
        <pt x="130" y="0" on="1"/>
        <pt x="36" y="0" on="1"/>
        <pt x="176" y="698" on="1"/>
        <pt x="270" y="698" on="1"/>
        <pt x="199" y="346" on="1"/>
        <pt x="205" y="346" on="1"/>
        <pt x="322" y="464" on="1"/>
        <pt x="559" y="698" on="1"/>
        <pt x="676" y="698" on="1"/>
        <pt x="368" y="396" on="1"/>
        <pt x="559" y="0" on="1"/>
        <pt x="457" y="0" on="1"/>
      </contour>
    </TTGlyph>
    <TTGlyph name="Kappa" xMin="36" yMin="0" xMax="676" yMax="698">
      <component glyphName="K" x="0" y="0" flags="0x204"/>
    </TTGlyph>
    <TTGlyph name="Kcommaaccent" xMin="36" yMin="-251" xMax="676" yMax="698">
      <component glyphName="K" x="0" y="0" flags="0x204"/>
      <component glyphName="uni0326" x="267" y="0" flags="0x4"/>
    </TTGlyph>
    <TTGlyph name="L" xMin="36" yMin="0" xMax="428" yMax="698">
      <contour>
        <pt x="36" y="0" on="1"/>
        <pt x="176" y="698" on="1"/>
        <pt x="270" y="698" on="1"/>
        <pt x="147" y="83" on="1"/>
        <pt x="428" y="83" on="1"/>
        <pt x="411" y="0" on="1"/>
      </contour>
    </TTGlyph>
    <TTGlyph name="Lacute" xMin="36" yMin="0" xMax="428" yMax="955">
      <component glyphName="L" x="0" y="0" flags="0x204"/>
      <component glyphName="acute.case" x="-67" y="0" flags="0x4"/>
    </TTGlyph>
    <TTGlyph name="Lambda" xMin="-29" yMin="0" xMax="543" yMax="698">
      <contour>
        <pt x="456" y="698" on="1"/>
        <pt x="543" y="0" on="1"/>
        <pt x="448" y="0" on="1"/>
        <pt x="411" y="335" on="1"/>
        <pt x="382" y="606" on="1"/>
        <pt x="376" y="606" on="1"/>
        <pt x="243" y="339" on="1"/>
        <pt x="70" y="0" on="1"/>
        <pt x="-29" y="0" on="1"/>
        <pt x="338" y="698" on="1"/>
      </contour>
    </TTGlyph>
    <TTGlyph name="Lcaron" xMin="36" yMin="0" xMax="463" yMax="740">
      <component glyphName="L" x="0" y="0" flags="0x204"/>
      <component glyphName="uni02BC" x="63" y="0" flags="0x4"/>
    </TTGlyph>
    <TTGlyph name="Lcommaaccent" xMin="36" yMin="-251" xMax="428" yMax="698">
      <component glyphName="L" x="0" y="0" flags="0x204"/>
      <component glyphName="uni0326" x="223" y="0" flags="0x4"/>
    </TTGlyph>
    <TTGlyph name="Ldot" xMin="36" yMin="0" xMax="452" yMax="698">
      <component glyphName="L" x="0" y="0" flags="0x204"/>
      <component glyphName="dotaccent" x="75" y="-317" flags="0x4"/>
    </TTGlyph>
    <TTGlyph name="Lslash" xMin="-6" yMin="0" xMax="432" yMax="698">
      <contour>
        <pt x="415" y="0" on="1"/>
        <pt x="40" y="0" on="1"/>
        <pt x="94" y="269" on="1"/>
        <pt x="-6" y="238" on="1"/>
        <pt x="9" y="316" on="1"/>
        <pt x="110" y="347" on="1"/>
        <pt x="180" y="698" on="1"/>
        <pt x="274" y="698" on="1"/>
        <pt x="210" y="379" on="1"/>
        <pt x="393" y="438" on="1"/>
        <pt x="377" y="357" on="1"/>
        <pt x="194" y="299" on="1"/>
        <pt x="151" y="83" on="1"/>
        <pt x="432" y="83" on="1"/>
      </contour>
    </TTGlyph>
    <TTGlyph name="M" xMin="36" yMin="0" xMax="788" yMax="698">
      <contour>
        <pt x="669" y="562" on="1"/>
        <pt x="664" y="562" on="1"/>
        <pt x="581" y="442" on="1"/>
        <pt x="376" y="156" on="1"/>
        <pt x="282" y="445" on="1"/>
        <pt x="245" y="562" on="1"/>
        <pt x="240" y="562" on="1"/>
        <pt x="127" y="0" on="1"/>
        <pt x="36" y="0" on="1"/>
        <pt x="176" y="698" on="1"/>
        <pt x="290" y="698" on="1"/>
        <pt x="405" y="328" on="1"/>
        <pt x="408" y="328" on="1"/>
        <pt x="666" y="698" on="1"/>
        <pt x="788" y="698" on="1"/>
        <pt x="648" y="0" on="1"/>
        <pt x="557" y="0" on="1"/>
      </contour>
    </TTGlyph>
    <TTGlyph name="Mu" xMin="36" yMin="0" xMax="788" yMax="698">
      <component glyphName="M" x="0" y="0" flags="0x204"/>
    </TTGlyph>
    <TTGlyph name="N" xMin="36" yMin="0" xMax="687" yMax="698">
      <contour>
        <pt x="297" y="404" on="1"/>
        <pt x="244" y="566" on="1"/>
        <pt x="239" y="566" on="1"/>
        <pt x="126" y="0" on="1"/>
        <pt x="36" y="0" on="1"/>
        <pt x="176" y="698" on="1"/>
        <pt x="282" y="698" on="1"/>
        <pt x="426" y="294" on="1"/>
        <pt x="479" y="132" on="1"/>
        <pt x="484" y="132" on="1"/>
        <pt x="597" y="698" on="1"/>
        <pt x="687" y="698" on="1"/>
        <pt x="547" y="0" on="1"/>
        <pt x="441" y="0" on="1"/>
      </contour>
    </TTGlyph>
    <TTGlyph name="Nacute" xMin="36" yMin="0" xMax="687" yMax="955">
      <component glyphName="N" x="0" y="0" flags="0x204"/>
      <component glyphName="acute.case" x="142" y="0" flags="0x4"/>
    </TTGlyph>
    <TTGlyph name="Ncaron" xMin="36" yMin="0" xMax="687" yMax="949">
      <component glyphName="N" x="0" y="0" flags="0x204"/>
      <component glyphName="caron.case" x="141" y="0" flags="0x4"/>
    </TTGlyph>
    <TTGlyph name="Ncommaaccent" xMin="36" yMin="-251" xMax="687" yMax="698">
      <component glyphName="N" x="0" y="0" flags="0x204"/>
      <component glyphName="uni0326" x="292" y="0" flags="0x4"/>
    </TTGlyph>
    <TTGlyph name="Ntilde" xMin="36" yMin="0" xMax="687" yMax="900">
      <component glyphName="N" x="0" y="0" flags="0x204"/>
      <component glyphName="tilde.case" x="142" y="0" flags="0x4"/>
    </TTGlyph>
    <TTGlyph name="Nu" xMin="36" yMin="0" xMax="687" yMax="698">
      <component glyphName="N" x="0" y="0" flags="0x204"/>
    </TTGlyph>
    <TTGlyph name="O" xMin="55" yMin="-12" xMax="655" yMax="710">
      <contour>
        <pt x="300" y="-12" on="1"/>
        <pt x="248" y="-12" on="0"/>
        <pt x="159" y="23" on="0"/>
        <pt x="93" y="92" on="0"/>
        <pt x="55" y="194" on="0"/>
        <pt x="55" y="262" on="1"/>
        <pt x="55" y="349" on="0"/>
        <pt x="105" y="511" on="0"/>
        <pt x="197" y="636" on="0"/>
        <pt x="328" y="710" on="0"/>
        <pt x="410" y="710" on="1"/>
        <pt x="462" y="710" on="0"/>
        <pt x="551" y="675" on="0"/>
        <pt x="617" y="606" on="0"/>
        <pt x="655" y="503" on="0"/>
        <pt x="655" y="436" on="1"/>
        <pt x="655" y="349" on="0"/>
        <pt x="605" y="187" on="0"/>
        <pt x="513" y="62" on="0"/>
        <pt x="382" y="-12" on="0"/>
      </contour>
      <contour>
        <pt x="308" y="72" on="1"/>
        <pt x="395" y="72" on="0"/>
        <pt x="514" y="188" on="0"/>
        <pt x="535" y="294" on="1"/>
        <pt x="555" y="394" on="1"/>
        <pt x="562" y="429" on="0"/>
        <pt x="562" y="460" on="1"/>
        <pt x="562" y="537" on="0"/>
        <pt x="479" y="626" on="0"/>
        <pt x="402" y="626" on="1"/>
        <pt x="315" y="626" on="0"/>
        <pt x="196" y="510" on="0"/>
        <pt x="175" y="404" on="1"/>
        <pt x="155" y="304" on="1"/>
        <pt x="148" y="269" on="0"/>
        <pt x="148" y="238" on="1"/>
        <pt x="148" y="161" on="0"/>
        <pt x="231" y="72" on="0"/>
      </contour>
    </TTGlyph>
    <TTGlyph name="OE" xMin="55" yMin="-12" xMax="968" yMax="710">
      <contour>
        <pt x="410" y="0" on="1"/>
        <pt x="381" y="-5" on="0"/>
        <pt x="323" y="-12" on="0"/>
        <pt x="299" y="-12" on="1"/>
        <pt x="246" y="-12" on="0"/>
        <pt x="157" y="23" on="0"/>
        <pt x="92" y="93" on="0"/>
        <pt x="55" y="197" on="0"/>
        <pt x="55" y="265" on="1"/>
        <pt x="55" y="352" on="0"/>
        <pt x="103" y="513" on="0"/>
        <pt x="196" y="636" on="0"/>
        <pt x="332" y="710" on="0"/>
        <pt x="419" y="710" on="1"/>
        <pt x="432" y="710" on="0"/>
        <pt x="465" y="708" on="0"/>
        <pt x="501" y="705" on="0"/>
        <pt x="536" y="701" on="0"/>
        <pt x="551" y="698" on="1"/>
        <pt x="968" y="698" on="1"/>
        <pt x="951" y="615" on="1"/>
        <pt x="626" y="615" on="1"/>
        <pt x="583" y="395" on="1"/>
        <pt x="874" y="395" on="1"/>
        <pt x="857" y="312" on="1"/>
        <pt x="567" y="312" on="1"/>
        <pt x="520" y="83" on="1"/>
        <pt x="860" y="83" on="1"/>
        <pt x="843" y="0" on="1"/>
      </contour>
      <contour>
        <pt x="320" y="72" on="1"/>
        <pt x="344" y="72" on="0"/>
        <pt x="403" y="79" on="0"/>
        <pt x="427" y="87" on="1"/>
        <pt x="532" y="614" on="1"/>
        <pt x="520" y="617" on="0"/>
        <pt x="490" y="621" on="0"/>
        <pt x="457" y="624" on="0"/>
        <pt x="427" y="626" on="0"/>
        <pt x="415" y="626" on="1"/>
        <pt x="314" y="626" on="0"/>
        <pt x="197" y="512" on="0"/>
        <pt x="175" y="404" on="1"/>
        <pt x="155" y="304" on="1"/>
        <pt x="148" y="270" on="0"/>
        <pt x="148" y="238" on="1"/>
        <pt x="148" y="162" on="0"/>
        <pt x="231" y="72" on="0"/>
      </contour>
    </TTGlyph>
    <TTGlyph name="Oacute" xMin="55" yMin="-12" xMax="655" yMax="955">
      <component glyphName="O" x="0" y="0" flags="0x204"/>
      <component glyphName="acute.case" x="121" y="0" flags="0x4"/>
    </TTGlyph>
    <TTGlyph name="Obreve" xMin="55" yMin="-12" xMax="655" yMax="921">
      <component glyphName="O" x="0" y="0" flags="0x204"/>
      <component glyphName="breve.case" x="120" y="0" flags="0x4"/>
    </TTGlyph>
    <TTGlyph name="Ocircumflex" xMin="55" yMin="-12" xMax="655" yMax="939">
      <component glyphName="O" x="0" y="0" flags="0x204"/>
      <component glyphName="circumflex.case" x="121" y="0" flags="0x4"/>
    </TTGlyph>
    <TTGlyph name="Odieresis" xMin="55" yMin="-12" xMax="655" yMax="897">
      <component glyphName="O" x="0" y="0" flags="0x204"/>
      <component glyphName="dieresis.case" x="121" y="0" flags="0x4"/>
    </TTGlyph>
    <TTGlyph name="Ograve" xMin="55" yMin="-12" xMax="655" yMax="954">
      <component glyphName="O" x="0" y="0" flags="0x204"/>
      <component glyphName="grave.case" x="121" y="0" flags="0x4"/>
    </TTGlyph>
    <TTGlyph name="Ohorn" xMin="55" yMin="-12" xMax="740" yMax="811">
      <contour>
        <pt x="740" y="811" on="1"/>
        <pt x="719" y="709" on="1"/>
        <pt x="712" y="678" on="0"/>
        <pt x="681" y="640" on="0"/>
        <pt x="641" y="640" on="1"/>
        <pt x="585" y="640" on="1"/>
        <pt x="621" y="602" on="0"/>
        <pt x="655" y="498" on="0"/>
        <pt x="655" y="436" on="1"/>
        <pt x="655" y="349" on="0"/>
        <pt x="606" y="187" on="0"/>
        <pt x="514" y="62" on="0"/>
        <pt x="382" y="-12" on="0"/>
        <pt x="300" y="-12" on="1"/>
        <pt x="248" y="-12" on="0"/>
        <pt x="159" y="23" on="0"/>
        <pt x="93" y="92" on="0"/>
        <pt x="55" y="194" on="0"/>
        <pt x="55" y="262" on="1"/>
        <pt x="55" y="349" on="0"/>
        <pt x="105" y="511" on="0"/>
        <pt x="197" y="636" on="0"/>
        <pt x="329" y="710" on="0"/>
        <pt x="411" y="710" on="1"/>
        <pt x="453" y="710" on="0"/>
        <pt x="491" y="698" on="1"/>
        <pt x="640" y="698" on="1"/>
        <pt x="662" y="811" on="1"/>
      </contour>
      <contour>
        <pt x="308" y="72" on="1"/>
        <pt x="395" y="72" on="0"/>
        <pt x="514" y="188" on="0"/>
        <pt x="535" y="294" on="1"/>
        <pt x="555" y="394" on="1"/>
        <pt x="562" y="429" on="0"/>
        <pt x="562" y="460" on="1"/>
        <pt x="562" y="537" on="0"/>
        <pt x="479" y="626" on="0"/>
        <pt x="402" y="626" on="1"/>
        <pt x="315" y="626" on="0"/>
        <pt x="196" y="510" on="0"/>
        <pt x="175" y="404" on="1"/>
        <pt x="155" y="304" on="1"/>
        <pt x="148" y="269" on="0"/>
        <pt x="148" y="238" on="1"/>
        <pt x="148" y="161" on="0"/>
        <pt x="231" y="72" on="0"/>
      </contour>
    </TTGlyph>
    <TTGlyph name="Ohungarumlaut" xMin="55" yMin="-12" xMax="655" yMax="953">
      <component glyphName="O" x="0" y="0" flags="0x204"/>
      <component glyphName="hungarumlaut.case" x="121" y="0" flags="0x4"/>
    </TTGlyph>
    <TTGlyph name="Omacron" xMin="55" yMin="-12" xMax="655" yMax="877">
      <component glyphName="O" x="0" y="0" flags="0x204"/>
      <component glyphName="macron.case" x="121" y="0" flags="0x4"/>
    </TTGlyph>
    <TTGlyph name="Omega" xMin="-14" yMin="0" xMax="653" yMax="710">
      <contour>
        <pt x="3" y="83" on="1"/>
        <pt x="159" y="83" on="1"/>
        <pt x="162" y="94" on="1"/>
        <pt x="114" y="125" on="0"/>
        <pt x="68" y="242" on="0"/>
        <pt x="68" y="314" on="1"/>
        <pt x="68" y="396" on="0"/>
        <pt x="120" y="540" on="0"/>
        <pt x="213" y="648" on="0"/>
        <pt x="341" y="710" on="0"/>
        <pt x="416" y="710" on="1"/>
        <pt x="468" y="710" on="0"/>
        <pt x="555" y="674" on="0"/>
        <pt x="618" y="607" on="0"/>
        <pt x="653" y="511" on="0"/>
        <pt x="653" y="451" on="1"/>
        <pt x="653" y="399" on="0"/>
        <pt x="632" y="292" on="0"/>
        <pt x="583" y="195" on="0"/>
        <pt x="504" y="116" on="0"/>
        <pt x="447" y="94" on="1"/>
        <pt x="444" y="83" on="1"/>
        <pt x="600" y="83" on="1"/>
        <pt x="583" y="0" on="1"/>
        <pt x="352" y="0" on="1"/>
        <pt x="378" y="126" on="1"/>
        <pt x="436" y="146" on="0"/>
        <pt x="520" y="239" on="0"/>
        <pt x="534" y="305" on="1"/>
        <pt x="555" y="410" on="1"/>
        <pt x="557" y="424" on="0"/>
        <pt x="561" y="452" on="0"/>
        <pt x="561" y="472" on="1"/>
        <pt x="561" y="505" on="0"/>
        <pt x="540" y="561" on="0"/>
        <pt x="501" y="602" on="0"/>
        <pt x="442" y="626" on="0"/>
        <pt x="405" y="626" on="1"/>
        <pt x="315" y="626" on="0"/>
        <pt x="201" y="511" on="0"/>
        <pt x="182" y="417" on="1"/>
        <pt x="164" y="327" on="1"/>
        <pt x="162" y="315" on="0"/>
        <pt x="160" y="288" on="0"/>
        <pt x="160" y="277" on="1"/>
        <pt x="160" y="223" on="0"/>
        <pt x="207" y="141" on="0"/>
        <pt x="243" y="126" on="1"/>
        <pt x="217" y="0" on="1"/>
        <pt x="-14" y="0" on="1"/>
      </contour>
    </TTGlyph>
    <TTGlyph name="Omegatonos" xMin="24" yMin="0" xMax="691" yMax="787">
      <component glyphName="Omega" x="38" y="0" flags="0x4"/>
      <component glyphName="tonos.case" x="-232" y="0" flags="0x4"/>
    </TTGlyph>
    <TTGlyph name="Omicron" xMin="55" yMin="-12" xMax="655" yMax="710">
      <component glyphName="O" x="0" y="0" flags="0x204"/>
    </TTGlyph>
    <TTGlyph name="Omicrontonos" xMin="57" yMin="-12" xMax="693" yMax="787">
      <component glyphName="O" x="38" y="0" flags="0x4"/>
      <component glyphName="tonos.case" x="-232" y="0" flags="0x4"/>
    </TTGlyph>
    <TTGlyph name="Oslash" xMin="3" yMin="-49" xMax="708" yMax="747">
      <contour>
        <pt x="300" y="-12" on="1"/>
        <pt x="205" y="-12" on="0"/>
        <pt x="140" y="44" on="1"/>
        <pt x="59" y="-49" on="1"/>
        <pt x="3" y="1" on="1"/>
        <pt x="93" y="104" on="1"/>
        <pt x="75" y="136" on="0"/>
        <pt x="56" y="214" on="0"/>
        <pt x="56" y="262" on="1"/>
        <pt x="56" y="349" on="0"/>
        <pt x="105" y="511" on="0"/>
        <pt x="197" y="636" on="0"/>
        <pt x="329" y="710" on="0"/>
        <pt x="411" y="710" on="1"/>
        <pt x="506" y="710" on="0"/>
        <pt x="571" y="654" on="1"/>
        <pt x="652" y="747" on="1"/>
        <pt x="708" y="697" on="1"/>
        <pt x="618" y="594" on="1"/>
        <pt x="636" y="562" on="0"/>
        <pt x="655" y="484" on="0"/>
        <pt x="655" y="436" on="1"/>
        <pt x="655" y="349" on="0"/>
        <pt x="606" y="187" on="0"/>
        <pt x="514" y="62" on="0"/>
        <pt x="382" y="-12" on="0"/>
      </contour>
      <contour>
        <pt x="154" y="303" on="1"/>
        <pt x="151" y="285" on="0"/>
        <pt x="147" y="251" on="0"/>
        <pt x="147" y="237" on="1"/>
        <pt x="147" y="220" on="0"/>
        <pt x="152" y="187" on="0"/>
        <pt x="157" y="173" on="1"/>
        <pt x="517" y="585" on="1"/>
        <pt x="473" y="626" on="0"/>
        <pt x="403" y="626" on="1"/>
        <pt x="314" y="626" on="0"/>
        <pt x="197" y="510" on="0"/>
        <pt x="175" y="405" on="1"/>
      </contour>
      <contour>
        <pt x="308" y="72" on="1"/>
        <pt x="397" y="72" on="0"/>
        <pt x="514" y="188" on="0"/>
        <pt x="536" y="293" on="1"/>
        <pt x="557" y="395" on="1"/>
        <pt x="560" y="413" on="0"/>
        <pt x="564" y="447" on="0"/>
        <pt x="564" y="461" on="1"/>
        <pt x="564" y="478" on="0"/>
        <pt x="559" y="511" on="0"/>
        <pt x="554" y="525" on="1"/>
        <pt x="194" y="113" on="1"/>
        <pt x="238" y="72" on="0"/>
      </contour>
    </TTGlyph>
    <TTGlyph name="Oslashacute" xMin="3" yMin="-49" xMax="708" yMax="955">
      <component glyphName="Oslash" x="0" y="0" flags="0x204"/>
      <component glyphName="acute.case" x="114" y="0" flags="0x4"/>
    </TTGlyph>
    <TTGlyph name="Otilde" xMin="55" yMin="-12" xMax="655" yMax="900">
      <component glyphName="O" x="0" y="0" flags="0x204"/>
      <component glyphName="tilde.case" x="121" y="0" flags="0x4"/>
    </TTGlyph>
    <TTGlyph name="P" xMin="36" yMin="0" xMax="610" yMax="698">
      <contour>
        <pt x="36" y="0" on="1"/>
        <pt x="176" y="698" on="1"/>
        <pt x="428" y="698" on="1"/>
        <pt x="475" y="698" on="0"/>
        <pt x="544" y="673" on="0"/>
        <pt x="589" y="627" on="0"/>
        <pt x="610" y="564" on="0"/>
        <pt x="610" y="527" on="1"/>
        <pt x="610" y="477" on="0"/>
        <pt x="576" y="390" on="0"/>
        <pt x="513" y="326" on="0"/>
        <pt x="424" y="290" on="0"/>
        <pt x="369" y="290" on="1"/>
        <pt x="188" y="290" on="1"/>
        <pt x="130" y="0" on="1"/>
      </contour>
      <contour>
        <pt x="205" y="373" on="1"/>
        <pt x="382" y="373" on="1"/>
        <pt x="430" y="373" on="0"/>
        <pt x="493" y="423" on="0"/>
        <pt x="502" y="468" on="1"/>
        <pt x="508" y="498" on="0"/>
        <pt x="513" y="528" on="0"/>
        <pt x="513" y="539" on="1"/>
        <pt x="513" y="573" on="0"/>
        <pt x="473" y="615" on="0"/>
        <pt x="424" y="615" on="1"/>
        <pt x="253" y="615" on="1"/>
      </contour>
    </TTGlyph>
    <TTGlyph name="Phi" xMin="50" yMin="-32" xMax="779" yMax="728">
      <contour>
        <pt x="303" y="31" on="1"/>
        <pt x="295" y="31" on="1"/>
        <pt x="235" y="31" on="0"/>
        <pt x="143" y="66" on="0"/>
        <pt x="82" y="130" on="0"/>
        <pt x="50" y="221" on="0"/>
        <pt x="50" y="277" on="1"/>
        <pt x="50" y="358" on="0"/>
        <pt x="99" y="503" on="0"/>
        <pt x="195" y="612" on="0"/>
        <pt x="335" y="677" on="0"/>
        <pt x="425" y="677" on="1"/>
        <pt x="433" y="677" on="1"/>
        <pt x="444" y="728" on="1"/>
        <pt x="537" y="728" on="1"/>
        <pt x="526" y="677" on="1"/>
        <pt x="534" y="677" on="1"/>
        <pt x="594" y="677" on="0"/>
        <pt x="686" y="642" on="0"/>
        <pt x="747" y="578" on="0"/>
        <pt x="779" y="487" on="0"/>
        <pt x="779" y="431" on="1"/>
        <pt x="779" y="350" on="0"/>
        <pt x="730" y="205" on="0"/>
        <pt x="634" y="96" on="0"/>
        <pt x="494" y="31" on="0"/>
        <pt x="404" y="31" on="1"/>
        <pt x="396" y="31" on="1"/>
        <pt x="383" y="-32" on="1"/>
        <pt x="290" y="-32" on="1"/>
      </contour>
      <contour>
        <pt x="420" y="599" on="1"/>
        <pt x="412" y="599" on="1"/>
        <pt x="311" y="599" on="0"/>
        <pt x="179" y="484" on="0"/>
        <pt x="158" y="379" on="1"/>
        <pt x="147" y="327" on="1"/>
        <pt x="143" y="304" on="0"/>
        <pt x="143" y="270" on="1"/>
        <pt x="143" y="191" on="0"/>
        <pt x="223" y="109" on="0"/>
        <pt x="314" y="109" on="1"/>
        <pt x="322" y="109" on="1"/>
      </contour>
      <contour>
        <pt x="418" y="109" on="1"/>
        <pt x="518" y="109" on="0"/>
        <pt x="650" y="224" on="0"/>
        <pt x="671" y="329" on="1"/>
        <pt x="682" y="381" on="1"/>
        <pt x="686" y="404" on="0"/>
        <pt x="686" y="438" on="1"/>
        <pt x="686" y="517" on="0"/>
        <pt x="607" y="599" on="0"/>
        <pt x="516" y="599" on="1"/>
        <pt x="507" y="599" on="1"/>
        <pt x="409" y="109" on="1"/>
      </contour>
    </TTGlyph>
    <TTGlyph name="Pi" xMin="36" yMin="0" xMax="672" yMax="698">
      <component glyphName="uni041F" x="0" y="0" flags="0x204"/>
    </TTGlyph>
    <TTGlyph name="Psi" xMin="104" yMin="0" xMax="795" yMax="698">
      <contour>
        <pt x="328" y="199" on="1"/>
        <pt x="270" y="199" on="0"/>
        <pt x="186" y="231" on="0"/>
        <pt x="131" y="285" on="0"/>
        <pt x="104" y="357" on="0"/>
        <pt x="104" y="398" on="1"/>
        <pt x="104" y="427" on="0"/>
        <pt x="111" y="487" on="0"/>
        <pt x="119" y="523" on="1"/>
        <pt x="154" y="698" on="1"/>
        <pt x="247" y="698" on="1"/>
        <pt x="209" y="508" on="1"/>
        <pt x="201" y="470" on="0"/>
        <pt x="195" y="421" on="0"/>
        <pt x="195" y="404" on="1"/>
        <pt x="195" y="340" on="0"/>
        <pt x="266" y="276" on="0"/>
        <pt x="344" y="276" on="1"/>
        <pt x="428" y="698" on="1"/>
        <pt x="521" y="698" on="1"/>
        <pt x="437" y="276" on="1"/>
        <pt x="485" y="276" on="0"/>
        <pt x="557" y="299" on="0"/>
        <pt x="611" y="351" on="0"/>
        <pt x="649" y="436" on="0"/>
        <pt x="662" y="499" on="1"/>
        <pt x="702" y="698" on="1"/>
        <pt x="795" y="698" on="1"/>
        <pt x="752" y="483" on="1"/>
        <pt x="723" y="336" on="0"/>
        <pt x="561" y="199" on="0"/>
        <pt x="421" y="199" on="1"/>
        <pt x="382" y="0" on="1"/>
        <pt x="289" y="0" on="1"/>
      </contour>
    </TTGlyph>
    <TTGlyph name="Q" xMin="55" yMin="-169" xMax="655" yMax="710">
      <contour>
        <pt x="406" y="-169" on="1"/>
        <pt x="313" y="-169" on="1"/>
        <pt x="268" y="-169" on="0"/>
        <pt x="231" y="-132" on="0"/>
        <pt x="231" y="-102" on="1"/>
        <pt x="231" y="-94" on="0"/>
        <pt x="233" y="-79" on="0"/>
        <pt x="235" y="-71" on="1"/>
        <pt x="248" y="-7" on="1"/>
        <pt x="206" y="1" on="0"/>
        <pt x="135" y="43" on="0"/>
        <pt x="84" y="110" on="0"/>
        <pt x="55" y="203" on="0"/>
        <pt x="55" y="262" on="1"/>
        <pt x="55" y="349" on="0"/>
        <pt x="105" y="511" on="0"/>
        <pt x="197" y="636" on="0"/>
        <pt x="328" y="710" on="0"/>
        <pt x="410" y="710" on="1"/>
        <pt x="462" y="710" on="0"/>
        <pt x="551" y="675" on="0"/>
        <pt x="617" y="606" on="0"/>
        <pt x="655" y="503" on="0"/>
        <pt x="655" y="436" on="1"/>
        <pt x="655" y="353" on="0"/>
        <pt x="611" y="200" on="0"/>
        <pt x="528" y="78" on="0"/>
        <pt x="409" y="-2" on="0"/>
        <pt x="335" y="-10" on="1"/>
        <pt x="320" y="-87" on="1"/>
        <pt x="422" y="-87" on="1"/>
      </contour>
      <contour>
        <pt x="308" y="72" on="1"/>
        <pt x="395" y="72" on="0"/>
        <pt x="514" y="188" on="0"/>
        <pt x="535" y="294" on="1"/>
        <pt x="555" y="394" on="1"/>
        <pt x="562" y="429" on="0"/>
        <pt x="562" y="460" on="1"/>
        <pt x="562" y="537" on="0"/>
        <pt x="479" y="626" on="0"/>
        <pt x="402" y="626" on="1"/>
        <pt x="315" y="626" on="0"/>
        <pt x="196" y="510" on="0"/>
        <pt x="175" y="404" on="1"/>
        <pt x="155" y="304" on="1"/>
        <pt x="148" y="269" on="0"/>
        <pt x="148" y="238" on="1"/>
        <pt x="148" y="161" on="0"/>
        <pt x="231" y="72" on="0"/>
      </contour>
    </TTGlyph>
    <TTGlyph name="R" xMin="36" yMin="0" xMax="610" yMax="698">
      <contour>
        <pt x="130" y="0" on="1"/>
        <pt x="36" y="0" on="1"/>
        <pt x="176" y="698" on="1"/>
        <pt x="430" y="698" on="1"/>
        <pt x="477" y="698" on="0"/>
        <pt x="545" y="673" on="0"/>
        <pt x="589" y="628" on="0"/>
        <pt x="610" y="566" on="0"/>
        <pt x="610" y="529" on="1"/>
        <pt x="610" y="489" on="0"/>
        <pt x="585" y="415" on="0"/>
        <pt x="538" y="354" on="0"/>
        <pt x="471" y="310" on="0"/>
        <pt x="429" y="301" on="1"/>
        <pt x="528" y="0" on="1"/>
        <pt x="428" y="0" on="1"/>
        <pt x="338" y="291" on="1"/>
        <pt x="188" y="291" on="1"/>
      </contour>
      <contour>
        <pt x="382" y="374" on="1"/>
        <pt x="430" y="374" on="0"/>
        <pt x="493" y="423" on="0"/>
        <pt x="502" y="468" on="1"/>
        <pt x="508" y="498" on="0"/>
        <pt x="513" y="528" on="0"/>
        <pt x="513" y="539" on="1"/>
        <pt x="513" y="573" on="0"/>
        <pt x="473" y="615" on="0"/>
        <pt x="424" y="615" on="1"/>
        <pt x="253" y="615" on="1"/>
        <pt x="205" y="374" on="1"/>
      </contour>
    </TTGlyph>
    <TTGlyph name="Racute" xMin="36" yMin="0" xMax="610" yMax="955">
      <component glyphName="R" x="0" y="0" flags="0x204"/>
      <component glyphName="acute.case" x="99" y="0" flags="0x4"/>
    </TTGlyph>
    <TTGlyph name="Rcaron" xMin="36" yMin="0" xMax="610" yMax="949">
      <component glyphName="R" x="0" y="0" flags="0x204"/>
      <component glyphName="caron.case" x="98" y="0" flags="0x4"/>
    </TTGlyph>
    <TTGlyph name="Rcommaaccent" xMin="36" yMin="-251" xMax="610" yMax="698">
      <component glyphName="R" x="0" y="0" flags="0x204"/>
      <component glyphName="uni0326" x="274" y="0" flags="0x4"/>
    </TTGlyph>
    <TTGlyph name="Rho" xMin="36" yMin="0" xMax="610" yMax="698">
      <component glyphName="P" x="0" y="0" flags="0x204"/>
    </TTGlyph>
    <TTGlyph name="S" xMin="8" yMin="-12" xMax="577" yMax="710">
      <contour>
        <pt x="250" y="-12" on="1"/>
        <pt x="171" y="-12" on="0"/>
        <pt x="42" y="47" on="0"/>
        <pt x="8" y="113" on="1"/>
        <pt x="79" y="166" on="1"/>
        <pt x="109" y="115" on="0"/>
        <pt x="195" y="71" on="0"/>
        <pt x="252" y="71" on="1"/>
        <pt x="294" y="71" on="0"/>
        <pt x="357" y="93" on="0"/>
        <pt x="401" y="130" on="0"/>
        <pt x="423" y="181" on="0"/>
        <pt x="423" y="211" on="1"/>
        <pt x="423" y="295" on="0"/>
        <pt x="322" y="314" on="1"/>
        <pt x="259" y="326" on="1"/>
        <pt x="184" y="341" on="0"/>
        <pt x="103" y="429" on="0"/>
        <pt x="103" y="500" on="1"/>
        <pt x="103" y="543" on="0"/>
        <pt x="136" y="620" on="0"/>
        <pt x="200" y="677" on="0"/>
        <pt x="291" y="710" on="0"/>
        <pt x="350" y="710" on="1"/>
        <pt x="430" y="710" on="0"/>
        <pt x="542" y="652" on="0"/>
        <pt x="577" y="604" on="1"/>
        <pt x="509" y="546" on="1"/>
        <pt x="481" y="585" on="0"/>
        <pt x="403" y="628" on="0"/>
        <pt x="344" y="628" on="1"/>
        <pt x="277" y="628" on="0"/>
        <pt x="197" y="565" on="0"/>
        <pt x="197" y="508" on="1"/>
        <pt x="197" y="426" on="0"/>
        <pt x="297" y="407" on="1"/>
        <pt x="359" y="394" on="1"/>
        <pt x="434" y="379" on="0"/>
        <pt x="517" y="291" on="0"/>
        <pt x="517" y="218" on="1"/>
        <pt x="517" y="171" on="0"/>
        <pt x="482" y="88" on="0"/>
        <pt x="414" y="25" on="0"/>
        <pt x="314" y="-12" on="0"/>
      </contour>
    </TTGlyph>
    <TTGlyph name="Sacute" xMin="8" yMin="-12" xMax="577" yMax="955">
      <component glyphName="S" x="0" y="0" flags="0x204"/>
      <component glyphName="acute.case" x="61" y="0" flags="0x4"/>
    </TTGlyph>
    <TTGlyph name="Scaron" xMin="8" yMin="-12" xMax="577" yMax="949">
      <component glyphName="S" x="0" y="0" flags="0x204"/>
      <component glyphName="caron.case" x="60" y="0" flags="0x4"/>
    </TTGlyph>
    <TTGlyph name="Scedilla" xMin="8" yMin="-208" xMax="577" yMax="710">
      <contour>
        <pt x="344" y="628" on="1"/>
        <pt x="277" y="628" on="0"/>
        <pt x="197" y="565" on="0"/>
        <pt x="197" y="508" on="1"/>
        <pt x="197" y="426" on="0"/>
        <pt x="297" y="407" on="1"/>
        <pt x="359" y="394" on="1"/>
        <pt x="434" y="379" on="0"/>
        <pt x="517" y="291" on="0"/>
        <pt x="517" y="218" on="1"/>
        <pt x="517" y="173" on="0"/>
        <pt x="483" y="91" on="0"/>
        <pt x="419" y="29" on="0"/>
        <pt x="325" y="-10" on="0"/>
        <pt x="264" y="-12" on="1"/>
        <pt x="248" y="-61" on="1"/>
        <pt x="250" y="-63" on="1"/>
        <pt x="257" y="-61" on="0"/>
        <pt x="272" y="-58" on="0"/>
        <pt x="283" y="-58" on="1"/>
        <pt x="309" y="-58" on="0"/>
        <pt x="343" y="-84" on="0"/>
        <pt x="343" y="-114" on="1"/>
        <pt x="343" y="-158" on="0"/>
        <pt x="279" y="-208" on="0"/>
        <pt x="228" y="-208" on="1"/>
        <pt x="190" y="-208" on="0"/>
        <pt x="136" y="-185" on="0"/>
        <pt x="125" y="-169" on="1"/>
        <pt x="167" y="-126" on="1"/>
        <pt x="174" y="-136" on="0"/>
        <pt x="204" y="-152" on="0"/>
        <pt x="226" y="-152" on="1"/>
        <pt x="248" y="-152" on="0"/>
        <pt x="273" y="-133" on="0"/>
        <pt x="273" y="-117" on="1"/>
        <pt x="273" y="-101" on="0"/>
        <pt x="248" y="-82" on="0"/>
        <pt x="216" y="-78" on="1"/>
        <pt x="191" y="-75" on="1"/>
        <pt x="212" y="-10" on="1"/>
        <pt x="144" y="-4" on="0"/>
        <pt x="37" y="54" on="0"/>
        <pt x="8" y="113" on="1"/>
        <pt x="79" y="166" on="1"/>
        <pt x="109" y="115" on="0"/>
        <pt x="195" y="71" on="0"/>
        <pt x="252" y="71" on="1"/>
        <pt x="294" y="71" on="0"/>
        <pt x="357" y="93" on="0"/>
        <pt x="401" y="130" on="0"/>
        <pt x="423" y="181" on="0"/>
        <pt x="423" y="211" on="1"/>
        <pt x="423" y="295" on="0"/>
        <pt x="322" y="314" on="1"/>
        <pt x="259" y="326" on="1"/>
        <pt x="184" y="341" on="0"/>
        <pt x="103" y="429" on="0"/>
        <pt x="103" y="500" on="1"/>
        <pt x="103" y="543" on="0"/>
        <pt x="136" y="620" on="0"/>
        <pt x="200" y="677" on="0"/>
        <pt x="291" y="710" on="0"/>
        <pt x="350" y="710" on="1"/>
        <pt x="430" y="710" on="0"/>
        <pt x="542" y="652" on="0"/>
        <pt x="577" y="604" on="1"/>
        <pt x="509" y="546" on="1"/>
        <pt x="481" y="585" on="0"/>
        <pt x="403" y="628" on="0"/>
      </contour>
    </TTGlyph>
    <TTGlyph name="Scircumflex" xMin="8" yMin="-12" xMax="577" yMax="939">
      <component glyphName="S" x="0" y="0" flags="0x204"/>
      <component glyphName="circumflex.case" x="61" y="0" flags="0x4"/>
    </TTGlyph>
    <TTGlyph name="Scommaaccent" xMin="8" yMin="-251" xMax="577" yMax="710">
      <component glyphName="S" x="0" y="0" flags="0x204"/>
      <component glyphName="uni0326" x="241" y="0" flags="0x4"/>
    </TTGlyph>
    <TTGlyph name="Sigma" xMin="-9" yMin="0" xMax="583" yMax="698">
      <contour>
        <pt x="-9" y="0" on="1"/>
        <pt x="9" y="88" on="1"/>
        <pt x="292" y="354" on="1"/>
        <pt x="120" y="610" on="1"/>
        <pt x="138" y="698" on="1"/>
        <pt x="583" y="698" on="1"/>
        <pt x="566" y="615" on="1"/>
        <pt x="224" y="615" on="1"/>
        <pt x="403" y="348" on="1"/>
        <pt x="121" y="83" on="1"/>
        <pt x="473" y="83" on="1"/>
        <pt x="456" y="0" on="1"/>
      </contour>
    </TTGlyph>
    <TTGlyph name="T" xMin="96" yMin="0" xMax="621" yMax="698">
      <contour>
        <pt x="397" y="615" on="1"/>
        <pt x="274" y="0" on="1"/>
        <pt x="180" y="0" on="1"/>
        <pt x="303" y="615" on="1"/>
        <pt x="96" y="615" on="1"/>
        <pt x="113" y="698" on="1"/>
        <pt x="621" y="698" on="1"/>
        <pt x="604" y="615" on="1"/>
      </contour>
    </TTGlyph>
    <TTGlyph name="Tau" xMin="96" yMin="0" xMax="621" yMax="698">
      <component glyphName="T" x="0" y="0" flags="0x204"/>
    </TTGlyph>
    <TTGlyph name="Tbar" xMin="90" yMin="0" xMax="621" yMax="698">
      <contour>
        <pt x="339" y="324" on="1"/>
        <pt x="274" y="0" on="1"/>
        <pt x="180" y="0" on="1"/>
        <pt x="245" y="324" on="1"/>
        <pt x="90" y="324" on="1"/>
        <pt x="105" y="398" on="1"/>
        <pt x="260" y="398" on="1"/>
        <pt x="303" y="615" on="1"/>
        <pt x="96" y="615" on="1"/>
        <pt x="113" y="698" on="1"/>
        <pt x="621" y="698" on="1"/>
        <pt x="604" y="615" on="1"/>
        <pt x="397" y="615" on="1"/>
        <pt x="354" y="398" on="1"/>
        <pt x="509" y="398" on="1"/>
        <pt x="494" y="324" on="1"/>
      </contour>
    </TTGlyph>
    <TTGlyph name="Tcaron" xMin="96" yMin="0" xMax="621" yMax="949">
      <component glyphName="T" x="0" y="0" flags="0x204"/>
      <component glyphName="caron.case" x="75" y="0" flags="0x4"/>
    </TTGlyph>
    <TTGlyph name="Theta" xMin="55" yMin="-12" xMax="657" yMax="710">
      <contour>
        <pt x="301" y="-12" on="1"/>
        <pt x="249" y="-12" on="0"/>
        <pt x="159" y="23" on="0"/>
        <pt x="93" y="92" on="0"/>
        <pt x="55" y="194" on="0"/>
        <pt x="55" y="262" on="1"/>
        <pt x="55" y="349" on="0"/>
        <pt x="105" y="511" on="0"/>
        <pt x="197" y="636" on="0"/>
        <pt x="329" y="710" on="0"/>
        <pt x="411" y="710" on="1"/>
        <pt x="463" y="710" on="0"/>
        <pt x="553" y="675" on="0"/>
        <pt x="619" y="606" on="0"/>
        <pt x="657" y="503" on="0"/>
        <pt x="657" y="436" on="1"/>
        <pt x="657" y="349" on="0"/>
        <pt x="608" y="187" on="0"/>
        <pt x="515" y="62" on="0"/>
        <pt x="383" y="-12" on="0"/>
      </contour>
      <contour>
        <pt x="309" y="72" on="1"/>
        <pt x="398" y="72" on="0"/>
        <pt x="517" y="189" on="0"/>
        <pt x="537" y="294" on="1"/>
        <pt x="557" y="395" on="1"/>
        <pt x="564" y="429" on="0"/>
        <pt x="564" y="460" on="1"/>
        <pt x="564" y="537" on="0"/>
        <pt x="481" y="626" on="0"/>
        <pt x="403" y="626" on="1"/>
        <pt x="314" y="626" on="0"/>
        <pt x="196" y="509" on="0"/>
        <pt x="175" y="404" on="1"/>
        <pt x="155" y="303" on="1"/>
        <pt x="148" y="269" on="0"/>
        <pt x="148" y="238" on="1"/>
        <pt x="148" y="161" on="0"/>
        <pt x="232" y="72" on="0"/>
      </contour>
      <contour>
        <pt x="214" y="312" on="1"/>
        <pt x="231" y="395" on="1"/>
        <pt x="500" y="395" on="1"/>
        <pt x="483" y="312" on="1"/>
      </contour>
    </TTGlyph>
    <TTGlyph name="Thorn" xMin="35" yMin="0" xMax="582" yMax="698">
      <contour>
        <pt x="35" y="0" on="1"/>
        <pt x="175" y="698" on="1"/>
        <pt x="269" y="698" on="1"/>
        <pt x="241" y="559" on="1"/>
        <pt x="400" y="559" on="1"/>
        <pt x="494" y="559" on="0"/>
        <pt x="582" y="464" on="0"/>
        <pt x="582" y="388" on="1"/>
        <pt x="582" y="338" on="0"/>
        <pt x="548" y="251" on="0"/>
        <pt x="485" y="187" on="0"/>
        <pt x="396" y="151" on="0"/>
        <pt x="341" y="151" on="1"/>
        <pt x="159" y="151" on="1"/>
        <pt x="129" y="0" on="1"/>
      </contour>
      <contour>
        <pt x="176" y="234" on="1"/>
        <pt x="354" y="234" on="1"/>
        <pt x="401" y="234" on="0"/>
        <pt x="464" y="282" on="0"/>
        <pt x="474" y="329" on="1"/>
        <pt x="481" y="361" on="0"/>
        <pt x="486" y="390" on="0"/>
        <pt x="486" y="401" on="1"/>
        <pt x="486" y="434" on="0"/>
        <pt x="446" y="476" on="0"/>
        <pt x="396" y="476" on="1"/>
        <pt x="224" y="476" on="1"/>
      </contour>
    </TTGlyph>
    <TTGlyph name="U" xMin="80" yMin="-12" xMax="663" yMax="698">
      <contour>
        <pt x="264" y="698" on="1"/>
        <pt x="179" y="273" on="1"/>
        <pt x="174" y="250" on="0"/>
        <pt x="171" y="219" on="0"/>
        <pt x="171" y="202" on="1"/>
        <pt x="171" y="140" on="0"/>
        <pt x="236" y="72" on="0"/>
        <pt x="294" y="72" on="1"/>
        <pt x="334" y="72" on="0"/>
        <pt x="396" y="95" on="0"/>
        <pt x="442" y="145" on="0"/>
        <pt x="476" y="225" on="0"/>
        <pt x="487" y="282" on="1"/>
        <pt x="570" y="698" on="1"/>
        <pt x="663" y="698" on="1"/>
        <pt x="579" y="277" on="1"/>
        <pt x="563" y="198" on="0"/>
        <pt x="515" y="89" on="0"/>
        <pt x="444" y="19" on="0"/>
        <pt x="348" y="-12" on="0"/>
        <pt x="285" y="-12" on="1"/>
        <pt x="188" y="-12" on="0"/>
        <pt x="80" y="95" on="0"/>
        <pt x="80" y="194" on="1"/>
        <pt x="80" y="217" on="0"/>
        <pt x="85" y="267" on="0"/>
        <pt x="91" y="297" on="1"/>
        <pt x="171" y="698" on="1"/>
      </contour>
    </TTGlyph>
    <TTGlyph name="Uacute" xMin="80" yMin="-12" xMax="663" yMax="955">
      <component glyphName="U" x="0" y="0" flags="0x204"/>
      <component glyphName="acute.case" x="121" y="0" flags="0x4"/>
    </TTGlyph>
    <TTGlyph name="Ubreve" xMin="80" yMin="-12" xMax="663" yMax="921">
      <component glyphName="U" x="0" y="0" flags="0x204"/>
      <component glyphName="breve.case" x="120" y="0" flags="0x4"/>
    </TTGlyph>
    <TTGlyph name="Ucircumflex" xMin="80" yMin="-12" xMax="663" yMax="939">
      <component glyphName="U" x="0" y="0" flags="0x204"/>
      <component glyphName="circumflex.case" x="121" y="0" flags="0x4"/>
    </TTGlyph>
    <TTGlyph name="Udieresis" xMin="80" yMin="-12" xMax="663" yMax="897">
      <component glyphName="U" x="0" y="0" flags="0x204"/>
      <component glyphName="dieresis.case" x="121" y="0" flags="0x4"/>
    </TTGlyph>
    <TTGlyph name="Ugrave" xMin="80" yMin="-12" xMax="663" yMax="954">
      <component glyphName="U" x="0" y="0" flags="0x204"/>
      <component glyphName="grave.case" x="121" y="0" flags="0x4"/>
    </TTGlyph>
    <TTGlyph name="Uhorn" xMin="80" yMin="-12" xMax="760" yMax="811">
      <contour>
        <pt x="264" y="698" on="1"/>
        <pt x="179" y="273" on="1"/>
        <pt x="174" y="252" on="0"/>
        <pt x="171" y="219" on="0"/>
        <pt x="171" y="202" on="1"/>
        <pt x="171" y="140" on="0"/>
        <pt x="236" y="72" on="0"/>
        <pt x="294" y="72" on="1"/>
        <pt x="334" y="72" on="0"/>
        <pt x="396" y="95" on="0"/>
        <pt x="442" y="145" on="0"/>
        <pt x="476" y="225" on="0"/>
        <pt x="487" y="282" on="1"/>
        <pt x="570" y="698" on="1"/>
        <pt x="660" y="698" on="1"/>
        <pt x="682" y="811" on="1"/>
        <pt x="760" y="811" on="1"/>
        <pt x="740" y="708" on="1"/>
        <pt x="734" y="679" on="0"/>
        <pt x="703" y="640" on="0"/>
        <pt x="668" y="640" on="1"/>
        <pt x="652" y="640" on="1"/>
        <pt x="579" y="277" on="1"/>
        <pt x="563" y="198" on="0"/>
        <pt x="515" y="88" on="0"/>
        <pt x="444" y="19" on="0"/>
        <pt x="348" y="-12" on="0"/>
        <pt x="285" y="-12" on="1"/>
        <pt x="188" y="-12" on="0"/>
        <pt x="80" y="95" on="0"/>
        <pt x="80" y="194" on="1"/>
        <pt x="80" y="217" on="0"/>
        <pt x="85" y="267" on="0"/>
        <pt x="91" y="296" on="1"/>
        <pt x="171" y="698" on="1"/>
      </contour>
    </TTGlyph>
    <TTGlyph name="Uhungarumlaut" xMin="80" yMin="-12" xMax="663" yMax="953">
      <component glyphName="U" x="0" y="0" flags="0x204"/>
      <component glyphName="hungarumlaut.case" x="121" y="0" flags="0x4"/>
    </TTGlyph>
    <TTGlyph name="Umacron" xMin="80" yMin="-12" xMax="663" yMax="877">
      <component glyphName="U" x="0" y="0" flags="0x204"/>
      <component glyphName="macron.case" x="121" y="0" flags="0x4"/>
    </TTGlyph>
    <TTGlyph name="Uogonek" xMin="80" yMin="-208" xMax="663" yMax="698">
      <contour>
        <pt x="264" y="698" on="1"/>
        <pt x="179" y="273" on="1"/>
        <pt x="174" y="252" on="0"/>
        <pt x="171" y="219" on="0"/>
        <pt x="171" y="202" on="1"/>
        <pt x="171" y="140" on="0"/>
        <pt x="236" y="72" on="0"/>
        <pt x="294" y="72" on="1"/>
        <pt x="334" y="72" on="0"/>
        <pt x="396" y="95" on="0"/>
        <pt x="442" y="145" on="0"/>
        <pt x="476" y="225" on="0"/>
        <pt x="487" y="282" on="1"/>
        <pt x="570" y="698" on="1"/>
        <pt x="663" y="698" on="1"/>
        <pt x="579" y="277" on="1"/>
        <pt x="562" y="194" on="0"/>
        <pt x="517" y="96" on="0"/>
        <pt x="463" y="39" on="0"/>
        <pt x="400" y="7" on="0"/>
        <pt x="367" y="-11" on="1"/>
        <pt x="332" y="-29" on="0"/>
        <pt x="289" y="-62" on="0"/>
        <pt x="265" y="-90" on="0"/>
        <pt x="257" y="-112" on="0"/>
        <pt x="257" y="-120" on="1"/>
        <pt x="257" y="-135" on="0"/>
        <pt x="276" y="-151" on="0"/>
        <pt x="291" y="-151" on="1"/>
        <pt x="319" y="-151" on="0"/>
        <pt x="345" y="-124" on="1"/>
        <pt x="384" y="-168" on="1"/>
        <pt x="370" y="-185" on="0"/>
        <pt x="320" y="-208" on="0"/>
        <pt x="283" y="-208" on="1"/>
        <pt x="263" y="-208" on="0"/>
        <pt x="227" y="-199" on="0"/>
        <pt x="199" y="-180" on="0"/>
        <pt x="182" y="-151" on="0"/>
        <pt x="182" y="-131" on="1"/>
        <pt x="182" y="-94" on="0"/>
        <pt x="239" y="-36" on="0"/>
        <pt x="293" y="-16" on="1"/>
        <pt x="292" y="-12" on="1"/>
        <pt x="186" y="-11" on="0"/>
        <pt x="80" y="96" on="0"/>
        <pt x="80" y="194" on="1"/>
        <pt x="80" y="217" on="0"/>
        <pt x="85" y="267" on="0"/>
        <pt x="91" y="296" on="1"/>
        <pt x="171" y="698" on="1"/>
      </contour>
    </TTGlyph>
    <TTGlyph name="Upsilon" xMin="102" yMin="0" xMax="660" yMax="698">
      <component glyphName="Y" x="0" y="0" flags="0x204"/>
    </TTGlyph>
    <TTGlyph name="Upsilondieresis" xMin="102" yMin="0" xMax="660" yMax="897">
      <component glyphName="Y" x="0" y="0" flags="0x204"/>
      <component glyphName="dieresis.case" x="74" y="0" flags="0x4"/>
    </TTGlyph>
    <TTGlyph name="Upsilontonos" xMin="57" yMin="0" xMax="761" yMax="787">
      <component glyphName="Y" x="101" y="0" flags="0x4"/>
      <component glyphName="tonos.case" x="-232" y="0" flags="0x4"/>
    </TTGlyph>
    <TTGlyph name="Uring" xMin="80" yMin="-12" xMax="663" yMax="982">
      <component glyphName="U" x="0" y="0" flags="0x204"/>
      <component glyphName="ring.case" x="116" y="0" flags="0x4"/>
    </TTGlyph>
    <TTGlyph name="Utilde" xMin="80" yMin="-12" xMax="663" yMax="900">
      <component glyphName="U" x="0" y="0" flags="0x204"/>
      <component glyphName="tilde.case" x="121" y="0" flags="0x4"/>
    </TTGlyph>
    <TTGlyph name="V" xMin="109" yMin="0" xMax="669" yMax="698">
      <contour>
        <pt x="192" y="0" on="1"/>
        <pt x="109" y="698" on="1"/>
        <pt x="202" y="698" on="1"/>
        <pt x="238" y="363" on="1"/>
        <pt x="263" y="97" on="1"/>
        <pt x="267" y="97" on="1"/>
        <pt x="396" y="359" on="1"/>
        <pt x="570" y="698" on="1"/>
        <pt x="669" y="698" on="1"/>
        <pt x="304" y="0" on="1"/>
      </contour>
    </TTGlyph>
    <TTGlyph name="W" xMin="105" yMin="0" xMax="947" yMax="698">
      <contour>
        <pt x="132" y="0" on="1"/>
        <pt x="105" y="698" on="1"/>
        <pt x="198" y="698" on="1"/>
        <pt x="205" y="358" on="1"/>
        <pt x="208" y="109" on="1"/>
        <pt x="213" y="109" on="1"/>
        <pt x="342" y="413" on="1"/>
        <pt x="468" y="698" on="1"/>
        <pt x="576" y="698" on="1"/>
        <pt x="590" y="405" on="1"/>
        <pt x="600" y="108" on="1"/>
        <pt x="605" y="108" on="1"/>
        <pt x="707" y="356" on="1"/>
        <pt x="851" y="698" on="1"/>
        <pt x="947" y="698" on="1"/>
        <pt x="638" y="0" on="1"/>
        <pt x="531" y="0" on="1"/>
        <pt x="515" y="352" on="1"/>
        <pt x="507" y="593" on="1"/>
        <pt x="501" y="593" on="1"/>
        <pt x="396" y="352" on="1"/>
        <pt x="241" y="0" on="1"/>
      </contour>
    </TTGlyph>
    <TTGlyph name="Wacute" xMin="105" yMin="0" xMax="947" yMax="955">
      <component glyphName="W" x="0" y="0" flags="0x204"/>
      <component glyphName="acute.case" x="228" y="0" flags="0x4"/>
    </TTGlyph>
    <TTGlyph name="Wcircumflex" xMin="105" yMin="0" xMax="947" yMax="939">
      <component glyphName="W" x="0" y="0" flags="0x204"/>
      <component glyphName="circumflex.case" x="228" y="0" flags="0x4"/>
    </TTGlyph>
    <TTGlyph name="Wdieresis" xMin="105" yMin="0" xMax="947" yMax="897">
      <component glyphName="W" x="0" y="0" flags="0x204"/>
      <component glyphName="dieresis.case" x="228" y="0" flags="0x4"/>
    </TTGlyph>
    <TTGlyph name="Wgrave" xMin="105" yMin="0" xMax="947" yMax="954">
      <component glyphName="W" x="0" y="0" flags="0x204"/>
      <component glyphName="grave.case" x="228" y="0" flags="0x4"/>
    </TTGlyph>
    <TTGlyph name="X" xMin="-28" yMin="0" xMax="663" yMax="698">
      <contour>
        <pt x="519" y="0" on="1"/>
        <pt x="421" y="0" on="1"/>
        <pt x="305" y="278" on="1"/>
        <pt x="300" y="278" on="1"/>
        <pt x="80" y="0" on="1"/>
        <pt x="-28" y="0" on="1"/>
        <pt x="260" y="360" on="1"/>
        <pt x="116" y="698" on="1"/>
        <pt x="214" y="698" on="1"/>
        <pt x="329" y="422" on="1"/>
        <pt x="334" y="422" on="1"/>
        <pt x="555" y="698" on="1"/>
        <pt x="663" y="698" on="1"/>
        <pt x="371" y="344" on="1"/>
      </contour>
    </TTGlyph>
    <TTGlyph name="Xi" xMin="9" yMin="0" xMax="611" yMax="698">
      <contour>
        <pt x="150" y="698" on="1"/>
        <pt x="611" y="698" on="1"/>
        <pt x="594" y="615" on="1"/>
        <pt x="133" y="615" on="1"/>
      </contour>
      <contour>
        <pt x="144" y="395" on="1"/>
        <pt x="494" y="395" on="1"/>
        <pt x="478" y="312" on="1"/>
        <pt x="128" y="312" on="1"/>
      </contour>
      <contour>
        <pt x="26" y="83" on="1"/>
        <pt x="487" y="83" on="1"/>
        <pt x="470" y="0" on="1"/>
        <pt x="9" y="0" on="1"/>
      </contour>
    </TTGlyph>
    <TTGlyph name="Y" xMin="102" yMin="0" xMax="660" yMax="698">
      <contour>
        <pt x="194" y="0" on="1"/>
        <pt x="249" y="273" on="1"/>
        <pt x="102" y="698" on="1"/>
        <pt x="197" y="698" on="1"/>
        <pt x="310" y="366" on="1"/>
        <pt x="315" y="366" on="1"/>
        <pt x="555" y="698" on="1"/>
        <pt x="660" y="698" on="1"/>
        <pt x="342" y="270" on="1"/>
        <pt x="288" y="0" on="1"/>
      </contour>
    </TTGlyph>
    <TTGlyph name="Yacute" xMin="102" yMin="0" xMax="660" yMax="955">
      <component glyphName="Y" x="0" y="0" flags="0x204"/>
      <component glyphName="acute.case" x="75" y="0" flags="0x4"/>
    </TTGlyph>
    <TTGlyph name="Ycircumflex" xMin="102" yMin="0" xMax="660" yMax="939">
      <component glyphName="Y" x="0" y="0" flags="0x204"/>
      <component glyphName="circumflex.case" x="75" y="0" flags="0x4"/>
    </TTGlyph>
    <TTGlyph name="Ydieresis" xMin="102" yMin="0" xMax="660" yMax="897">
      <component glyphName="Y" x="0" y="0" flags="0x204"/>
      <component glyphName="dieresis.case" x="75" y="0" flags="0x4"/>
    </TTGlyph>
    <TTGlyph name="Ygrave" xMin="102" yMin="0" xMax="660" yMax="954">
      <component glyphName="Y" x="0" y="0" flags="0x204"/>
      <component glyphName="grave.case" x="75" y="0" flags="0x4"/>
    </TTGlyph>
    <TTGlyph name="Z" xMin="-14" yMin="0" xMax="607" yMax="698">
      <contour>
        <pt x="475" y="0" on="1"/>
        <pt x="-14" y="0" on="1"/>
        <pt x="4" y="88" on="1"/>
        <pt x="480" y="615" on="1"/>
        <pt x="120" y="615" on="1"/>
        <pt x="137" y="698" on="1"/>
        <pt x="607" y="698" on="1"/>
        <pt x="589" y="610" on="1"/>
        <pt x="114" y="83" on="1"/>
        <pt x="492" y="83" on="1"/>
      </contour>
    </TTGlyph>
    <TTGlyph name="Zacute" xMin="-14" yMin="0" xMax="607" yMax="955">
      <component glyphName="Z" x="0" y="0" flags="0x204"/>
      <component glyphName="acute.case" x="68" y="0" flags="0x4"/>
    </TTGlyph>
    <TTGlyph name="Zcaron" xMin="-14" yMin="0" xMax="607" yMax="949">
      <component glyphName="Z" x="0" y="0" flags="0x204"/>
      <component glyphName="caron.case" x="67" y="0" flags="0x4"/>
    </TTGlyph>
    <TTGlyph name="Zdotaccent" xMin="-14" yMin="0" xMax="607" yMax="897">
      <component glyphName="Z" x="0" y="0" flags="0x204"/>
      <component glyphName="dotaccent.case" x="68" y="0" flags="0x4"/>
    </TTGlyph>
    <TTGlyph name="Zeta" xMin="-14" yMin="0" xMax="607" yMax="698">
      <component glyphName="Z" x="0" y="0" flags="0x204"/>
    </TTGlyph>
    <TTGlyph name="a" xMin="47" yMin="-12" xMax="542" yMax="530">
      <contour>
        <pt x="435" y="0" on="1"/>
        <pt x="400" y="0" on="0"/>
        <pt x="364" y="36" on="0"/>
        <pt x="364" y="65" on="1"/>
        <pt x="364" y="75" on="0"/>
        <pt x="367" y="90" on="1"/>
        <pt x="372" y="114" on="1"/>
        <pt x="368" y="114" on="1"/>
        <pt x="336" y="49" on="0"/>
        <pt x="258" y="-12" on="0"/>
        <pt x="200" y="-12" on="1"/>
        <pt x="129" y="-12" on="0"/>
        <pt x="47" y="92" on="0"/>
        <pt x="47" y="182" on="1"/>
        <pt x="47" y="244" on="0"/>
        <pt x="79" y="369" on="0"/>
        <pt x="142" y="468" on="0"/>
        <pt x="235" y="530" on="0"/>
        <pt x="297" y="530" on="1"/>
        <pt x="345" y="530" on="0"/>
        <pt x="421" y="480" on="0"/>
        <pt x="431" y="432" on="1"/>
        <pt x="436" y="432" on="1"/>
        <pt x="453" y="518" on="1"/>
        <pt x="542" y="518" on="1"/>
        <pt x="453" y="76" on="1"/>
        <pt x="523" y="76" on="1"/>
        <pt x="508" y="0" on="1"/>
      </contour>
      <contour>
        <pt x="229" y="67" on="1"/>
        <pt x="264" y="67" on="0"/>
        <pt x="312" y="95" on="0"/>
        <pt x="334" y="117" on="1"/>
        <pt x="358" y="141" on="0"/>
        <pt x="389" y="198" on="0"/>
        <pt x="397" y="240" on="1"/>
        <pt x="419" y="350" on="1"/>
        <pt x="422" y="367" on="0"/>
        <pt x="412" y="403" on="0"/>
        <pt x="384" y="432" on="0"/>
        <pt x="341" y="451" on="0"/>
        <pt x="311" y="451" on="1"/>
        <pt x="249" y="451" on="0"/>
        <pt x="172" y="375" on="0"/>
        <pt x="158" y="303" on="1"/>
        <pt x="143" y="228" on="1"/>
        <pt x="140" y="213" on="0"/>
        <pt x="138" y="188" on="0"/>
        <pt x="138" y="176" on="1"/>
        <pt x="138" y="128" on="0"/>
        <pt x="182" y="67" on="0"/>
      </contour>
    </TTGlyph>
    <TTGlyph name="a.alt01" xMin="23" yMin="-12" xMax="477" yMax="530">
      <contour>
        <pt x="164" y="-12" on="1"/>
        <pt x="98" y="-12" on="0"/>
        <pt x="23" y="58" on="0"/>
        <pt x="23" y="115" on="1"/>
        <pt x="23" y="200" on="0"/>
        <pt x="140" y="296" on="0"/>
        <pt x="259" y="296" on="1"/>
        <pt x="362" y="296" on="1"/>
        <pt x="371" y="341" on="1"/>
        <pt x="374" y="356" on="0"/>
        <pt x="374" y="370" on="1"/>
        <pt x="374" y="410" on="0"/>
        <pt x="323" y="454" on="0"/>
        <pt x="275" y="454" on="1"/>
        <pt x="227" y="454" on="0"/>
        <pt x="167" y="415" on="0"/>
        <pt x="141" y="380" on="1"/>
        <pt x="86" y="432" on="1"/>
        <pt x="115" y="474" on="0"/>
        <pt x="218" y="530" on="0"/>
        <pt x="287" y="530" on="1"/>
        <pt x="332" y="530" on="0"/>
        <pt x="398" y="506" on="0"/>
        <pt x="442" y="466" on="0"/>
        <pt x="464" y="412" on="0"/>
        <pt x="464" y="381" on="1"/>
        <pt x="464" y="371" on="0"/>
        <pt x="462" y="350" on="0"/>
        <pt x="460" y="338" on="1"/>
        <pt x="407" y="76" on="1"/>
        <pt x="477" y="76" on="1"/>
        <pt x="462" y="0" on="1"/>
        <pt x="397" y="0" on="1"/>
        <pt x="362" y="0" on="0"/>
        <pt x="326" y="36" on="0"/>
        <pt x="326" y="65" on="1"/>
        <pt x="326" y="70" on="0"/>
        <pt x="326" y="80" on="0"/>
        <pt x="327" y="86" on="1"/>
        <pt x="322" y="86" on="1"/>
        <pt x="296" y="36" on="0"/>
        <pt x="216" y="-12" on="0"/>
      </contour>
      <contour>
        <pt x="192" y="62" on="1"/>
        <pt x="218" y="62" on="0"/>
        <pt x="266" y="75" on="0"/>
        <pt x="303" y="99" on="0"/>
        <pt x="329" y="132" on="0"/>
        <pt x="333" y="152" on="1"/>
        <pt x="349" y="234" on="1"/>
        <pt x="252" y="234" on="1"/>
        <pt x="135" y="234" on="0"/>
        <pt x="120" y="159" on="1"/>
        <pt x="116" y="140" on="0"/>
        <pt x="114" y="127" on="0"/>
        <pt x="114" y="122" on="1"/>
        <pt x="114" y="93" on="0"/>
        <pt x="156" y="62" on="0"/>
      </contour>
    </TTGlyph>
    <TTGlyph name="aacute" xMin="47" yMin="-12" xMax="542" yMax="787">
      <component glyphName="a" x="0" y="0" flags="0x204"/>
      <component glyphName="acute" x="40" y="0" flags="0x4"/>
    </TTGlyph>
    <TTGlyph name="aacute.alt01" xMin="23" yMin="-12" xMax="477" yMax="787">
      <component glyphName="a.alt01" x="0" y="0" flags="0x204"/>
      <component glyphName="acute" x="-2" y="0" flags="0x4"/>
    </TTGlyph>
    <TTGlyph name="abreve" xMin="47" yMin="-12" xMax="542" yMax="758">
      <component glyphName="a" x="0" y="0" flags="0x204"/>
      <component glyphName="breve" x="41" y="0" flags="0x4"/>
    </TTGlyph>
    <TTGlyph name="abreve.alt01" xMin="23" yMin="-12" xMax="481" yMax="758">
      <component glyphName="a.alt01" x="0" y="0" flags="0x204"/>
      <component glyphName="breve" x="-1" y="0" flags="0x4"/>
    </TTGlyph>
    <TTGlyph name="acircumflex" xMin="47" yMin="-12" xMax="542" yMax="771">
      <component glyphName="a" x="0" y="0" flags="0x204"/>
      <component glyphName="circumflex" x="40" y="0" flags="0x4"/>
    </TTGlyph>
    <TTGlyph name="acircumflex.alt01" xMin="23" yMin="-12" xMax="477" yMax="771">
      <component glyphName="a.alt01" x="0" y="0" flags="0x204"/>
      <component glyphName="circumflex" x="-2" y="0" flags="0x4"/>
    </TTGlyph>
    <TTGlyph name="acute" xMin="263" yMin="584" xMax="447" yMax="787">
      <contour>
        <pt x="318" y="584" on="1"/>
        <pt x="263" y="613" on="1"/>
        <pt x="370" y="787" on="1"/>
        <pt x="447" y="746" on="1"/>
      </contour>
    </TTGlyph>
    <TTGlyph name="acute.case" xMin="261" yMin="752" xMax="443" yMax="955">
      <contour>
        <pt x="316" y="752" on="1"/>
        <pt x="261" y="781" on="1"/>
        <pt x="367" y="955" on="1"/>
        <pt x="443" y="914" on="1"/>
      </contour>
    </TTGlyph>
    <TTGlyph name="adieresis" xMin="47" yMin="-12" xMax="542" yMax="727">
      <component glyphName="a" x="0" y="0" flags="0x204"/>
      <component glyphName="dieresis" x="40" y="0" flags="0x4"/>
    </TTGlyph>
    <TTGlyph name="adieresis.alt01" xMin="23" yMin="-12" xMax="477" yMax="727">
      <component glyphName="a.alt01" x="0" y="0" flags="0x204"/>
      <component glyphName="dieresis" x="-2" y="0" flags="0x4"/>
    </TTGlyph>
    <TTGlyph name="ae" xMin="23" yMin="-12" xMax="787" yMax="530">
      <contour>
        <pt x="194" y="62" on="1"/>
        <pt x="219" y="62" on="0"/>
        <pt x="265" y="75" on="0"/>
        <pt x="303" y="99" on="0"/>
        <pt x="329" y="132" on="0"/>
        <pt x="333" y="152" on="1"/>
        <pt x="348" y="227" on="1"/>
        <pt x="253" y="223" on="1"/>
        <pt x="200" y="221" on="0"/>
        <pt x="128" y="196" on="0"/>
        <pt x="120" y="159" on="1"/>
        <pt x="116" y="142" on="0"/>
        <pt x="114" y="127" on="0"/>
        <pt x="114" y="122" on="1"/>
        <pt x="114" y="93" on="0"/>
        <pt x="156" y="62" on="0"/>
      </contour>
      <contour>
        <pt x="613" y="456" on="1"/>
        <pt x="550" y="456" on="0"/>
        <pt x="463" y="379" on="0"/>
        <pt x="452" y="312" on="1"/>
        <pt x="448" y="289" on="1"/>
        <pt x="525" y="292" on="0"/>
        <pt x="622" y="306" on="0"/>
        <pt x="677" y="329" on="0"/>
        <pt x="697" y="362" on="0"/>
        <pt x="697" y="383" on="1"/>
        <pt x="697" y="405" on="0"/>
        <pt x="682" y="434" on="0"/>
        <pt x="658" y="450" on="0"/>
        <pt x="628" y="456" on="0"/>
      </contour>
      <contour>
        <pt x="171" y="-12" on="1"/>
        <pt x="100" y="-12" on="0"/>
        <pt x="23" y="58" on="0"/>
        <pt x="23" y="123" on="1"/>
        <pt x="23" y="198" on="0"/>
        <pt x="137" y="279" on="0"/>
        <pt x="257" y="284" on="1"/>
        <pt x="361" y="288" on="1"/>
        <pt x="371" y="341" on="1"/>
        <pt x="374" y="357" on="0"/>
        <pt x="374" y="369" on="1"/>
        <pt x="374" y="410" on="0"/>
        <pt x="323" y="454" on="0"/>
        <pt x="273" y="454" on="1"/>
        <pt x="227" y="454" on="0"/>
        <pt x="167" y="415" on="0"/>
        <pt x="141" y="380" on="1"/>
        <pt x="86" y="432" on="1"/>
        <pt x="115" y="474" on="0"/>
        <pt x="218" y="530" on="0"/>
        <pt x="284" y="530" on="1"/>
        <pt x="346" y="530" on="0"/>
        <pt x="418" y="480" on="0"/>
        <pt x="433" y="438" on="1"/>
        <pt x="440" y="438" on="1"/>
        <pt x="472" y="482" on="0"/>
        <pt x="562" y="530" on="0"/>
        <pt x="618" y="530" on="1"/>
        <pt x="649" y="530" on="0"/>
        <pt x="709" y="514" on="0"/>
        <pt x="757" y="480" on="0"/>
        <pt x="787" y="427" on="0"/>
        <pt x="787" y="390" on="1"/>
        <pt x="787" y="304" on="0"/>
        <pt x="614" y="228" on="0"/>
        <pt x="438" y="226" on="1"/>
        <pt x="436" y="211" on="0"/>
        <pt x="433" y="188" on="0"/>
        <pt x="433" y="176" on="1"/>
        <pt x="433" y="128" on="0"/>
        <pt x="491" y="65" on="0"/>
        <pt x="551" y="65" on="1"/>
        <pt x="597" y="65" on="0"/>
        <pt x="671" y="108" on="0"/>
        <pt x="703" y="146" on="1"/>
        <pt x="760" y="96" on="1"/>
        <pt x="711" y="36" on="0"/>
        <pt x="602" y="-12" on="0"/>
        <pt x="544" y="-12" on="1"/>
        <pt x="475" y="-12" on="0"/>
        <pt x="386" y="43" on="0"/>
        <pt x="364" y="94" on="1"/>
        <pt x="357" y="94" on="1"/>
        <pt x="329" y="40" on="0"/>
        <pt x="231" y="-12" on="0"/>
      </contour>
    </TTGlyph>
    <TTGlyph name="aeacute" xMin="23" yMin="-12" xMax="787" yMax="787">
      <component glyphName="ae" x="0" y="0" flags="0x204"/>
      <component glyphName="acute" x="163" y="0" flags="0x4"/>
    </TTGlyph>
    <TTGlyph name="agrave" xMin="47" yMin="-12" xMax="542" yMax="786">
      <component glyphName="a" x="0" y="0" flags="0x204"/>
      <component glyphName="grave" x="40" y="0" flags="0x4"/>
    </TTGlyph>
    <TTGlyph name="agrave.alt01" xMin="23" yMin="-12" xMax="477" yMax="786">
      <component glyphName="a.alt01" x="0" y="0" flags="0x204"/>
      <component glyphName="grave" x="-2" y="0" flags="0x4"/>
    </TTGlyph>
    <TTGlyph name="alpha" xMin="47" yMin="-12" xMax="646" yMax="530">
      <contour>
        <pt x="557" y="0" on="1"/>
        <pt x="502" y="0" on="1"/>
        <pt x="426" y="0" on="0"/>
        <pt x="426" y="79" on="1"/>
        <pt x="428" y="177" on="1"/>
        <pt x="424" y="177" on="1"/>
        <pt x="396" y="121" on="0"/>
        <pt x="343" y="48" on="0"/>
        <pt x="291" y="5" on="0"/>
        <pt x="236" y="-12" on="0"/>
        <pt x="206" y="-12" on="1"/>
        <pt x="128" y="-12" on="0"/>
        <pt x="47" y="87" on="0"/>
        <pt x="47" y="182" on="1"/>
        <pt x="47" y="249" on="0"/>
        <pt x="81" y="374" on="0"/>
        <pt x="145" y="471" on="0"/>
        <pt x="239" y="530" on="0"/>
        <pt x="298" y="530" on="1"/>
        <pt x="373" y="530" on="0"/>
        <pt x="451" y="442" on="0"/>
        <pt x="456" y="341" on="1"/>
        <pt x="460" y="341" on="1"/>
        <pt x="510" y="446" on="1"/>
        <pt x="547" y="518" on="1"/>
        <pt x="646" y="518" on="1"/>
        <pt x="487" y="259" on="1"/>
        <pt x="514" y="76" on="1"/>
        <pt x="572" y="76" on="1"/>
      </contour>
      <contour>
        <pt x="222" y="67" on="1"/>
        <pt x="236" y="67" on="0"/>
        <pt x="264" y="76" on="0"/>
        <pt x="295" y="101" on="0"/>
        <pt x="330" y="144" on="0"/>
        <pt x="351" y="178" on="1"/>
        <pt x="401" y="259" on="1"/>
        <pt x="387" y="340" on="1"/>
        <pt x="376" y="406" on="0"/>
        <pt x="334" y="451" on="0"/>
        <pt x="299" y="451" on="1"/>
        <pt x="249" y="451" on="0"/>
        <pt x="173" y="375" on="0"/>
        <pt x="158" y="302" on="1"/>
        <pt x="143" y="228" on="1"/>
        <pt x="140" y="213" on="0"/>
        <pt x="138" y="188" on="0"/>
        <pt x="138" y="174" on="1"/>
        <pt x="138" y="116" on="0"/>
        <pt x="183" y="67" on="0"/>
      </contour>
    </TTGlyph>
    <TTGlyph name="alpha.alt01" xMin="47" yMin="-12" xMax="542" yMax="530">
      <component glyphName="a" x="0" y="0" flags="0x204"/>
    </TTGlyph>
    <TTGlyph name="alphatonos" xMin="47" yMin="-12" xMax="646" yMax="787">
      <component glyphName="alpha" x="0" y="0" flags="0x204"/>
      <component glyphName="tonos" x="13" y="0" flags="0x4"/>
    </TTGlyph>
    <TTGlyph name="alphatonos.alt01" xMin="47" yMin="-12" xMax="542" yMax="787">
      <component glyphName="a" x="0" y="0" flags="0x204"/>
      <component glyphName="tonos" x="15" y="0" flags="0x4"/>
    </TTGlyph>
    <TTGlyph name="amacron" xMin="47" yMin="-12" xMax="542" yMax="709">
      <component glyphName="a" x="0" y="0" flags="0x204"/>
      <component glyphName="macron" x="41" y="0" flags="0x4"/>
    </TTGlyph>
    <TTGlyph name="amacron.alt01" xMin="23" yMin="-12" xMax="477" yMax="709">
      <component glyphName="a.alt01" x="0" y="0" flags="0x204"/>
      <component glyphName="macron" x="-1" y="0" flags="0x4"/>
    </TTGlyph>
    <TTGlyph name="ampersand" xMin="36" yMin="-12" xMax="644" yMax="710">
      <contour>
        <pt x="434" y="79" on="1"/>
        <pt x="391" y="36" on="0"/>
        <pt x="283" y="-12" on="0"/>
        <pt x="219" y="-12" on="1"/>
        <pt x="128" y="-12" on="0"/>
        <pt x="36" y="80" on="0"/>
        <pt x="36" y="152" on="1"/>
        <pt x="36" y="196" on="0"/>
        <pt x="67" y="265" on="0"/>
        <pt x="118" y="319" on="0"/>
        <pt x="183" y="361" on="0"/>
        <pt x="218" y="378" on="1"/>
        <pt x="200" y="404" on="0"/>
        <pt x="170" y="472" on="0"/>
        <pt x="170" y="513" on="1"/>
        <pt x="170" y="552" on="0"/>
        <pt x="198" y="623" on="0"/>
        <pt x="250" y="677" on="0"/>
        <pt x="324" y="710" on="0"/>
        <pt x="370" y="710" on="1"/>
        <pt x="400" y="710" on="0"/>
        <pt x="456" y="693" on="0"/>
        <pt x="499" y="660" on="0"/>
        <pt x="524" y="610" on="0"/>
        <pt x="524" y="576" on="1"/>
        <pt x="524" y="536" on="0"/>
        <pt x="490" y="472" on="0"/>
        <pt x="436" y="420" on="0"/>
        <pt x="368" y="378" on="0"/>
        <pt x="334" y="361" on="1"/>
        <pt x="443" y="209" on="1"/>
        <pt x="463" y="246" on="0"/>
        <pt x="492" y="327" on="0"/>
        <pt x="503" y="370" on="1"/>
        <pt x="644" y="370" on="1"/>
        <pt x="628" y="294" on="1"/>
        <pt x="557" y="294" on="1"/>
        <pt x="531" y="211" on="0"/>
        <pt x="488" y="145" on="1"/>
        <pt x="592" y="0" on="1"/>
        <pt x="491" y="0" on="1"/>
      </contour>
      <contour>
        <pt x="361" y="637" on="1"/>
        <pt x="322" y="637" on="0"/>
        <pt x="267" y="584" on="0"/>
        <pt x="259" y="546" on="1"/>
        <pt x="256" y="531" on="0"/>
        <pt x="256" y="518" on="1"/>
        <pt x="256" y="495" on="0"/>
        <pt x="273" y="447" on="0"/>
        <pt x="295" y="415" on="1"/>
        <pt x="324" y="429" on="0"/>
        <pt x="375" y="459" on="0"/>
        <pt x="414" y="494" on="0"/>
        <pt x="436" y="537" on="0"/>
        <pt x="436" y="563" on="1"/>
        <pt x="436" y="598" on="0"/>
        <pt x="393" y="637" on="0"/>
      </contour>
      <contour>
        <pt x="238" y="65" on="1"/>
        <pt x="286" y="65" on="0"/>
        <pt x="362" y="103" on="0"/>
        <pt x="393" y="136" on="1"/>
        <pt x="257" y="325" on="1"/>
        <pt x="208" y="301" on="0"/>
        <pt x="138" y="242" on="0"/>
        <pt x="129" y="197" on="1"/>
        <pt x="126" y="182" on="0"/>
        <pt x="126" y="167" on="1"/>
        <pt x="126" y="118" on="0"/>
        <pt x="184" y="65" on="0"/>
      </contour>
    </TTGlyph>
    <TTGlyph name="anoteleia" xMin="123" yMin="387" xMax="255" yMax="526">
      <component glyphName="period" x="90" y="399" flags="0x4"/>
    </TTGlyph>
    <TTGlyph name="aogonek" xMin="47" yMin="-208" xMax="542" yMax="530">
      <contour>
        <pt x="508" y="0" on="1"/>
        <pt x="468" y="-26" on="0"/>
        <pt x="421" y="-64" on="0"/>
        <pt x="396" y="-92" on="0"/>
        <pt x="389" y="-112" on="0"/>
        <pt x="389" y="-120" on="1"/>
        <pt x="389" y="-135" on="0"/>
        <pt x="408" y="-151" on="0"/>
        <pt x="423" y="-151" on="1"/>
        <pt x="451" y="-151" on="0"/>
        <pt x="477" y="-124" on="1"/>
        <pt x="517" y="-168" on="1"/>
        <pt x="503" y="-185" on="0"/>
        <pt x="452" y="-208" on="0"/>
        <pt x="415" y="-208" on="1"/>
        <pt x="395" y="-208" on="0"/>
        <pt x="359" y="-199" on="0"/>
        <pt x="331" y="-180" on="0"/>
        <pt x="315" y="-151" on="0"/>
        <pt x="315" y="-131" on="1"/>
        <pt x="315" y="-90" on="0"/>
        <pt x="383" y="-29" on="0"/>
        <pt x="443" y="-5" on="1"/>
        <pt x="442" y="0" on="1"/>
        <pt x="435" y="0" on="1"/>
        <pt x="400" y="0" on="0"/>
        <pt x="364" y="36" on="0"/>
        <pt x="364" y="65" on="1"/>
        <pt x="364" y="75" on="0"/>
        <pt x="367" y="90" on="1"/>
        <pt x="372" y="114" on="1"/>
        <pt x="368" y="114" on="1"/>
        <pt x="336" y="49" on="0"/>
        <pt x="258" y="-12" on="0"/>
        <pt x="200" y="-12" on="1"/>
        <pt x="129" y="-12" on="0"/>
        <pt x="47" y="92" on="0"/>
        <pt x="47" y="182" on="1"/>
        <pt x="47" y="244" on="0"/>
        <pt x="79" y="369" on="0"/>
        <pt x="142" y="468" on="0"/>
        <pt x="235" y="530" on="0"/>
        <pt x="297" y="530" on="1"/>
        <pt x="345" y="530" on="0"/>
        <pt x="421" y="480" on="0"/>
        <pt x="431" y="432" on="1"/>
        <pt x="436" y="432" on="1"/>
        <pt x="454" y="518" on="1"/>
        <pt x="542" y="518" on="1"/>
        <pt x="453" y="76" on="1"/>
        <pt x="523" y="76" on="1"/>
      </contour>
      <contour>
        <pt x="229" y="67" on="1"/>
        <pt x="264" y="67" on="0"/>
        <pt x="313" y="94" on="0"/>
        <pt x="334" y="117" on="1"/>
        <pt x="357" y="142" on="0"/>
        <pt x="389" y="198" on="0"/>
        <pt x="397" y="240" on="1"/>
        <pt x="419" y="350" on="1"/>
        <pt x="422" y="367" on="0"/>
        <pt x="412" y="403" on="0"/>
        <pt x="384" y="432" on="0"/>
        <pt x="341" y="451" on="0"/>
        <pt x="311" y="451" on="1"/>
        <pt x="249" y="451" on="0"/>
        <pt x="172" y="375" on="0"/>
        <pt x="158" y="303" on="1"/>
        <pt x="143" y="228" on="1"/>
        <pt x="140" y="213" on="0"/>
        <pt x="138" y="188" on="0"/>
        <pt x="138" y="176" on="1"/>
        <pt x="138" y="128" on="0"/>
        <pt x="182" y="67" on="0"/>
      </contour>
    </TTGlyph>
    <TTGlyph name="aogonek.alt01" xMin="23" yMin="-208" xMax="477" yMax="530">
      <contour>
        <pt x="164" y="-12" on="1"/>
        <pt x="98" y="-12" on="0"/>
        <pt x="23" y="58" on="0"/>
        <pt x="23" y="115" on="1"/>
        <pt x="23" y="200" on="0"/>
        <pt x="140" y="296" on="0"/>
        <pt x="259" y="296" on="1"/>
        <pt x="362" y="296" on="1"/>
        <pt x="371" y="341" on="1"/>
        <pt x="374" y="356" on="0"/>
        <pt x="374" y="370" on="1"/>
        <pt x="374" y="410" on="0"/>
        <pt x="323" y="454" on="0"/>
        <pt x="275" y="454" on="1"/>
        <pt x="227" y="454" on="0"/>
        <pt x="167" y="415" on="0"/>
        <pt x="141" y="380" on="1"/>
        <pt x="86" y="432" on="1"/>
        <pt x="115" y="474" on="0"/>
        <pt x="218" y="530" on="0"/>
        <pt x="287" y="530" on="1"/>
        <pt x="332" y="530" on="0"/>
        <pt x="398" y="506" on="0"/>
        <pt x="442" y="466" on="0"/>
        <pt x="464" y="412" on="0"/>
        <pt x="464" y="381" on="1"/>
        <pt x="464" y="371" on="0"/>
        <pt x="462" y="350" on="0"/>
        <pt x="460" y="338" on="1"/>
        <pt x="407" y="76" on="1"/>
        <pt x="477" y="76" on="1"/>
        <pt x="462" y="0" on="1"/>
        <pt x="422" y="-26" on="0"/>
        <pt x="375" y="-64" on="0"/>
        <pt x="350" y="-92" on="0"/>
        <pt x="343" y="-112" on="0"/>
        <pt x="343" y="-120" on="1"/>
        <pt x="343" y="-135" on="0"/>
        <pt x="362" y="-151" on="0"/>
        <pt x="376" y="-151" on="1"/>
        <pt x="404" y="-151" on="0"/>
        <pt x="430" y="-124" on="1"/>
        <pt x="470" y="-168" on="1"/>
        <pt x="456" y="-185" on="0"/>
        <pt x="406" y="-208" on="0"/>
        <pt x="368" y="-208" on="1"/>
        <pt x="348" y="-208" on="0"/>
        <pt x="312" y="-199" on="0"/>
        <pt x="284" y="-180" on="0"/>
        <pt x="268" y="-151" on="0"/>
        <pt x="268" y="-131" on="1"/>
        <pt x="268" y="-90" on="0"/>
        <pt x="336" y="-29" on="0"/>
        <pt x="396" y="-5" on="1"/>
        <pt x="395" y="0" on="1"/>
        <pt x="360" y="1" on="0"/>
        <pt x="326" y="36" on="0"/>
        <pt x="326" y="65" on="1"/>
        <pt x="326" y="70" on="0"/>
        <pt x="326" y="80" on="0"/>
        <pt x="327" y="86" on="1"/>
        <pt x="322" y="86" on="1"/>
        <pt x="296" y="36" on="0"/>
        <pt x="216" y="-12" on="0"/>
      </contour>
      <contour>
        <pt x="192" y="62" on="1"/>
        <pt x="218" y="62" on="0"/>
        <pt x="266" y="75" on="0"/>
        <pt x="303" y="99" on="0"/>
        <pt x="329" y="132" on="0"/>
        <pt x="333" y="152" on="1"/>
        <pt x="349" y="234" on="1"/>
        <pt x="252" y="234" on="1"/>
        <pt x="135" y="234" on="0"/>
        <pt x="120" y="159" on="1"/>
        <pt x="116" y="140" on="0"/>
        <pt x="114" y="127" on="0"/>
        <pt x="114" y="122" on="1"/>
        <pt x="114" y="93" on="0"/>
        <pt x="156" y="62" on="0"/>
      </contour>
    </TTGlyph>
    <TTGlyph name="approxequal" xMin="59" yMin="131" xMax="558" yMax="483">
      <component glyphName="asciitilde" x="20" y="104" flags="0x204"/>
      <component glyphName="asciitilde" x="-19" y="-102" flags="0x4"/>
    </TTGlyph>
    <TTGlyph name="aring" xMin="47" yMin="-12" xMax="542" yMax="813">
      <component glyphName="a" x="0" y="0" flags="0x204"/>
      <component glyphName="ring" x="41" y="0" flags="0x4"/>
    </TTGlyph>
    <TTGlyph name="aring.alt01" xMin="23" yMin="-12" xMax="477" yMax="813">
      <component glyphName="a.alt01" x="0" y="0" flags="0x204"/>
      <component glyphName="ring" x="-1" y="0" flags="0x4"/>
    </TTGlyph>
    <TTGlyph name="aringacute" xMin="47" yMin="-12" xMax="542" yMax="963">
      <component glyphName="a" x="0" y="0" flags="0x204"/>
      <component glyphName="ringacute" x="41" y="0" flags="0x4"/>
    </TTGlyph>
    <TTGlyph name="aringacute.alt01" xMin="23" yMin="-12" xMax="477" yMax="963">
      <component glyphName="a.alt01" x="0" y="0" flags="0x204"/>
      <component glyphName="ringacute" x="-1" y="0" flags="0x4"/>
    </TTGlyph>
    <TTGlyph name="asciicircum" xMin="69" yMin="293" xMax="560" yMax="698">
      <contour>
        <pt x="487" y="293" on="1"/>
        <pt x="375" y="608" on="1"/>
        <pt x="369" y="608" on="1"/>
        <pt x="134" y="293" on="1"/>
        <pt x="69" y="333" on="1"/>
        <pt x="337" y="698" on="1"/>
        <pt x="431" y="698" on="1"/>
        <pt x="560" y="325" on="1"/>
      </contour>
    </TTGlyph>
    <TTGlyph name="asciitilde" xMin="78" yMin="233" xMax="538" yMax="379">
      <contour>
        <pt x="409" y="233" on="1"/>
        <pt x="374" y="233" on="0"/>
        <pt x="323" y="255" on="0"/>
        <pt x="293" y="271" on="1"/>
        <pt x="269" y="285" on="0"/>
        <pt x="222" y="305" on="0"/>
        <pt x="192" y="305" on="1"/>
        <pt x="169" y="305" on="0"/>
        <pt x="129" y="289" on="0"/>
        <pt x="105" y="272" on="1"/>
        <pt x="78" y="324" on="1"/>
        <pt x="101" y="348" on="0"/>
        <pt x="161" y="379" on="0"/>
        <pt x="207" y="379" on="1"/>
        <pt x="242" y="379" on="0"/>
        <pt x="293" y="357" on="0"/>
        <pt x="323" y="341" on="1"/>
        <pt x="347" y="327" on="0"/>
        <pt x="394" y="307" on="0"/>
        <pt x="424" y="307" on="1"/>
        <pt x="447" y="307" on="0"/>
        <pt x="487" y="323" on="0"/>
        <pt x="511" y="340" on="1"/>
        <pt x="538" y="286" on="1"/>
        <pt x="515" y="262" on="0"/>
        <pt x="455" y="233" on="0"/>
      </contour>
    </TTGlyph>
    <TTGlyph name="asterisk" xMin="100" yMin="353" xMax="500" yMax="747">
      <contour>
        <pt x="175" y="353" on="1"/>
        <pt x="116" y="405" on="1"/>
        <pt x="238" y="529" on="1"/>
        <pt x="100" y="571" on="1"/>
        <pt x="134" y="645" on="1"/>
        <pt x="268" y="588" on="1"/>
        <pt x="294" y="747" on="1"/>
        <pt x="373" y="747" on="1"/>
        <pt x="337" y="589" on="1"/>
        <pt x="483" y="643" on="1"/>
        <pt x="500" y="569" on="1"/>
        <pt x="345" y="526" on="1"/>
        <pt x="417" y="401" on="1"/>
        <pt x="349" y="357" on="1"/>
        <pt x="287" y="490" on="1"/>
      </contour>
    </TTGlyph>
    <TTGlyph name="at" xMin="64" yMin="-121" xMax="824" yMax="708">
      <contour>
        <pt x="364" y="-121" on="1"/>
        <pt x="292" y="-121" on="0"/>
        <pt x="180" y="-77" on="0"/>
        <pt x="104" y="5" on="0"/>
        <pt x="64" y="123" on="0"/>
        <pt x="64" y="197" on="1"/>
        <pt x="64" y="218" on="0"/>
        <pt x="68" y="274" on="0"/>
        <pt x="75" y="308" on="1"/>
        <pt x="93" y="395" on="0"/>
        <pt x="171" y="542" on="0"/>
        <pt x="285" y="649" on="0"/>
        <pt x="431" y="708" on="0"/>
        <pt x="516" y="708" on="1"/>
        <pt x="586" y="708" on="0"/>
        <pt x="699" y="666" on="0"/>
        <pt x="780" y="587" on="0"/>
        <pt x="824" y="475" on="0"/>
        <pt x="824" y="405" on="1"/>
        <pt x="824" y="391" on="0"/>
        <pt x="821" y="348" on="0"/>
        <pt x="815" y="319" on="1"/>
        <pt x="804" y="268" on="0"/>
        <pt x="769" y="177" on="0"/>
        <pt x="718" y="110" on="0"/>
        <pt x="650" y="70" on="0"/>
        <pt x="606" y="70" on="1"/>
        <pt x="512" y="70" on="0"/>
        <pt x="512" y="160" on="1"/>
        <pt x="512" y="172" on="1"/>
        <pt x="508" y="172" on="1"/>
        <pt x="492" y="130" on="0"/>
        <pt x="422" y="70" on="0"/>
        <pt x="374" y="70" on="1"/>
        <pt x="320" y="70" on="0"/>
        <pt x="244" y="150" on="0"/>
        <pt x="244" y="228" on="1"/>
        <pt x="244" y="257" on="0"/>
        <pt x="253" y="302" on="1"/>
        <pt x="272" y="398" on="0"/>
        <pt x="372" y="509" on="0"/>
        <pt x="444" y="509" on="1"/>
        <pt x="489" y="509" on="0"/>
        <pt x="541" y="466" on="0"/>
        <pt x="551" y="424" on="1"/>
        <pt x="555" y="424" on="1"/>
        <pt x="570" y="500" on="1"/>
        <pt x="647" y="500" on="1"/>
        <pt x="589" y="207" on="1"/>
        <pt x="587" y="199" on="0"/>
        <pt x="583" y="178" on="0"/>
        <pt x="583" y="169" on="1"/>
        <pt x="583" y="152" on="0"/>
        <pt x="599" y="134" on="0"/>
        <pt x="619" y="134" on="1"/>
        <pt x="663" y="134" on="0"/>
        <pt x="726" y="227" on="0"/>
        <pt x="742" y="307" on="1"/>
        <pt x="751" y="352" on="1"/>
        <pt x="754" y="367" on="0"/>
        <pt x="756" y="399" on="0"/>
        <pt x="756" y="413" on="1"/>
        <pt x="756" y="465" on="0"/>
        <pt x="722" y="550" on="0"/>
        <pt x="659" y="611" on="0"/>
        <pt x="568" y="644" on="0"/>
        <pt x="510" y="644" on="1"/>
        <pt x="443" y="644" on="0"/>
        <pt x="325" y="598" on="0"/>
        <pt x="231" y="514" on="0"/>
        <pt x="166" y="395" on="0"/>
        <pt x="151" y="322" on="1"/>
        <pt x="140" y="267" on="1"/>
        <pt x="136" y="248" on="0"/>
        <pt x="134" y="212" on="0"/>
        <pt x="134" y="198" on="1"/>
        <pt x="134" y="79" on="0"/>
        <pt x="254" y="-56" on="0"/>
        <pt x="370" y="-56" on="1"/>
        <pt x="592" y="-56" on="1"/>
        <pt x="579" y="-121" on="1"/>
      </contour>
      <contour>
        <pt x="403" y="140" on="1"/>
        <pt x="425" y="140" on="0"/>
        <pt x="465" y="158" on="0"/>
        <pt x="495" y="187" on="0"/>
        <pt x="516" y="225" on="0"/>
        <pt x="520" y="246" on="1"/>
        <pt x="542" y="356" on="1"/>
        <pt x="545" y="371" on="0"/>
        <pt x="535" y="401" on="0"/>
        <pt x="513" y="425" on="0"/>
        <pt x="479" y="440" on="0"/>
        <pt x="457" y="440" on="1"/>
        <pt x="413" y="440" on="0"/>
        <pt x="353" y="384" on="0"/>
        <pt x="344" y="337" on="1"/>
        <pt x="326" y="247" on="1"/>
        <pt x="324" y="239" on="0"/>
        <pt x="324" y="226" on="0"/>
        <pt x="324" y="220" on="1"/>
        <pt x="324" y="183" on="0"/>
        <pt x="365" y="140" on="0"/>
      </contour>
    </TTGlyph>
    <TTGlyph name="atilde" xMin="47" yMin="-12" xMax="542" yMax="732">
      <component glyphName="a" x="0" y="0" flags="0x204"/>
      <component glyphName="tilde" x="41" y="0" flags="0x4"/>
    </TTGlyph>
    <TTGlyph name="atilde.alt01" xMin="23" yMin="-12" xMax="482" yMax="732">
      <component glyphName="a.alt01" x="0" y="0" flags="0x204"/>
      <component glyphName="tilde" x="-1" y="0" flags="0x4"/>
    </TTGlyph>
    <TTGlyph name="b" xMin="32" yMin="-12" xMax="527" yMax="740">
      <contour>
        <pt x="180" y="740" on="1"/>
        <pt x="269" y="740" on="1"/>
        <pt x="202" y="404" on="1"/>
        <pt x="206" y="404" on="1"/>
        <pt x="238" y="469" on="0"/>
        <pt x="316" y="530" on="0"/>
        <pt x="374" y="530" on="1"/>
        <pt x="445" y="530" on="0"/>
        <pt x="527" y="426" on="0"/>
        <pt x="527" y="336" on="1"/>
        <pt x="527" y="274" on="0"/>
        <pt x="495" y="149" on="0"/>
        <pt x="432" y="50" on="0"/>
        <pt x="338" y="-12" on="0"/>
        <pt x="277" y="-12" on="1"/>
        <pt x="229" y="-12" on="0"/>
        <pt x="153" y="38" on="0"/>
        <pt x="143" y="86" on="1"/>
        <pt x="138" y="86" on="1"/>
        <pt x="121" y="0" on="1"/>
        <pt x="32" y="0" on="1"/>
      </contour>
      <contour>
        <pt x="263" y="67" on="1"/>
        <pt x="325" y="67" on="0"/>
        <pt x="402" y="143" on="0"/>
        <pt x="416" y="215" on="1"/>
        <pt x="431" y="290" on="1"/>
        <pt x="434" y="305" on="0"/>
        <pt x="436" y="330" on="0"/>
        <pt x="436" y="342" on="1"/>
        <pt x="436" y="390" on="0"/>
        <pt x="392" y="451" on="0"/>
        <pt x="345" y="451" on="1"/>
        <pt x="310" y="451" on="0"/>
        <pt x="262" y="423" on="0"/>
        <pt x="240" y="401" on="1"/>
        <pt x="217" y="378" on="0"/>
        <pt x="185" y="320" on="0"/>
        <pt x="177" y="278" on="1"/>
        <pt x="155" y="168" on="1"/>
        <pt x="152" y="151" on="0"/>
        <pt x="162" y="115" on="0"/>
        <pt x="190" y="86" on="0"/>
        <pt x="233" y="67" on="0"/>
      </contour>
    </TTGlyph>
    <TTGlyph name="backslash" xMin="142" yMin="-151" xMax="298" yMax="740">
      <contour>
        <pt x="222" y="-151" on="1"/>
        <pt x="142" y="740" on="1"/>
        <pt x="218" y="740" on="1"/>
        <pt x="298" y="-151" on="1"/>
      </contour>
    </TTGlyph>
    <TTGlyph name="bar" xMin="43" yMin="-138" xMax="300" yMax="760">
      <contour>
        <pt x="43" y="-138" on="1"/>
        <pt x="222" y="760" on="1"/>
        <pt x="300" y="760" on="1"/>
        <pt x="121" y="-138" on="1"/>
      </contour>
    </TTGlyph>
    <TTGlyph name="beta" xMin="-8" yMin="-200" xMax="542" yMax="752">
      <contour>
        <pt x="135" y="515" on="1"/>
        <pt x="158" y="627" on="0"/>
        <pt x="278" y="752" on="0"/>
        <pt x="375" y="752" on="1"/>
        <pt x="454" y="752" on="0"/>
        <pt x="542" y="670" on="0"/>
        <pt x="542" y="595" on="1"/>
        <pt x="542" y="552" on="0"/>
        <pt x="517" y="486" on="0"/>
        <pt x="474" y="438" on="0"/>
        <pt x="416" y="408" on="0"/>
        <pt x="383" y="402" on="1"/>
        <pt x="382" y="398" on="1"/>
        <pt x="444" y="386" on="0"/>
        <pt x="507" y="303" on="0"/>
        <pt x="507" y="228" on="1"/>
        <pt x="507" y="177" on="0"/>
        <pt x="474" y="89" on="0"/>
        <pt x="413" y="24" on="0"/>
        <pt x="329" y="-12" on="0"/>
        <pt x="278" y="-12" on="1"/>
        <pt x="228" y="-12" on="0"/>
        <pt x="152" y="37" on="0"/>
        <pt x="142" y="85" on="1"/>
        <pt x="138" y="85" on="1"/>
        <pt x="81" y="-200" on="1"/>
        <pt x="-8" y="-200" on="1"/>
      </contour>
      <contour>
        <pt x="278" y="436" on="1"/>
        <pt x="314" y="436" on="1"/>
        <pt x="377" y="436" on="0"/>
        <pt x="434" y="492" on="0"/>
        <pt x="445" y="541" on="1"/>
        <pt x="448" y="557" on="0"/>
        <pt x="452" y="585" on="0"/>
        <pt x="452" y="596" on="1"/>
        <pt x="452" y="631" on="0"/>
        <pt x="411" y="674" on="0"/>
        <pt x="365" y="674" on="1"/>
        <pt x="317" y="674" on="0"/>
        <pt x="243" y="604" on="0"/>
        <pt x="226" y="524" on="1"/>
        <pt x="158" y="185" on="1"/>
        <pt x="147" y="134" on="0"/>
        <pt x="199" y="66" on="0"/>
        <pt x="265" y="66" on="1"/>
        <pt x="322" y="66" on="0"/>
        <pt x="399" y="123" on="0"/>
        <pt x="411" y="190" on="1"/>
        <pt x="414" y="205" on="0"/>
        <pt x="417" y="231" on="0"/>
        <pt x="417" y="248" on="1"/>
        <pt x="417" y="360" on="0"/>
        <pt x="300" y="360" on="1"/>
        <pt x="262" y="360" on="1"/>
      </contour>
    </TTGlyph>
    <TTGlyph name="braceleft" xMin="26" yMin="-138" xMax="382" yMax="760">
      <contour>
        <pt x="119" y="-138" on="1"/>
        <pt x="85" y="-138" on="0"/>
        <pt x="50" y="-103" on="0"/>
        <pt x="50" y="-74" on="1"/>
        <pt x="50" y="-68" on="0"/>
        <pt x="51" y="-56" on="0"/>
        <pt x="53" y="-45" on="1"/>
        <pt x="97" y="172" on="1"/>
        <pt x="100" y="187" on="0"/>
        <pt x="100" y="199" on="1"/>
        <pt x="100" y="233" on="0"/>
        <pt x="61" y="269" on="0"/>
        <pt x="26" y="269" on="1"/>
        <pt x="43" y="355" on="1"/>
        <pt x="93" y="355" on="0"/>
        <pt x="143" y="399" on="0"/>
        <pt x="151" y="442" on="1"/>
        <pt x="197" y="673" on="1"/>
        <pt x="214" y="760" on="0"/>
        <pt x="287" y="760" on="1"/>
        <pt x="382" y="760" on="1"/>
        <pt x="368" y="689" on="1"/>
        <pt x="280" y="689" on="1"/>
        <pt x="231" y="441" on="1"/>
        <pt x="226" y="418" on="0"/>
        <pt x="211" y="375" on="0"/>
        <pt x="183" y="341" on="0"/>
        <pt x="142" y="318" on="0"/>
        <pt x="112" y="315" on="1"/>
        <pt x="109" y="301" on="1"/>
        <pt x="144" y="294" on="0"/>
        <pt x="183" y="245" on="0"/>
        <pt x="183" y="208" on="1"/>
        <pt x="183" y="200" on="0"/>
        <pt x="180" y="183" on="0"/>
        <pt x="178" y="175" on="1"/>
        <pt x="129" y="-67" on="1"/>
        <pt x="217" y="-67" on="1"/>
        <pt x="203" y="-138" on="1"/>
      </contour>
    </TTGlyph>
    <TTGlyph name="braceright" xMin="-26" yMin="-138" xMax="330" yMax="760">
      <contour>
        <pt x="-12" y="-67" on="1"/>
        <pt x="76" y="-67" on="1"/>
        <pt x="125" y="179" on="1"/>
        <pt x="129" y="202" on="0"/>
        <pt x="145" y="246" on="0"/>
        <pt x="173" y="281" on="0"/>
        <pt x="214" y="304" on="0"/>
        <pt x="244" y="307" on="1"/>
        <pt x="247" y="321" on="1"/>
        <pt x="212" y="328" on="0"/>
        <pt x="173" y="377" on="0"/>
        <pt x="173" y="414" on="1"/>
        <pt x="173" y="422" on="0"/>
        <pt x="176" y="439" on="0"/>
        <pt x="178" y="447" on="1"/>
        <pt x="227" y="689" on="1"/>
        <pt x="139" y="689" on="1"/>
        <pt x="153" y="760" on="1"/>
        <pt x="237" y="760" on="1"/>
        <pt x="271" y="760" on="0"/>
        <pt x="306" y="725" on="0"/>
        <pt x="306" y="696" on="1"/>
        <pt x="306" y="690" on="0"/>
        <pt x="305" y="678" on="0"/>
        <pt x="303" y="667" on="1"/>
        <pt x="259" y="450" on="1"/>
        <pt x="256" y="435" on="0"/>
        <pt x="256" y="423" on="1"/>
        <pt x="256" y="389" on="0"/>
        <pt x="295" y="353" on="0"/>
        <pt x="330" y="353" on="1"/>
        <pt x="313" y="269" on="1"/>
        <pt x="263" y="269" on="0"/>
        <pt x="214" y="223" on="0"/>
        <pt x="205" y="178" on="1"/>
        <pt x="159" y="-51" on="1"/>
        <pt x="142" y="-138" on="0"/>
        <pt x="69" y="-138" on="1"/>
        <pt x="-26" y="-138" on="1"/>
      </contour>
    </TTGlyph>
    <TTGlyph name="bracketleft" xMin="9" yMin="-138" xMax="359" yMax="760">
      <contour>
        <pt x="9" y="-138" on="1"/>
        <pt x="189" y="760" on="1"/>
        <pt x="359" y="760" on="1"/>
        <pt x="345" y="691" on="1"/>
        <pt x="254" y="691" on="1"/>
        <pt x="103" y="-69" on="1"/>
        <pt x="193" y="-69" on="1"/>
        <pt x="179" y="-138" on="1"/>
      </contour>
    </TTGlyph>
    <TTGlyph name="bracketright" xMin="-19" yMin="-138" xMax="331" yMax="760">
      <contour>
        <pt x="331" y="760" on="1"/>
        <pt x="151" y="-138" on="1"/>
        <pt x="-19" y="-138" on="1"/>
        <pt x="-5" y="-69" on="1"/>
        <pt x="86" y="-69" on="1"/>
        <pt x="237" y="691" on="1"/>
        <pt x="147" y="691" on="1"/>
        <pt x="161" y="760" on="1"/>
      </contour>
    </TTGlyph>
    <TTGlyph name="breve" xMin="167" yMin="593" xMax="482" yMax="758">
      <contour>
        <pt x="305" y="593" on="1"/>
        <pt x="267" y="593" on="0"/>
        <pt x="217" y="620" on="0"/>
        <pt x="186" y="662" on="0"/>
        <pt x="170" y="711" on="0"/>
        <pt x="167" y="734" on="1"/>
        <pt x="220" y="758" on="1"/>
        <pt x="231" y="733" on="1"/>
        <pt x="246" y="698" on="0"/>
        <pt x="279" y="662" on="0"/>
        <pt x="308" y="662" on="1"/>
        <pt x="335" y="662" on="0"/>
        <pt x="381" y="695" on="0"/>
        <pt x="409" y="733" on="1"/>
        <pt x="427" y="758" on="1"/>
        <pt x="482" y="733" on="1"/>
        <pt x="471" y="710" on="0"/>
        <pt x="441" y="661" on="0"/>
        <pt x="399" y="620" on="0"/>
        <pt x="342" y="593" on="0"/>
      </contour>
    </TTGlyph>
    <TTGlyph name="breve.case" xMin="171" yMin="761" xMax="486" yMax="921">
      <contour>
        <pt x="309" y="761" on="1"/>
        <pt x="271" y="761" on="0"/>
        <pt x="222" y="787" on="0"/>
        <pt x="191" y="827" on="0"/>
        <pt x="175" y="875" on="0"/>
        <pt x="171" y="897" on="1"/>
        <pt x="224" y="921" on="1"/>
        <pt x="235" y="896" on="1"/>
        <pt x="249" y="864" on="0"/>
        <pt x="283" y="831" on="0"/>
        <pt x="313" y="831" on="1"/>
        <pt x="340" y="831" on="0"/>
        <pt x="385" y="860" on="0"/>
        <pt x="412" y="896" on="1"/>
        <pt x="431" y="921" on="1"/>
        <pt x="486" y="896" on="1"/>
        <pt x="475" y="874" on="0"/>
        <pt x="445" y="826" on="0"/>
        <pt x="403" y="787" on="0"/>
        <pt x="346" y="761" on="0"/>
      </contour>
    </TTGlyph>
    <TTGlyph name="breve.cyrl" xMin="177" yMin="593" xMax="489" yMax="751">
      <contour>
        <pt x="315" y="593" on="1"/>
        <pt x="268" y="593" on="0"/>
        <pt x="208" y="632" on="0"/>
        <pt x="192" y="677" on="1"/>
        <pt x="177" y="720" on="1"/>
        <pt x="253" y="751" on="1"/>
        <pt x="274" y="665" on="1"/>
        <pt x="284" y="662" on="0"/>
        <pt x="312" y="659" on="0"/>
        <pt x="323" y="659" on="1"/>
        <pt x="351" y="659" on="0"/>
        <pt x="368" y="665" on="1"/>
        <pt x="419" y="751" on="1"/>
        <pt x="489" y="715" on="1"/>
        <pt x="462" y="677" on="1"/>
        <pt x="430" y="632" on="0"/>
        <pt x="361" y="593" on="0"/>
      </contour>
    </TTGlyph>
    <TTGlyph name="breve.cyrl_case" xMin="179" yMin="761" xMax="491" yMax="919">
      <contour>
        <pt x="317" y="761" on="1"/>
        <pt x="270" y="761" on="0"/>
        <pt x="210" y="800" on="0"/>
        <pt x="194" y="845" on="1"/>
        <pt x="179" y="888" on="1"/>
        <pt x="255" y="919" on="1"/>
        <pt x="276" y="833" on="1"/>
        <pt x="286" y="830" on="0"/>
        <pt x="314" y="827" on="0"/>
        <pt x="325" y="827" on="1"/>
        <pt x="353" y="827" on="0"/>
        <pt x="370" y="833" on="1"/>
        <pt x="421" y="919" on="1"/>
        <pt x="491" y="883" on="1"/>
        <pt x="464" y="845" on="1"/>
        <pt x="432" y="800" on="0"/>
        <pt x="363" y="761" on="0"/>
      </contour>
    </TTGlyph>
    <TTGlyph name="breveacute" xMin="-128" yMin="583" xMax="191" yMax="907">
      <contour>
        <pt x="13" y="583" on="1"/>
        <pt x="-25" y="583" on="0"/>
        <pt x="-76" y="609" on="0"/>
        <pt x="-108" y="650" on="0"/>
        <pt x="-124" y="698" on="0"/>
        <pt x="-128" y="720" on="1"/>
        <pt x="-76" y="745" on="1"/>
        <pt x="-65" y="722" on="1"/>
        <pt x="-48" y="687" on="0"/>
        <pt x="-15" y="653" on="0"/>
        <pt x="16" y="653" on="1"/>
        <pt x="44" y="653" on="0"/>
        <pt x="89" y="684" on="0"/>
        <pt x="119" y="722" on="1"/>
        <pt x="138" y="745" on="1"/>
        <pt x="191" y="720" on="1"/>
        <pt x="179" y="697" on="0"/>
        <pt x="149" y="649" on="0"/>
        <pt x="107" y="609" on="0"/>
        <pt x="50" y="583" on="0"/>
      </contour>
      <contour>
        <pt x="38" y="705" on="1"/>
        <pt x="-15" y="733" on="1"/>
        <pt x="89" y="907" on="1"/>
        <pt x="164" y="868" on="1"/>
      </contour>
    </TTGlyph>
    <TTGlyph name="breveacute.case" xMin="-124" yMin="752" xMax="195" yMax="1075">
      <contour>
        <pt x="17" y="752" on="1"/>
        <pt x="-21" y="752" on="0"/>
        <pt x="-72" y="777" on="0"/>
        <pt x="-104" y="816" on="0"/>
        <pt x="-120" y="863" on="0"/>
        <pt x="-124" y="884" on="1"/>
        <pt x="-72" y="909" on="1"/>
        <pt x="-61" y="886" on="1"/>
        <pt x="-44" y="851" on="0"/>
        <pt x="-11" y="817" on="0"/>
        <pt x="20" y="817" on="1"/>
        <pt x="48" y="817" on="0"/>
        <pt x="92" y="848" on="0"/>
        <pt x="123" y="886" on="1"/>
        <pt x="142" y="909" on="1"/>
        <pt x="195" y="884" on="1"/>
        <pt x="184" y="862" on="0"/>
        <pt x="153" y="815" on="0"/>
        <pt x="111" y="777" on="0"/>
        <pt x="54" y="752" on="0"/>
      </contour>
      <contour>
        <pt x="42" y="874" on="1"/>
        <pt x="-11" y="902" on="1"/>
        <pt x="93" y="1075" on="1"/>
        <pt x="168" y="1036" on="1"/>
      </contour>
    </TTGlyph>
    <TTGlyph name="brevegrave" xMin="-128" yMin="583" xMax="191" yMax="905">
      <contour>
        <pt x="13" y="583" on="1"/>
        <pt x="-25" y="583" on="0"/>
        <pt x="-76" y="609" on="0"/>
        <pt x="-108" y="650" on="0"/>
        <pt x="-124" y="698" on="0"/>
        <pt x="-128" y="720" on="1"/>
        <pt x="-76" y="745" on="1"/>
        <pt x="-65" y="722" on="1"/>
        <pt x="-48" y="687" on="0"/>
        <pt x="-15" y="653" on="0"/>
        <pt x="16" y="653" on="1"/>
        <pt x="44" y="653" on="0"/>
        <pt x="89" y="684" on="0"/>
        <pt x="119" y="722" on="1"/>
        <pt x="138" y="745" on="1"/>
        <pt x="191" y="720" on="1"/>
        <pt x="179" y="697" on="0"/>
        <pt x="149" y="649" on="0"/>
        <pt x="107" y="609" on="0"/>
        <pt x="50" y="583" on="0"/>
      </contour>
      <contour>
        <pt x="-75" y="870" on="1"/>
        <pt x="3" y="905" on="1"/>
        <pt x="64" y="729" on="1"/>
        <pt x="11" y="705" on="1"/>
      </contour>
    </TTGlyph>
    <TTGlyph name="brevegrave.case" xMin="-124" yMin="752" xMax="195" yMax="1075">
      <contour>
        <pt x="17" y="752" on="1"/>
        <pt x="-21" y="752" on="0"/>
        <pt x="-72" y="777" on="0"/>
        <pt x="-104" y="816" on="0"/>
        <pt x="-120" y="863" on="0"/>
        <pt x="-124" y="884" on="1"/>
        <pt x="-72" y="909" on="1"/>
        <pt x="-61" y="886" on="1"/>
        <pt x="-44" y="851" on="0"/>
        <pt x="-11" y="817" on="0"/>
        <pt x="20" y="817" on="1"/>
        <pt x="48" y="817" on="0"/>
        <pt x="92" y="848" on="0"/>
        <pt x="123" y="886" on="1"/>
        <pt x="142" y="909" on="1"/>
        <pt x="195" y="884" on="1"/>
        <pt x="184" y="862" on="0"/>
        <pt x="153" y="815" on="0"/>
        <pt x="111" y="777" on="0"/>
        <pt x="54" y="752" on="0"/>
      </contour>
      <contour>
        <pt x="-72" y="1039" on="1"/>
        <pt x="7" y="1075" on="1"/>
        <pt x="70" y="896" on="1"/>
        <pt x="16" y="872" on="1"/>
      </contour>
    </TTGlyph>
    <TTGlyph name="brevehook" xMin="-128" yMin="583" xMax="191" yMax="894">
      <contour>
        <pt x="13" y="583" on="1"/>
        <pt x="-25" y="583" on="0"/>
        <pt x="-76" y="609" on="0"/>
        <pt x="-108" y="650" on="0"/>
        <pt x="-124" y="698" on="0"/>
        <pt x="-128" y="720" on="1"/>
        <pt x="-76" y="745" on="1"/>
        <pt x="-65" y="722" on="1"/>
        <pt x="-48" y="687" on="0"/>
        <pt x="-15" y="653" on="0"/>
        <pt x="16" y="653" on="1"/>
        <pt x="44" y="653" on="0"/>
        <pt x="89" y="684" on="0"/>
        <pt x="119" y="722" on="1"/>
        <pt x="138" y="745" on="1"/>
        <pt x="191" y="720" on="1"/>
        <pt x="179" y="697" on="0"/>
        <pt x="149" y="649" on="0"/>
        <pt x="107" y="609" on="0"/>
        <pt x="50" y="583" on="0"/>
      </contour>
      <contour>
        <pt x="-44" y="894" on="1"/>
        <pt x="68" y="894" on="1"/>
        <pt x="105" y="894" on="0"/>
        <pt x="132" y="862" on="0"/>
        <pt x="132" y="843" on="1"/>
        <pt x="132" y="816" on="0"/>
        <pt x="100" y="763" on="0"/>
        <pt x="74" y="734" on="1"/>
        <pt x="40" y="696" on="1"/>
        <pt x="-5" y="721" on="1"/>
        <pt x="61" y="830" on="1"/>
        <pt x="-55" y="830" on="1"/>
      </contour>
    </TTGlyph>
    <TTGlyph name="brevehook.case" xMin="-124" yMin="752" xMax="195" yMax="1062">
      <contour>
        <pt x="-47" y="1062" on="1"/>
        <pt x="65" y="1062" on="1"/>
        <pt x="103" y="1062" on="0"/>
        <pt x="130" y="1030" on="0"/>
        <pt x="130" y="1012" on="1"/>
        <pt x="130" y="985" on="0"/>
        <pt x="96" y="933" on="0"/>
        <pt x="70" y="903" on="1"/>
        <pt x="38" y="866" on="1"/>
        <pt x="-8" y="891" on="1"/>
        <pt x="59" y="999" on="1"/>
        <pt x="-57" y="999" on="1"/>
      </contour>
      <contour>
        <pt x="17" y="752" on="1"/>
        <pt x="-21" y="752" on="0"/>
        <pt x="-72" y="777" on="0"/>
        <pt x="-104" y="816" on="0"/>
        <pt x="-120" y="863" on="0"/>
        <pt x="-124" y="884" on="1"/>
        <pt x="-72" y="909" on="1"/>
        <pt x="-61" y="886" on="1"/>
        <pt x="-44" y="851" on="0"/>
        <pt x="-11" y="817" on="0"/>
        <pt x="20" y="817" on="1"/>
        <pt x="48" y="817" on="0"/>
        <pt x="92" y="848" on="0"/>
        <pt x="123" y="886" on="1"/>
        <pt x="142" y="909" on="1"/>
        <pt x="195" y="884" on="1"/>
        <pt x="184" y="862" on="0"/>
        <pt x="153" y="815" on="0"/>
        <pt x="111" y="777" on="0"/>
        <pt x="54" y="752" on="0"/>
      </contour>
    </TTGlyph>
    <TTGlyph name="brevetilde" xMin="-128" yMin="583" xMax="210" yMax="894">
      <contour>
        <pt x="13" y="583" on="1"/>
        <pt x="-25" y="583" on="0"/>
        <pt x="-76" y="609" on="0"/>
        <pt x="-108" y="650" on="0"/>
        <pt x="-124" y="698" on="0"/>
        <pt x="-128" y="720" on="1"/>
        <pt x="-76" y="745" on="1"/>
        <pt x="-65" y="722" on="1"/>
        <pt x="-48" y="687" on="0"/>
        <pt x="-15" y="653" on="0"/>
        <pt x="16" y="653" on="1"/>
        <pt x="44" y="653" on="0"/>
        <pt x="89" y="684" on="0"/>
        <pt x="119" y="722" on="1"/>
        <pt x="138" y="745" on="1"/>
        <pt x="191" y="720" on="1"/>
        <pt x="179" y="697" on="0"/>
        <pt x="149" y="649" on="0"/>
        <pt x="107" y="609" on="0"/>
        <pt x="50" y="583" on="0"/>
      </contour>
      <contour>
        <pt x="107" y="775" on="1"/>
        <pt x="83" y="775" on="0"/>
        <pt x="48" y="792" on="0"/>
        <pt x="34" y="800" on="1"/>
        <pt x="13" y="813" on="0"/>
        <pt x="-18" y="823" on="0"/>
        <pt x="-32" y="823" on="1"/>
        <pt x="-48" y="823" on="0"/>
        <pt x="-75" y="810" on="0"/>
        <pt x="-92" y="797" on="1"/>
        <pt x="-120" y="839" on="1"/>
        <pt x="-104" y="861" on="0"/>
        <pt x="-53" y="894" on="0"/>
        <pt x="-18" y="894" on="1"/>
        <pt x="7" y="894" on="0"/>
        <pt x="42" y="878" on="0"/>
        <pt x="56" y="870" on="1"/>
        <pt x="77" y="856" on="0"/>
        <pt x="107" y="846" on="0"/>
        <pt x="121" y="846" on="1"/>
        <pt x="137" y="846" on="0"/>
        <pt x="165" y="860" on="0"/>
        <pt x="182" y="873" on="1"/>
        <pt x="210" y="831" on="1"/>
        <pt x="193" y="809" on="0"/>
        <pt x="142" y="775" on="0"/>
      </contour>
    </TTGlyph>
    <TTGlyph name="brevetilde.case" xMin="-124" yMin="752" xMax="208" yMax="1061">
      <contour>
        <pt x="105" y="944" on="1"/>
        <pt x="80" y="944" on="0"/>
        <pt x="45" y="960" on="0"/>
        <pt x="31" y="968" on="1"/>
        <pt x="10" y="982" on="0"/>
        <pt x="-20" y="992" on="0"/>
        <pt x="-34" y="992" on="1"/>
        <pt x="-50" y="992" on="0"/>
        <pt x="-78" y="978" on="0"/>
        <pt x="-95" y="965" on="1"/>
        <pt x="-124" y="1007" on="1"/>
        <pt x="-107" y="1028" on="0"/>
        <pt x="-56" y="1061" on="0"/>
        <pt x="-21" y="1061" on="1"/>
        <pt x="4" y="1061" on="0"/>
        <pt x="39" y="1045" on="0"/>
        <pt x="53" y="1037" on="1"/>
        <pt x="74" y="1023" on="0"/>
        <pt x="105" y="1014" on="0"/>
        <pt x="119" y="1014" on="1"/>
        <pt x="135" y="1014" on="0"/>
        <pt x="162" y="1027" on="0"/>
        <pt x="179" y="1040" on="1"/>
        <pt x="208" y="997" on="1"/>
        <pt x="191" y="977" on="0"/>
        <pt x="140" y="944" on="0"/>
      </contour>
      <contour>
        <pt x="17" y="752" on="1"/>
        <pt x="-21" y="752" on="0"/>
        <pt x="-72" y="777" on="0"/>
        <pt x="-104" y="816" on="0"/>
        <pt x="-120" y="863" on="0"/>
        <pt x="-124" y="884" on="1"/>
        <pt x="-72" y="909" on="1"/>
        <pt x="-61" y="886" on="1"/>
        <pt x="-44" y="851" on="0"/>
        <pt x="-11" y="817" on="0"/>
        <pt x="20" y="817" on="1"/>
        <pt x="48" y="817" on="0"/>
        <pt x="92" y="848" on="0"/>
        <pt x="123" y="886" on="1"/>
        <pt x="142" y="909" on="1"/>
        <pt x="195" y="884" on="1"/>
        <pt x="184" y="862" on="0"/>
        <pt x="153" y="815" on="0"/>
        <pt x="111" y="777" on="0"/>
        <pt x="54" y="752" on="0"/>
      </contour>
    </TTGlyph>
    <TTGlyph name="brokenbar" xMin="43" yMin="-138" xMax="300" yMax="760">
      <contour>
        <pt x="151" y="405" on="1"/>
        <pt x="222" y="760" on="1"/>
        <pt x="300" y="760" on="1"/>
        <pt x="229" y="405" on="1"/>
      </contour>
      <contour>
        <pt x="43" y="-138" on="1"/>
        <pt x="114" y="217" on="1"/>
        <pt x="192" y="217" on="1"/>
        <pt x="121" y="-138" on="1"/>
      </contour>
    </TTGlyph>
    <TTGlyph name="bullet" xMin="77" yMin="177" xMax="332" yMax="424">
      <contour>
        <pt x="184" y="177" on="1"/>
        <pt x="128" y="177" on="0"/>
        <pt x="77" y="222" on="0"/>
        <pt x="77" y="259" on="1"/>
        <pt x="77" y="264" on="0"/>
        <pt x="80" y="295" on="0"/>
        <pt x="85" y="318" on="1"/>
        <pt x="94" y="364" on="0"/>
        <pt x="159" y="424" on="0"/>
        <pt x="225" y="424" on="1"/>
        <pt x="281" y="424" on="0"/>
        <pt x="332" y="379" on="0"/>
        <pt x="332" y="342" on="1"/>
        <pt x="332" y="337" on="0"/>
        <pt x="329" y="306" on="0"/>
        <pt x="324" y="283" on="1"/>
        <pt x="315" y="237" on="0"/>
        <pt x="250" y="177" on="0"/>
      </contour>
    </TTGlyph>
    <TTGlyph name="c" xMin="46" yMin="-12" xMax="479" yMax="530">
      <contour>
        <pt x="237" y="-12" on="1"/>
        <pt x="149" y="-12" on="0"/>
        <pt x="46" y="101" on="0"/>
        <pt x="46" y="202" on="1"/>
        <pt x="46" y="270" on="0"/>
        <pt x="83" y="389" on="0"/>
        <pt x="150" y="478" on="0"/>
        <pt x="245" y="530" on="0"/>
        <pt x="304" y="530" on="1"/>
        <pt x="374" y="530" on="0"/>
        <pt x="465" y="461" on="0"/>
        <pt x="479" y="407" on="1"/>
        <pt x="404" y="375" on="1"/>
        <pt x="392" y="413" on="0"/>
        <pt x="343" y="453" on="0"/>
        <pt x="301" y="453" on="1"/>
        <pt x="243" y="453" on="0"/>
        <pt x="171" y="378" on="0"/>
        <pt x="157" y="312" on="1"/>
        <pt x="139" y="227" on="1"/>
        <pt x="137" y="216" on="0"/>
        <pt x="135" y="192" on="0"/>
        <pt x="135" y="183" on="1"/>
        <pt x="135" y="131" on="0"/>
        <pt x="189" y="65" on="0"/>
        <pt x="246" y="65" on="1"/>
        <pt x="284" y="65" on="0"/>
        <pt x="343" y="109" on="0"/>
        <pt x="372" y="163" on="1"/>
        <pt x="442" y="129" on="1"/>
        <pt x="410" y="61" on="0"/>
        <pt x="306" y="-12" on="0"/>
      </contour>
    </TTGlyph>
    <TTGlyph name="cacute" xMin="46" yMin="-12" xMax="479" yMax="787">
      <component glyphName="c" x="0" y="0" flags="0x204"/>
      <component glyphName="acute" x="17" y="0" flags="0x4"/>
    </TTGlyph>
    <TTGlyph name="caron" xMin="170" yMin="597" xMax="498" yMax="780">
      <contour>
        <pt x="256" y="597" on="1"/>
        <pt x="170" y="743" on="1"/>
        <pt x="220" y="779" on="1"/>
        <pt x="311" y="663" on="1"/>
        <pt x="451" y="780" on="1"/>
        <pt x="498" y="743" on="1"/>
        <pt x="356" y="597" on="1"/>
      </contour>
    </TTGlyph>
    <TTGlyph name="caron.case" xMin="171" yMin="765" xMax="498" yMax="949">
      <contour>
        <pt x="257" y="765" on="1"/>
        <pt x="171" y="912" on="1"/>
        <pt x="221" y="948" on="1"/>
        <pt x="312" y="832" on="1"/>
        <pt x="451" y="949" on="1"/>
        <pt x="498" y="912" on="1"/>
        <pt x="356" y="765" on="1"/>
      </contour>
    </TTGlyph>
    <TTGlyph name="ccaron" xMin="46" yMin="-12" xMax="515" yMax="780">
      <component glyphName="c" x="0" y="0" flags="0x204"/>
      <component glyphName="caron" x="17" y="0" flags="0x4"/>
    </TTGlyph>
    <TTGlyph name="ccedilla" xMin="46" yMin="-208" xMax="479" yMax="530">
      <contour>
        <pt x="304" y="530" on="1"/>
        <pt x="374" y="530" on="0"/>
        <pt x="465" y="461" on="0"/>
        <pt x="479" y="407" on="1"/>
        <pt x="404" y="375" on="1"/>
        <pt x="392" y="413" on="0"/>
        <pt x="343" y="453" on="0"/>
        <pt x="301" y="453" on="1"/>
        <pt x="243" y="453" on="0"/>
        <pt x="171" y="378" on="0"/>
        <pt x="157" y="312" on="1"/>
        <pt x="139" y="227" on="1"/>
        <pt x="137" y="216" on="0"/>
        <pt x="135" y="192" on="0"/>
        <pt x="135" y="183" on="1"/>
        <pt x="135" y="131" on="0"/>
        <pt x="189" y="65" on="0"/>
        <pt x="246" y="65" on="1"/>
        <pt x="284" y="65" on="0"/>
        <pt x="343" y="109" on="0"/>
        <pt x="372" y="163" on="1"/>
        <pt x="442" y="129" on="1"/>
        <pt x="412" y="66" on="0"/>
        <pt x="318" y="-6" on="0"/>
        <pt x="257" y="-11" on="1"/>
        <pt x="241" y="-61" on="1"/>
        <pt x="243" y="-63" on="1"/>
        <pt x="249" y="-61" on="0"/>
        <pt x="265" y="-58" on="0"/>
        <pt x="276" y="-58" on="1"/>
        <pt x="301" y="-58" on="0"/>
        <pt x="335" y="-84" on="0"/>
        <pt x="335" y="-114" on="1"/>
        <pt x="335" y="-158" on="0"/>
        <pt x="272" y="-208" on="0"/>
        <pt x="221" y="-208" on="1"/>
        <pt x="183" y="-208" on="0"/>
        <pt x="129" y="-185" on="0"/>
        <pt x="118" y="-169" on="1"/>
        <pt x="160" y="-126" on="1"/>
        <pt x="167" y="-136" on="0"/>
        <pt x="197" y="-152" on="0"/>
        <pt x="219" y="-152" on="1"/>
        <pt x="241" y="-152" on="0"/>
        <pt x="266" y="-133" on="0"/>
        <pt x="266" y="-117" on="1"/>
        <pt x="266" y="-101" on="0"/>
        <pt x="241" y="-82" on="0"/>
        <pt x="208" y="-78" on="1"/>
        <pt x="183" y="-75" on="1"/>
        <pt x="205" y="-10" on="1"/>
        <pt x="131" y="0" on="0"/>
        <pt x="46" y="111" on="0"/>
        <pt x="46" y="202" on="1"/>
        <pt x="46" y="269" on="0"/>
        <pt x="83" y="389" on="0"/>
        <pt x="150" y="478" on="0"/>
        <pt x="245" y="530" on="0"/>
      </contour>
    </TTGlyph>
    <TTGlyph name="ccircumflex" xMin="46" yMin="-12" xMax="484" yMax="771">
      <component glyphName="c" x="0" y="0" flags="0x204"/>
      <component glyphName="circumflex" x="17" y="0" flags="0x4"/>
    </TTGlyph>
    <TTGlyph name="cdotaccent" xMin="46" yMin="-12" xMax="479" yMax="727">
      <component glyphName="c" x="0" y="0" flags="0x204"/>
      <component glyphName="dotaccent" x="17" y="0" flags="0x4"/>
    </TTGlyph>
    <TTGlyph name="cedilla" xMin="174" yMin="-208" xMax="391" yMax="22">
      <contour>
        <pt x="277" y="-208" on="1"/>
        <pt x="239" y="-208" on="0"/>
        <pt x="185" y="-185" on="0"/>
        <pt x="174" y="-169" on="1"/>
        <pt x="216" y="-126" on="1"/>
        <pt x="223" y="-136" on="0"/>
        <pt x="253" y="-152" on="0"/>
        <pt x="275" y="-152" on="1"/>
        <pt x="297" y="-152" on="0"/>
        <pt x="321" y="-133" on="0"/>
        <pt x="321" y="-117" on="1"/>
        <pt x="321" y="-101" on="0"/>
        <pt x="297" y="-82" on="0"/>
        <pt x="264" y="-78" on="1"/>
        <pt x="239" y="-75" on="1"/>
        <pt x="271" y="22" on="1"/>
        <pt x="324" y="22" on="1"/>
        <pt x="297" y="-61" on="1"/>
        <pt x="299" y="-63" on="1"/>
        <pt x="305" y="-61" on="0"/>
        <pt x="321" y="-58" on="0"/>
        <pt x="332" y="-58" on="1"/>
        <pt x="357" y="-58" on="0"/>
        <pt x="391" y="-84" on="0"/>
        <pt x="391" y="-114" on="1"/>
        <pt x="391" y="-158" on="0"/>
        <pt x="328" y="-208" on="0"/>
      </contour>
    </TTGlyph>
    <TTGlyph name="cent" xMin="46" yMin="-114" xMax="485" yMax="630">
      <contour>
        <pt x="178" y="-4" on="1"/>
        <pt x="115" y="13" on="0"/>
        <pt x="46" y="122" on="0"/>
        <pt x="46" y="204" on="1"/>
        <pt x="46" y="266" on="0"/>
        <pt x="78" y="378" on="0"/>
        <pt x="140" y="466" on="0"/>
        <pt x="228" y="521" on="0"/>
        <pt x="284" y="526" on="1"/>
        <pt x="305" y="630" on="1"/>
        <pt x="382" y="630" on="1"/>
        <pt x="360" y="522" on="1"/>
        <pt x="409" y="510" on="0"/>
        <pt x="471" y="450" on="0"/>
        <pt x="485" y="406" on="1"/>
        <pt x="410" y="371" on="1"/>
        <pt x="401" y="401" on="0"/>
        <pt x="368" y="439" on="0"/>
        <pt x="341" y="447" on="1"/>
        <pt x="265" y="64" on="1"/>
        <pt x="300" y="69" on="0"/>
        <pt x="352" y="113" on="0"/>
        <pt x="378" y="161" on="1"/>
        <pt x="445" y="125" on="1"/>
        <pt x="413" y="62" on="0"/>
        <pt x="320" y="-6" on="0"/>
        <pt x="253" y="-11" on="1"/>
        <pt x="232" y="-114" on="1"/>
        <pt x="156" y="-114" on="1"/>
      </contour>
      <contour>
        <pt x="133" y="182" on="1"/>
        <pt x="133" y="143" on="0"/>
        <pt x="164" y="84" on="0"/>
        <pt x="196" y="71" on="1"/>
        <pt x="271" y="448" on="1"/>
        <pt x="223" y="437" on="0"/>
        <pt x="165" y="367" on="0"/>
        <pt x="154" y="310" on="1"/>
        <pt x="137" y="225" on="1"/>
        <pt x="133" y="205" on="0"/>
      </contour>
    </TTGlyph>
    <TTGlyph name="chi" xMin="-79" yMin="-200" xMax="520" yMax="518">
      <contour>
        <pt x="126" y="518" on="1"/>
        <pt x="189" y="518" on="0"/>
        <pt x="199" y="462" on="1"/>
        <pt x="239" y="241" on="1"/>
        <pt x="244" y="241" on="1"/>
        <pt x="420" y="518" on="1"/>
        <pt x="520" y="518" on="1"/>
        <pt x="281" y="165" on="1"/>
        <pt x="342" y="-124" on="1"/>
        <pt x="410" y="-124" on="1"/>
        <pt x="395" y="-200" on="1"/>
        <pt x="332" y="-200" on="1"/>
        <pt x="269" y="-200" on="0"/>
        <pt x="259" y="-144" on="1"/>
        <pt x="214" y="99" on="1"/>
        <pt x="209" y="99" on="1"/>
        <pt x="21" y="-200" on="1"/>
        <pt x="-79" y="-200" on="1"/>
        <pt x="172" y="174" on="1"/>
        <pt x="116" y="442" on="1"/>
        <pt x="48" y="442" on="1"/>
        <pt x="63" y="518" on="1"/>
      </contour>
    </TTGlyph>
    <TTGlyph name="circumflex" xMin="141" yMin="589" xMax="467" yMax="771">
      <contour>
        <pt x="382" y="771" on="1"/>
        <pt x="467" y="625" on="1"/>
        <pt x="418" y="590" on="1"/>
        <pt x="324" y="705" on="1"/>
        <pt x="186" y="589" on="1"/>
        <pt x="141" y="625" on="1"/>
        <pt x="283" y="771" on="1"/>
      </contour>
    </TTGlyph>
    <TTGlyph name="circumflex.case" xMin="142" yMin="757" xMax="469" yMax="939">
      <contour>
        <pt x="383" y="939" on="1"/>
        <pt x="469" y="793" on="1"/>
        <pt x="420" y="757" on="1"/>
        <pt x="325" y="873" on="1"/>
        <pt x="187" y="757" on="1"/>
        <pt x="142" y="794" on="1"/>
        <pt x="284" y="939" on="1"/>
      </contour>
    </TTGlyph>
    <TTGlyph name="circumflexacute" xMin="-143" yMin="579" xMax="309" yMax="906">
      <contour>
        <pt x="183" y="705" on="1"/>
        <pt x="130" y="732" on="1"/>
        <pt x="233" y="906" on="1"/>
        <pt x="309" y="867" on="1"/>
      </contour>
      <contour>
        <pt x="87" y="752" on="1"/>
        <pt x="177" y="617" on="1"/>
        <pt x="130" y="579" on="1"/>
        <pt x="35" y="689" on="1"/>
        <pt x="-98" y="579" on="1"/>
        <pt x="-143" y="617" on="1"/>
        <pt x="-6" y="752" on="1"/>
      </contour>
    </TTGlyph>
    <TTGlyph name="circumflexacute.case" xMin="-142" yMin="746" xMax="314" yMax="1074">
      <contour>
        <pt x="188" y="873" on="1"/>
        <pt x="134" y="900" on="1"/>
        <pt x="238" y="1074" on="1"/>
        <pt x="314" y="1035" on="1"/>
      </contour>
      <contour>
        <pt x="87" y="920" on="1"/>
        <pt x="177" y="784" on="1"/>
        <pt x="131" y="746" on="1"/>
        <pt x="34" y="858" on="1"/>
        <pt x="-98" y="746" on="1"/>
        <pt x="-142" y="784" on="1"/>
        <pt x="-6" y="920" on="1"/>
      </contour>
    </TTGlyph>
    <TTGlyph name="circumflexbreve" xMin="-139" yMin="581" xMax="205" yMax="907">
      <contour>
        <pt x="81" y="727" on="1"/>
        <pt x="181" y="622" on="1"/>
        <pt x="138" y="581" on="1"/>
        <pt x="29" y="667" on="1"/>
        <pt x="-104" y="581" on="1"/>
        <pt x="-139" y="622" on="1"/>
        <pt x="-9" y="727" on="1"/>
      </contour>
      <contour>
        <pt x="35" y="754" on="1"/>
        <pt x="-1" y="754" on="0"/>
        <pt x="-49" y="779" on="0"/>
        <pt x="-80" y="817" on="0"/>
        <pt x="-96" y="863" on="0"/>
        <pt x="-99" y="885" on="1"/>
        <pt x="-50" y="907" on="1"/>
        <pt x="-38" y="883" on="1"/>
        <pt x="-22" y="851" on="0"/>
        <pt x="10" y="818" on="0"/>
        <pt x="38" y="818" on="1"/>
        <pt x="64" y="818" on="0"/>
        <pt x="107" y="848" on="0"/>
        <pt x="135" y="883" on="1"/>
        <pt x="154" y="907" on="1"/>
        <pt x="205" y="884" on="1"/>
        <pt x="194" y="862" on="0"/>
        <pt x="165" y="816" on="0"/>
        <pt x="124" y="778" on="0"/>
        <pt x="71" y="754" on="0"/>
      </contour>
    </TTGlyph>
    <TTGlyph name="circumflexbreve.case" xMin="-137" yMin="749" xMax="209" yMax="1076">
      <contour>
        <pt x="82" y="896" on="1"/>
        <pt x="182" y="790" on="1"/>
        <pt x="140" y="749" on="1"/>
        <pt x="31" y="836" on="1"/>
        <pt x="-102" y="749" on="1"/>
        <pt x="-137" y="790" on="1"/>
        <pt x="-7" y="896" on="1"/>
      </contour>
      <contour>
        <pt x="39" y="922" on="1"/>
        <pt x="3" y="922" on="0"/>
        <pt x="-45" y="947" on="0"/>
        <pt x="-76" y="986" on="0"/>
        <pt x="-92" y="1032" on="0"/>
        <pt x="-95" y="1054" on="1"/>
        <pt x="-46" y="1076" on="1"/>
        <pt x="-34" y="1053" on="1"/>
        <pt x="-17" y="1021" on="0"/>
        <pt x="14" y="986" on="0"/>
        <pt x="42" y="986" on="1"/>
        <pt x="68" y="986" on="0"/>
        <pt x="114" y="1016" on="0"/>
        <pt x="141" y="1053" on="1"/>
        <pt x="158" y="1076" on="1"/>
        <pt x="209" y="1053" on="1"/>
        <pt x="198" y="1031" on="0"/>
        <pt x="169" y="985" on="0"/>
        <pt x="128" y="947" on="0"/>
        <pt x="75" y="922" on="0"/>
      </contour>
    </TTGlyph>
    <TTGlyph name="circumflexgrave" xMin="-203" yMin="579" xMax="176" yMax="906">
      <contour>
        <pt x="-203" y="871" on="1"/>
        <pt x="-126" y="906" on="1"/>
        <pt x="-63" y="732" on="1"/>
        <pt x="-112" y="708" on="1"/>
      </contour>
      <contour>
        <pt x="87" y="752" on="1"/>
        <pt x="176" y="617" on="1"/>
        <pt x="129" y="579" on="1"/>
        <pt x="34" y="689" on="1"/>
        <pt x="-99" y="579" on="1"/>
        <pt x="-144" y="617" on="1"/>
        <pt x="-7" y="752" on="1"/>
      </contour>
    </TTGlyph>
    <TTGlyph name="circumflexgrave.case" xMin="-209" yMin="746" xMax="176" yMax="1073">
      <contour>
        <pt x="-209" y="1038" on="1"/>
        <pt x="-133" y="1073" on="1"/>
        <pt x="-69" y="897" on="1"/>
        <pt x="-119" y="873" on="1"/>
      </contour>
      <contour>
        <pt x="86" y="920" on="1"/>
        <pt x="176" y="784" on="1"/>
        <pt x="130" y="746" on="1"/>
        <pt x="33" y="858" on="1"/>
        <pt x="-99" y="746" on="1"/>
        <pt x="-143" y="784" on="1"/>
        <pt x="-7" y="920" on="1"/>
      </contour>
    </TTGlyph>
    <TTGlyph name="circumflexhook" xMin="-144" yMin="579" xMax="271" yMax="894">
      <contour>
        <pt x="96" y="894" on="1"/>
        <pt x="208" y="894" on="1"/>
        <pt x="245" y="894" on="0"/>
        <pt x="271" y="863" on="0"/>
        <pt x="271" y="844" on="1"/>
        <pt x="271" y="817" on="0"/>
        <pt x="237" y="767" on="0"/>
        <pt x="212" y="736" on="1"/>
        <pt x="179" y="696" on="1"/>
        <pt x="133" y="721" on="1"/>
        <pt x="201" y="830" on="1"/>
        <pt x="85" y="830" on="1"/>
      </contour>
      <contour>
        <pt x="87" y="752" on="1"/>
        <pt x="176" y="617" on="1"/>
        <pt x="129" y="579" on="1"/>
        <pt x="34" y="689" on="1"/>
        <pt x="-99" y="579" on="1"/>
        <pt x="-144" y="617" on="1"/>
        <pt x="-7" y="752" on="1"/>
      </contour>
    </TTGlyph>
    <TTGlyph name="circumflexhook.case" xMin="-143" yMin="746" xMax="271" yMax="1062">
      <contour>
        <pt x="96" y="1062" on="1"/>
        <pt x="207" y="1062" on="1"/>
        <pt x="245" y="1062" on="0"/>
        <pt x="271" y="1031" on="0"/>
        <pt x="271" y="1014" on="1"/>
        <pt x="271" y="987" on="0"/>
        <pt x="238" y="935" on="0"/>
        <pt x="212" y="905" on="1"/>
        <pt x="180" y="867" on="1"/>
        <pt x="134" y="892" on="1"/>
        <pt x="199" y="998" on="1"/>
        <pt x="84" y="998" on="1"/>
      </contour>
      <contour>
        <pt x="86" y="920" on="1"/>
        <pt x="176" y="784" on="1"/>
        <pt x="130" y="746" on="1"/>
        <pt x="33" y="858" on="1"/>
        <pt x="-99" y="746" on="1"/>
        <pt x="-143" y="784" on="1"/>
        <pt x="-7" y="920" on="1"/>
      </contour>
    </TTGlyph>
    <TTGlyph name="circumflextilde" xMin="-144" yMin="579" xMax="215" yMax="895">
      <contour>
        <pt x="-11" y="895" on="1"/>
        <pt x="13" y="895" on="0"/>
        <pt x="46" y="878" on="0"/>
        <pt x="60" y="870" on="1"/>
        <pt x="83" y="857" on="0"/>
        <pt x="112" y="847" on="0"/>
        <pt x="126" y="847" on="1"/>
        <pt x="141" y="847" on="0"/>
        <pt x="170" y="860" on="0"/>
        <pt x="187" y="873" on="1"/>
        <pt x="215" y="831" on="1"/>
        <pt x="197" y="809" on="0"/>
        <pt x="146" y="781" on="0"/>
        <pt x="111" y="781" on="1"/>
        <pt x="88" y="781" on="0"/>
        <pt x="54" y="797" on="0"/>
        <pt x="40" y="805" on="1"/>
        <pt x="18" y="818" on="0"/>
        <pt x="-12" y="828" on="0"/>
        <pt x="-26" y="828" on="1"/>
        <pt x="-41" y="828" on="0"/>
        <pt x="-70" y="814" on="0"/>
        <pt x="-87" y="801" on="1"/>
        <pt x="-114" y="840" on="1"/>
        <pt x="-97" y="861" on="0"/>
        <pt x="-45" y="895" on="0"/>
      </contour>
      <contour>
        <pt x="85" y="749" on="1"/>
        <pt x="175" y="617" on="1"/>
        <pt x="128" y="579" on="1"/>
        <pt x="32" y="690" on="1"/>
        <pt x="-99" y="579" on="1"/>
        <pt x="-144" y="617" on="1"/>
        <pt x="-8" y="749" on="1"/>
      </contour>
    </TTGlyph>
    <TTGlyph name="circumflextilde.case" xMin="-144" yMin="746" xMax="216" yMax="1063">
      <contour>
        <pt x="-10" y="1063" on="1"/>
        <pt x="14" y="1063" on="0"/>
        <pt x="47" y="1046" on="0"/>
        <pt x="61" y="1038" on="1"/>
        <pt x="84" y="1025" on="0"/>
        <pt x="113" y="1015" on="0"/>
        <pt x="127" y="1015" on="1"/>
        <pt x="142" y="1015" on="0"/>
        <pt x="171" y="1028" on="0"/>
        <pt x="188" y="1041" on="1"/>
        <pt x="216" y="999" on="1"/>
        <pt x="198" y="977" on="0"/>
        <pt x="147" y="949" on="0"/>
        <pt x="112" y="949" on="1"/>
        <pt x="89" y="949" on="0"/>
        <pt x="55" y="965" on="0"/>
        <pt x="41" y="973" on="1"/>
        <pt x="19" y="986" on="0"/>
        <pt x="-11" y="996" on="0"/>
        <pt x="-25" y="996" on="1"/>
        <pt x="-40" y="996" on="0"/>
        <pt x="-69" y="982" on="0"/>
        <pt x="-86" y="969" on="1"/>
        <pt x="-113" y="1008" on="1"/>
        <pt x="-96" y="1029" on="0"/>
        <pt x="-44" y="1063" on="0"/>
      </contour>
      <contour>
        <pt x="85" y="918" on="1"/>
        <pt x="176" y="784" on="1"/>
        <pt x="129" y="746" on="1"/>
        <pt x="33" y="858" on="1"/>
        <pt x="-99" y="746" on="1"/>
        <pt x="-144" y="784" on="1"/>
        <pt x="-8" y="918" on="1"/>
      </contour>
    </TTGlyph>
    <TTGlyph name="colon" xMin="43" yMin="-12" xMax="257" yMax="530">
      <component glyphName="period" x="10" y="0" flags="0x4"/>
      <component glyphName="period" x="92" y="403" flags="0x4"/>
    </TTGlyph>
    <TTGlyph name="comma" xMin="-34" yMin="-134" xMax="164" yMax="127">
      <contour>
        <pt x="108" y="127" on="1"/>
        <pt x="135" y="127" on="0"/>
        <pt x="164" y="103" on="0"/>
        <pt x="164" y="82" on="1"/>
        <pt x="164" y="76" on="0"/>
        <pt x="161" y="56" on="0"/>
        <pt x="159" y="48" on="1"/>
        <pt x="154" y="27" on="0"/>
        <pt x="135" y="-21" on="0"/>
        <pt x="105" y="-69" on="0"/>
        <pt x="64" y="-115" on="0"/>
        <pt x="38" y="-134" on="1"/>
        <pt x="-34" y="-134" on="1"/>
        <pt x="4" y="-102" on="0"/>
        <pt x="52" y="-41" on="0"/>
        <pt x="69" y="-6" on="1"/>
        <pt x="32" y="2" on="0"/>
        <pt x="32" y="34" on="1"/>
        <pt x="32" y="42" on="0"/>
        <pt x="35" y="61" on="0"/>
        <pt x="37" y="69" on="1"/>
        <pt x="42" y="92" on="0"/>
        <pt x="73" y="127" on="0"/>
      </contour>
    </TTGlyph>
    <TTGlyph name="copyright" xMin="65" yMin="-12" xMax="750" yMax="708">
      <contour>
        <pt x="356" y="-12" on="1"/>
        <pt x="290" y="-12" on="0"/>
        <pt x="183" y="32" on="0"/>
        <pt x="107" y="113" on="0"/>
        <pt x="65" y="224" on="0"/>
        <pt x="65" y="292" on="1"/>
        <pt x="65" y="382" on="0"/>
        <pt x="125" y="534" on="0"/>
        <pt x="230" y="645" on="0"/>
        <pt x="375" y="708" on="0"/>
        <pt x="459" y="708" on="1"/>
        <pt x="525" y="708" on="0"/>
        <pt x="632" y="664" on="0"/>
        <pt x="708" y="583" on="0"/>
        <pt x="750" y="471" on="0"/>
        <pt x="750" y="404" on="1"/>
        <pt x="750" y="314" on="0"/>
        <pt x="690" y="162" on="0"/>
        <pt x="585" y="51" on="0"/>
        <pt x="440" y="-12" on="0"/>
      </contour>
      <contour>
        <pt x="360" y="47" on="1"/>
        <pt x="417" y="47" on="0"/>
        <pt x="521" y="86" on="0"/>
        <pt x="603" y="153" on="0"/>
        <pt x="659" y="244" on="0"/>
        <pt x="669" y="296" on="1"/>
        <pt x="675" y="328" on="0"/>
        <pt x="684" y="385" on="0"/>
        <pt x="684" y="404" on="1"/>
        <pt x="684" y="460" on="0"/>
        <pt x="650" y="551" on="0"/>
        <pt x="589" y="615" on="0"/>
        <pt x="505" y="649" on="0"/>
        <pt x="455" y="649" on="1"/>
        <pt x="398" y="649" on="0"/>
        <pt x="294" y="610" on="0"/>
        <pt x="212" y="542" on="0"/>
        <pt x="156" y="452" on="0"/>
        <pt x="146" y="400" on="1"/>
        <pt x="140" y="368" on="0"/>
        <pt x="131" y="311" on="0"/>
        <pt x="131" y="292" on="1"/>
        <pt x="131" y="236" on="0"/>
        <pt x="165" y="145" on="0"/>
        <pt x="226" y="81" on="0"/>
        <pt x="310" y="47" on="0"/>
      </contour>
      <contour>
        <pt x="380" y="151" on="1"/>
        <pt x="315" y="151" on="0"/>
        <pt x="241" y="232" on="0"/>
        <pt x="241" y="303" on="1"/>
        <pt x="241" y="353" on="0"/>
        <pt x="270" y="442" on="0"/>
        <pt x="322" y="508" on="0"/>
        <pt x="394" y="547" on="0"/>
        <pt x="437" y="547" on="1"/>
        <pt x="495" y="547" on="0"/>
        <pt x="562" y="488" on="0"/>
        <pt x="573" y="448" on="1"/>
        <pt x="507" y="420" on="1"/>
        <pt x="501" y="448" on="0"/>
        <pt x="464" y="480" on="0"/>
        <pt x="435" y="480" on="1"/>
        <pt x="394" y="480" on="0"/>
        <pt x="347" y="424" on="0"/>
        <pt x="339" y="382" on="1"/>
        <pt x="326" y="319" on="1"/>
        <pt x="323" y="304" on="0"/>
        <pt x="323" y="292" on="1"/>
        <pt x="323" y="260" on="0"/>
        <pt x="358" y="219" on="0"/>
        <pt x="390" y="219" on="1"/>
        <pt x="441" y="219" on="0"/>
        <pt x="486" y="284" on="1"/>
        <pt x="542" y="244" on="1"/>
        <pt x="516" y="205" on="0"/>
        <pt x="435" y="151" on="0"/>
      </contour>
    </TTGlyph>
    <TTGlyph name="currency" xMin="-7" yMin="58" xMax="650" yMax="640">
      <contour>
        <pt x="282" y="117" on="1"/>
        <pt x="240" y="117" on="0"/>
        <pt x="179" y="139" on="0"/>
        <pt x="156" y="159" on="1"/>
        <pt x="41" y="64" on="1"/>
        <pt x="-7" y="123" on="1"/>
        <pt x="112" y="221" on="1"/>
        <pt x="100" y="252" on="0"/>
        <pt x="100" y="293" on="1"/>
        <pt x="100" y="324" on="0"/>
        <pt x="106" y="356" on="1"/>
        <pt x="112" y="388" on="0"/>
        <pt x="141" y="461" on="0"/>
        <pt x="162" y="487" on="1"/>
        <pt x="79" y="591" on="1"/>
        <pt x="140" y="640" on="1"/>
        <pt x="220" y="541" on="1"/>
        <pt x="282" y="581" on="0"/>
        <pt x="361" y="581" on="1"/>
        <pt x="403" y="581" on="0"/>
        <pt x="464" y="559" on="0"/>
        <pt x="487" y="539" on="1"/>
        <pt x="602" y="634" on="1"/>
        <pt x="650" y="575" on="1"/>
        <pt x="531" y="477" on="1"/>
        <pt x="543" y="445" on="0"/>
        <pt x="543" y="405" on="1"/>
        <pt x="543" y="373" on="0"/>
        <pt x="537" y="342" on="1"/>
        <pt x="531" y="310" on="0"/>
        <pt x="502" y="237" on="0"/>
        <pt x="481" y="211" on="1"/>
        <pt x="564" y="107" on="1"/>
        <pt x="503" y="58" on="1"/>
        <pt x="423" y="157" on="1"/>
        <pt x="361" y="117" on="0"/>
      </contour>
      <contour>
        <pt x="289" y="191" on="1"/>
        <pt x="344" y="191" on="0"/>
        <pt x="423" y="253" on="0"/>
        <pt x="437" y="318" on="1"/>
        <pt x="450" y="380" on="1"/>
        <pt x="452" y="390" on="0"/>
        <pt x="454" y="410" on="0"/>
        <pt x="454" y="418" on="1"/>
        <pt x="454" y="463" on="0"/>
        <pt x="401" y="507" on="0"/>
        <pt x="354" y="507" on="1"/>
        <pt x="299" y="507" on="0"/>
        <pt x="220" y="445" on="0"/>
        <pt x="206" y="380" on="1"/>
        <pt x="193" y="318" on="1"/>
        <pt x="191" y="308" on="0"/>
        <pt x="189" y="288" on="0"/>
        <pt x="189" y="280" on="1"/>
        <pt x="189" y="235" on="0"/>
        <pt x="242" y="191" on="0"/>
      </contour>
    </TTGlyph>
    <TTGlyph name="d" xMin="47" yMin="-12" xMax="586" yMax="740">
      <contour>
        <pt x="435" y="0" on="1"/>
        <pt x="400" y="0" on="0"/>
        <pt x="364" y="36" on="0"/>
        <pt x="364" y="65" on="1"/>
        <pt x="364" y="75" on="0"/>
        <pt x="367" y="90" on="1"/>
        <pt x="372" y="114" on="1"/>
        <pt x="368" y="114" on="1"/>
        <pt x="336" y="49" on="0"/>
        <pt x="258" y="-12" on="0"/>
        <pt x="200" y="-12" on="1"/>
        <pt x="129" y="-12" on="0"/>
        <pt x="47" y="92" on="0"/>
        <pt x="47" y="182" on="1"/>
        <pt x="47" y="244" on="0"/>
        <pt x="79" y="369" on="0"/>
        <pt x="142" y="468" on="0"/>
        <pt x="235" y="530" on="0"/>
        <pt x="297" y="530" on="1"/>
        <pt x="345" y="530" on="0"/>
        <pt x="421" y="480" on="0"/>
        <pt x="431" y="432" on="1"/>
        <pt x="436" y="432" on="1"/>
        <pt x="497" y="740" on="1"/>
        <pt x="586" y="740" on="1"/>
        <pt x="453" y="76" on="1"/>
        <pt x="523" y="76" on="1"/>
        <pt x="508" y="0" on="1"/>
      </contour>
      <contour>
        <pt x="229" y="67" on="1"/>
        <pt x="264" y="67" on="0"/>
        <pt x="312" y="95" on="0"/>
        <pt x="334" y="117" on="1"/>
        <pt x="358" y="141" on="0"/>
        <pt x="389" y="198" on="0"/>
        <pt x="397" y="240" on="1"/>
        <pt x="419" y="350" on="1"/>
        <pt x="422" y="367" on="0"/>
        <pt x="412" y="403" on="0"/>
        <pt x="384" y="432" on="0"/>
        <pt x="341" y="451" on="0"/>
        <pt x="311" y="451" on="1"/>
        <pt x="249" y="451" on="0"/>
        <pt x="172" y="375" on="0"/>
        <pt x="158" y="303" on="1"/>
        <pt x="143" y="228" on="1"/>
        <pt x="140" y="213" on="0"/>
        <pt x="138" y="188" on="0"/>
        <pt x="138" y="176" on="1"/>
        <pt x="138" y="128" on="0"/>
        <pt x="182" y="67" on="0"/>
      </contour>
    </TTGlyph>
    <TTGlyph name="dagger" xMin="81" yMin="-200" xMax="535" yMax="740">
      <contour>
        <pt x="133" y="-200" on="1"/>
        <pt x="263" y="448" on="1"/>
        <pt x="81" y="448" on="1"/>
        <pt x="96" y="518" on="1"/>
        <pt x="277" y="518" on="1"/>
        <pt x="321" y="740" on="1"/>
        <pt x="398" y="740" on="1"/>
        <pt x="354" y="518" on="1"/>
        <pt x="535" y="518" on="1"/>
        <pt x="520" y="448" on="1"/>
        <pt x="340" y="448" on="1"/>
        <pt x="210" y="-200" on="1"/>
      </contour>
    </TTGlyph>
    <TTGlyph name="daggerdbl" xMin="1" yMin="-200" xMax="538" yMax="740">
      <contour>
        <pt x="137" y="-200" on="1"/>
        <pt x="182" y="22" on="1"/>
        <pt x="1" y="22" on="1"/>
        <pt x="15" y="93" on="1"/>
        <pt x="196" y="93" on="1"/>
        <pt x="267" y="447" on="1"/>
        <pt x="85" y="447" on="1"/>
        <pt x="99" y="518" on="1"/>
        <pt x="281" y="518" on="1"/>
        <pt x="325" y="740" on="1"/>
        <pt x="402" y="740" on="1"/>
        <pt x="358" y="518" on="1"/>
        <pt x="538" y="518" on="1"/>
        <pt x="524" y="447" on="1"/>
        <pt x="344" y="447" on="1"/>
        <pt x="273" y="93" on="1"/>
        <pt x="454" y="93" on="1"/>
        <pt x="440" y="22" on="1"/>
        <pt x="259" y="22" on="1"/>
        <pt x="214" y="-200" on="1"/>
      </contour>
    </TTGlyph>
    <TTGlyph name="dcaron" xMin="47" yMin="-12" xMax="753" yMax="740">
      <component glyphName="d" x="0" y="0" flags="0x4"/>
      <component glyphName="uni02BC" x="353" y="0" flags="0x4"/>
    </TTGlyph>
    <TTGlyph name="dcroat" xMin="47" yMin="-12" xMax="631" yMax="740">
      <contour>
        <pt x="435" y="0" on="1"/>
        <pt x="400" y="0" on="0"/>
        <pt x="364" y="36" on="0"/>
        <pt x="364" y="65" on="1"/>
        <pt x="364" y="75" on="0"/>
        <pt x="367" y="90" on="1"/>
        <pt x="372" y="114" on="1"/>
        <pt x="368" y="114" on="1"/>
        <pt x="336" y="49" on="0"/>
        <pt x="258" y="-12" on="0"/>
        <pt x="200" y="-12" on="1"/>
        <pt x="129" y="-12" on="0"/>
        <pt x="47" y="92" on="0"/>
        <pt x="47" y="182" on="1"/>
        <pt x="47" y="244" on="0"/>
        <pt x="79" y="369" on="0"/>
        <pt x="142" y="468" on="0"/>
        <pt x="235" y="530" on="0"/>
        <pt x="297" y="530" on="1"/>
        <pt x="345" y="530" on="0"/>
        <pt x="421" y="480" on="0"/>
        <pt x="431" y="432" on="1"/>
        <pt x="436" y="432" on="1"/>
        <pt x="470" y="608" on="1"/>
        <pt x="323" y="608" on="1"/>
        <pt x="336" y="674" on="1"/>
        <pt x="483" y="674" on="1"/>
        <pt x="497" y="740" on="1"/>
        <pt x="586" y="740" on="1"/>
        <pt x="572" y="674" on="1"/>
        <pt x="631" y="674" on="1"/>
        <pt x="618" y="608" on="1"/>
        <pt x="559" y="608" on="1"/>
        <pt x="453" y="76" on="1"/>
        <pt x="523" y="76" on="1"/>
        <pt x="508" y="0" on="1"/>
      </contour>
      <contour>
        <pt x="229" y="67" on="1"/>
        <pt x="264" y="67" on="0"/>
        <pt x="313" y="94" on="0"/>
        <pt x="334" y="117" on="1"/>
        <pt x="357" y="142" on="0"/>
        <pt x="389" y="198" on="0"/>
        <pt x="397" y="240" on="1"/>
        <pt x="419" y="350" on="1"/>
        <pt x="422" y="367" on="0"/>
        <pt x="412" y="403" on="0"/>
        <pt x="384" y="432" on="0"/>
        <pt x="341" y="451" on="0"/>
        <pt x="311" y="451" on="1"/>
        <pt x="249" y="451" on="0"/>
        <pt x="172" y="375" on="0"/>
        <pt x="158" y="303" on="1"/>
        <pt x="143" y="228" on="1"/>
        <pt x="140" y="213" on="0"/>
        <pt x="138" y="188" on="0"/>
        <pt x="138" y="176" on="1"/>
        <pt x="138" y="128" on="0"/>
        <pt x="182" y="67" on="0"/>
      </contour>
    </TTGlyph>
    <TTGlyph name="degree" xMin="115" yMin="360" xMax="451" yMax="710">
      <contour>
        <pt x="263" y="360" on="1"/>
        <pt x="232" y="360" on="0"/>
        <pt x="178" y="383" on="0"/>
        <pt x="138" y="424" on="0"/>
        <pt x="115" y="481" on="0"/>
        <pt x="115" y="515" on="1"/>
        <pt x="115" y="557" on="0"/>
        <pt x="143" y="628" on="0"/>
        <pt x="193" y="681" on="0"/>
        <pt x="262" y="710" on="0"/>
        <pt x="303" y="710" on="1"/>
        <pt x="334" y="710" on="0"/>
        <pt x="388" y="687" on="0"/>
        <pt x="428" y="647" on="0"/>
        <pt x="451" y="590" on="0"/>
        <pt x="451" y="556" on="1"/>
        <pt x="451" y="514" on="0"/>
        <pt x="423" y="442" on="0"/>
        <pt x="373" y="390" on="0"/>
        <pt x="304" y="360" on="0"/>
      </contour>
      <contour>
        <pt x="273" y="429" on="1"/>
        <pt x="297" y="429" on="0"/>
        <pt x="335" y="449" on="0"/>
        <pt x="362" y="483" on="0"/>
        <pt x="377" y="528" on="0"/>
        <pt x="377" y="553" on="1"/>
        <pt x="377" y="590" on="0"/>
        <pt x="331" y="641" on="0"/>
        <pt x="293" y="641" on="1"/>
        <pt x="269" y="641" on="0"/>
        <pt x="230" y="621" on="0"/>
        <pt x="203" y="588" on="0"/>
        <pt x="189" y="543" on="0"/>
        <pt x="189" y="518" on="1"/>
        <pt x="189" y="481" on="0"/>
        <pt x="235" y="429" on="0"/>
      </contour>
    </TTGlyph>
    <TTGlyph name="delta" xMin="46" yMin="-12" xMax="560" yMax="740">
      <contour>
        <pt x="349" y="664" on="1"/>
        <pt x="263" y="669" on="1"/>
        <pt x="262" y="665" on="1"/>
        <pt x="357" y="578" on="1"/>
        <pt x="400" y="539" on="0"/>
        <pt x="455" y="472" on="0"/>
        <pt x="488" y="409" on="0"/>
        <pt x="501" y="345" on="0"/>
        <pt x="501" y="308" on="1"/>
        <pt x="501" y="245" on="0"/>
        <pt x="463" y="129" on="0"/>
        <pt x="393" y="41" on="0"/>
        <pt x="295" y="-12" on="0"/>
        <pt x="236" y="-12" on="1"/>
        <pt x="194" y="-12" on="0"/>
        <pt x="124" y="15" on="0"/>
        <pt x="74" y="69" on="0"/>
        <pt x="46" y="149" on="0"/>
        <pt x="46" y="201" on="1"/>
        <pt x="46" y="267" on="0"/>
        <pt x="88" y="379" on="0"/>
        <pt x="159" y="462" on="0"/>
        <pt x="252" y="509" on="0"/>
        <pt x="302" y="509" on="1"/>
        <pt x="303" y="517" on="1"/>
        <pt x="180" y="640" on="1"/>
        <pt x="199" y="740" on="1"/>
        <pt x="560" y="740" on="1"/>
        <pt x="544" y="664" on="1"/>
      </contour>
      <contour>
        <pt x="413" y="328" on="1"/>
        <pt x="413" y="346" on="0"/>
        <pt x="407" y="378" on="0"/>
        <pt x="392" y="413" on="0"/>
        <pt x="364" y="452" on="0"/>
        <pt x="343" y="476" on="1"/>
        <pt x="308" y="473" on="0"/>
        <pt x="245" y="442" on="0"/>
        <pt x="194" y="391" on="0"/>
        <pt x="159" y="323" on="0"/>
        <pt x="151" y="283" on="1"/>
        <pt x="138" y="221" on="1"/>
        <pt x="136" y="211" on="0"/>
        <pt x="134" y="190" on="0"/>
        <pt x="134" y="179" on="1"/>
        <pt x="134" y="128" on="0"/>
        <pt x="191" y="66" on="0"/>
        <pt x="245" y="66" on="1"/>
        <pt x="299" y="66" on="0"/>
        <pt x="381" y="143" on="0"/>
        <pt x="395" y="218" on="1"/>
        <pt x="407" y="277" on="1"/>
        <pt x="413" y="304" on="0"/>
      </contour>
    </TTGlyph>
    <TTGlyph name="dieresis" xMin="169" yMin="615" xMax="466" yMax="727">
      <contour>
        <pt x="216" y="615" on="1"/>
        <pt x="169" y="615" on="0"/>
        <pt x="169" y="652" on="1"/>
        <pt x="169" y="659" on="0"/>
        <pt x="173" y="676" on="1"/>
        <pt x="178" y="700" on="0"/>
        <pt x="206" y="727" on="0"/>
        <pt x="234" y="727" on="1"/>
        <pt x="281" y="727" on="0"/>
        <pt x="281" y="690" on="1"/>
        <pt x="281" y="683" on="0"/>
        <pt x="277" y="666" on="1"/>
        <pt x="272" y="642" on="0"/>
        <pt x="244" y="615" on="0"/>
      </contour>
      <contour>
        <pt x="401" y="615" on="1"/>
        <pt x="354" y="615" on="0"/>
        <pt x="354" y="652" on="1"/>
        <pt x="354" y="659" on="0"/>
        <pt x="358" y="676" on="1"/>
        <pt x="363" y="700" on="0"/>
        <pt x="391" y="727" on="0"/>
        <pt x="419" y="727" on="1"/>
        <pt x="466" y="727" on="0"/>
        <pt x="466" y="690" on="1"/>
        <pt x="466" y="683" on="0"/>
        <pt x="462" y="666" on="1"/>
        <pt x="457" y="642" on="0"/>
        <pt x="429" y="615" on="0"/>
      </contour>
    </TTGlyph>
    <TTGlyph name="dieresis.case" xMin="169" yMin="783" xMax="466" yMax="897">
      <contour>
        <pt x="216" y="783" on="1"/>
        <pt x="169" y="783" on="0"/>
        <pt x="169" y="820" on="1"/>
        <pt x="169" y="827" on="0"/>
        <pt x="173" y="846" on="1"/>
        <pt x="178" y="870" on="0"/>
        <pt x="206" y="897" on="0"/>
        <pt x="234" y="897" on="1"/>
        <pt x="281" y="897" on="0"/>
        <pt x="281" y="860" on="1"/>
        <pt x="281" y="853" on="0"/>
        <pt x="277" y="834" on="1"/>
        <pt x="272" y="810" on="0"/>
        <pt x="244" y="783" on="0"/>
      </contour>
      <contour>
        <pt x="401" y="783" on="1"/>
        <pt x="354" y="783" on="0"/>
        <pt x="354" y="820" on="1"/>
        <pt x="354" y="827" on="0"/>
        <pt x="358" y="846" on="1"/>
        <pt x="363" y="870" on="0"/>
        <pt x="391" y="897" on="0"/>
        <pt x="419" y="897" on="1"/>
        <pt x="466" y="897" on="0"/>
        <pt x="466" y="860" on="1"/>
        <pt x="466" y="853" on="0"/>
        <pt x="462" y="834" on="1"/>
        <pt x="457" y="810" on="0"/>
        <pt x="429" y="783" on="0"/>
      </contour>
    </TTGlyph>
    <TTGlyph name="dieresisacute" xMin="-125" yMin="595" xMax="175" yMax="906">
      <contour>
        <pt x="40" y="704" on="1"/>
        <pt x="-12" y="732" on="1"/>
        <pt x="93" y="906" on="1"/>
        <pt x="166" y="867" on="1"/>
      </contour>
      <contour>
        <pt x="-78" y="595" on="1"/>
        <pt x="-104" y="595" on="0"/>
        <pt x="-125" y="617" on="0"/>
        <pt x="-125" y="633" on="1"/>
        <pt x="-125" y="637" on="0"/>
        <pt x="-123" y="649" on="0"/>
        <pt x="-120" y="663" on="1"/>
        <pt x="-116" y="683" on="0"/>
        <pt x="-89" y="707" on="0"/>
        <pt x="-60" y="707" on="1"/>
        <pt x="-34" y="707" on="0"/>
        <pt x="-13" y="685" on="0"/>
        <pt x="-13" y="669" on="1"/>
        <pt x="-13" y="665" on="0"/>
        <pt x="-15" y="653" on="0"/>
        <pt x="-18" y="639" on="1"/>
        <pt x="-22" y="619" on="0"/>
        <pt x="-49" y="595" on="0"/>
      </contour>
      <contour>
        <pt x="110" y="595" on="1"/>
        <pt x="84" y="595" on="0"/>
        <pt x="63" y="617" on="0"/>
        <pt x="63" y="633" on="1"/>
        <pt x="63" y="637" on="0"/>
        <pt x="65" y="649" on="0"/>
        <pt x="68" y="663" on="1"/>
        <pt x="72" y="683" on="0"/>
        <pt x="99" y="707" on="0"/>
        <pt x="128" y="707" on="1"/>
        <pt x="154" y="707" on="0"/>
        <pt x="175" y="685" on="0"/>
        <pt x="175" y="669" on="1"/>
        <pt x="175" y="665" on="0"/>
        <pt x="173" y="653" on="0"/>
        <pt x="170" y="639" on="1"/>
        <pt x="166" y="619" on="0"/>
        <pt x="139" y="595" on="0"/>
      </contour>
    </TTGlyph>
    <TTGlyph name="dieresisacute.case" xMin="-123" yMin="763" xMax="177" yMax="1075">
      <contour>
        <pt x="43" y="873" on="1"/>
        <pt x="-9" y="900" on="1"/>
        <pt x="96" y="1075" on="1"/>
        <pt x="169" y="1035" on="1"/>
      </contour>
      <contour>
        <pt x="-76" y="763" on="1"/>
        <pt x="-102" y="763" on="0"/>
        <pt x="-123" y="785" on="0"/>
        <pt x="-123" y="801" on="1"/>
        <pt x="-123" y="805" on="0"/>
        <pt x="-121" y="817" on="0"/>
        <pt x="-118" y="831" on="1"/>
        <pt x="-114" y="851" on="0"/>
        <pt x="-87" y="875" on="0"/>
        <pt x="-58" y="875" on="1"/>
        <pt x="-32" y="875" on="0"/>
        <pt x="-11" y="853" on="0"/>
        <pt x="-11" y="837" on="1"/>
        <pt x="-11" y="833" on="0"/>
        <pt x="-13" y="821" on="0"/>
        <pt x="-16" y="807" on="1"/>
        <pt x="-20" y="787" on="0"/>
        <pt x="-47" y="763" on="0"/>
      </contour>
      <contour>
        <pt x="112" y="763" on="1"/>
        <pt x="86" y="763" on="0"/>
        <pt x="65" y="785" on="0"/>
        <pt x="65" y="801" on="1"/>
        <pt x="65" y="805" on="0"/>
        <pt x="67" y="817" on="0"/>
        <pt x="70" y="831" on="1"/>
        <pt x="74" y="851" on="0"/>
        <pt x="101" y="875" on="0"/>
        <pt x="130" y="875" on="1"/>
        <pt x="156" y="875" on="0"/>
        <pt x="177" y="853" on="0"/>
        <pt x="177" y="837" on="1"/>
        <pt x="177" y="833" on="0"/>
        <pt x="175" y="821" on="0"/>
        <pt x="172" y="807" on="1"/>
        <pt x="168" y="787" on="0"/>
        <pt x="141" y="763" on="0"/>
      </contour>
    </TTGlyph>
    <TTGlyph name="dieresiscaron" xMin="-125" yMin="595" xMax="220" yMax="905">
      <contour>
        <pt x="-11" y="731" on="1"/>
        <pt x="-107" y="867" on="1"/>
        <pt x="-55" y="905" on="1"/>
        <pt x="42" y="799" on="1"/>
        <pt x="175" y="905" on="1"/>
        <pt x="220" y="867" on="1"/>
        <pt x="85" y="731" on="1"/>
      </contour>
      <contour>
        <pt x="-78" y="595" on="1"/>
        <pt x="-104" y="595" on="0"/>
        <pt x="-125" y="617" on="0"/>
        <pt x="-125" y="633" on="1"/>
        <pt x="-125" y="637" on="0"/>
        <pt x="-123" y="649" on="0"/>
        <pt x="-120" y="663" on="1"/>
        <pt x="-116" y="683" on="0"/>
        <pt x="-89" y="707" on="0"/>
        <pt x="-60" y="707" on="1"/>
        <pt x="-34" y="707" on="0"/>
        <pt x="-13" y="685" on="0"/>
        <pt x="-13" y="669" on="1"/>
        <pt x="-13" y="665" on="0"/>
        <pt x="-15" y="653" on="0"/>
        <pt x="-18" y="639" on="1"/>
        <pt x="-22" y="619" on="0"/>
        <pt x="-49" y="595" on="0"/>
      </contour>
      <contour>
        <pt x="110" y="595" on="1"/>
        <pt x="84" y="595" on="0"/>
        <pt x="63" y="617" on="0"/>
        <pt x="63" y="633" on="1"/>
        <pt x="63" y="637" on="0"/>
        <pt x="65" y="649" on="0"/>
        <pt x="68" y="663" on="1"/>
        <pt x="72" y="683" on="0"/>
        <pt x="99" y="707" on="0"/>
        <pt x="128" y="707" on="1"/>
        <pt x="154" y="707" on="0"/>
        <pt x="175" y="685" on="0"/>
        <pt x="175" y="669" on="1"/>
        <pt x="175" y="665" on="0"/>
        <pt x="173" y="653" on="0"/>
        <pt x="170" y="639" on="1"/>
        <pt x="166" y="619" on="0"/>
        <pt x="139" y="595" on="0"/>
      </contour>
    </TTGlyph>
    <TTGlyph name="dieresiscaron.case" xMin="-123" yMin="763" xMax="220" yMax="1074">
      <contour>
        <pt x="-10" y="899" on="1"/>
        <pt x="-106" y="1035" on="1"/>
        <pt x="-55" y="1074" on="1"/>
        <pt x="42" y="967" on="1"/>
        <pt x="175" y="1074" on="1"/>
        <pt x="220" y="1035" on="1"/>
        <pt x="85" y="899" on="1"/>
      </contour>
      <contour>
        <pt x="-76" y="763" on="1"/>
        <pt x="-102" y="763" on="0"/>
        <pt x="-123" y="785" on="0"/>
        <pt x="-123" y="801" on="1"/>
        <pt x="-123" y="805" on="0"/>
        <pt x="-121" y="817" on="0"/>
        <pt x="-118" y="831" on="1"/>
        <pt x="-114" y="851" on="0"/>
        <pt x="-87" y="875" on="0"/>
        <pt x="-58" y="875" on="1"/>
        <pt x="-32" y="875" on="0"/>
        <pt x="-11" y="853" on="0"/>
        <pt x="-11" y="837" on="1"/>
        <pt x="-11" y="833" on="0"/>
        <pt x="-13" y="821" on="0"/>
        <pt x="-16" y="807" on="1"/>
        <pt x="-20" y="787" on="0"/>
        <pt x="-47" y="763" on="0"/>
      </contour>
      <contour>
        <pt x="112" y="763" on="1"/>
        <pt x="86" y="763" on="0"/>
        <pt x="65" y="785" on="0"/>
        <pt x="65" y="801" on="1"/>
        <pt x="65" y="805" on="0"/>
        <pt x="67" y="817" on="0"/>
        <pt x="70" y="831" on="1"/>
        <pt x="74" y="851" on="0"/>
        <pt x="101" y="875" on="0"/>
        <pt x="130" y="875" on="1"/>
        <pt x="156" y="875" on="0"/>
        <pt x="177" y="853" on="0"/>
        <pt x="177" y="837" on="1"/>
        <pt x="177" y="833" on="0"/>
        <pt x="175" y="821" on="0"/>
        <pt x="172" y="807" on="1"/>
        <pt x="168" y="787" on="0"/>
        <pt x="141" y="763" on="0"/>
      </contour>
    </TTGlyph>
    <TTGlyph name="dieresisgrave" xMin="-125" yMin="595" xMax="175" yMax="906">
      <contour>
        <pt x="-60" y="870" on="1"/>
        <pt x="17" y="906" on="1"/>
        <pt x="77" y="731" on="1"/>
        <pt x="26" y="708" on="1"/>
      </contour>
      <contour>
        <pt x="-78" y="595" on="1"/>
        <pt x="-104" y="595" on="0"/>
        <pt x="-125" y="617" on="0"/>
        <pt x="-125" y="633" on="1"/>
        <pt x="-125" y="637" on="0"/>
        <pt x="-123" y="649" on="0"/>
        <pt x="-120" y="663" on="1"/>
        <pt x="-116" y="683" on="0"/>
        <pt x="-89" y="707" on="0"/>
        <pt x="-60" y="707" on="1"/>
        <pt x="-34" y="707" on="0"/>
        <pt x="-13" y="685" on="0"/>
        <pt x="-13" y="669" on="1"/>
        <pt x="-13" y="665" on="0"/>
        <pt x="-15" y="653" on="0"/>
        <pt x="-18" y="639" on="1"/>
        <pt x="-22" y="619" on="0"/>
        <pt x="-49" y="595" on="0"/>
      </contour>
      <contour>
        <pt x="110" y="595" on="1"/>
        <pt x="84" y="595" on="0"/>
        <pt x="63" y="617" on="0"/>
        <pt x="63" y="633" on="1"/>
        <pt x="63" y="637" on="0"/>
        <pt x="65" y="649" on="0"/>
        <pt x="68" y="663" on="1"/>
        <pt x="72" y="683" on="0"/>
        <pt x="99" y="707" on="0"/>
        <pt x="128" y="707" on="1"/>
        <pt x="154" y="707" on="0"/>
        <pt x="175" y="685" on="0"/>
        <pt x="175" y="669" on="1"/>
        <pt x="175" y="665" on="0"/>
        <pt x="173" y="653" on="0"/>
        <pt x="170" y="639" on="1"/>
        <pt x="166" y="619" on="0"/>
        <pt x="139" y="595" on="0"/>
      </contour>
    </TTGlyph>
    <TTGlyph name="dieresisgrave.case" xMin="-123" yMin="763" xMax="177" yMax="1075">
      <contour>
        <pt x="-59" y="1039" on="1"/>
        <pt x="18" y="1075" on="1"/>
        <pt x="79" y="897" on="1"/>
        <pt x="27" y="873" on="1"/>
      </contour>
      <contour>
        <pt x="-76" y="763" on="1"/>
        <pt x="-102" y="763" on="0"/>
        <pt x="-123" y="785" on="0"/>
        <pt x="-123" y="801" on="1"/>
        <pt x="-123" y="805" on="0"/>
        <pt x="-121" y="817" on="0"/>
        <pt x="-118" y="831" on="1"/>
        <pt x="-114" y="851" on="0"/>
        <pt x="-87" y="875" on="0"/>
        <pt x="-58" y="875" on="1"/>
        <pt x="-32" y="875" on="0"/>
        <pt x="-11" y="853" on="0"/>
        <pt x="-11" y="837" on="1"/>
        <pt x="-11" y="833" on="0"/>
        <pt x="-13" y="821" on="0"/>
        <pt x="-16" y="807" on="1"/>
        <pt x="-20" y="787" on="0"/>
        <pt x="-47" y="763" on="0"/>
      </contour>
      <contour>
        <pt x="112" y="763" on="1"/>
        <pt x="86" y="763" on="0"/>
        <pt x="65" y="785" on="0"/>
        <pt x="65" y="801" on="1"/>
        <pt x="65" y="805" on="0"/>
        <pt x="67" y="817" on="0"/>
        <pt x="70" y="831" on="1"/>
        <pt x="74" y="851" on="0"/>
        <pt x="101" y="875" on="0"/>
        <pt x="130" y="875" on="1"/>
        <pt x="156" y="875" on="0"/>
        <pt x="177" y="853" on="0"/>
        <pt x="177" y="837" on="1"/>
        <pt x="177" y="833" on="0"/>
        <pt x="175" y="821" on="0"/>
        <pt x="172" y="807" on="1"/>
        <pt x="168" y="787" on="0"/>
        <pt x="141" y="763" on="0"/>
      </contour>
    </TTGlyph>
    <TTGlyph name="dieresismacron" xMin="-125" yMin="595" xMax="196" yMax="831">
      <contour>
        <pt x="-77" y="831" on="1"/>
        <pt x="196" y="831" on="1"/>
        <pt x="181" y="758" on="1"/>
        <pt x="-92" y="758" on="1"/>
      </contour>
      <contour>
        <pt x="-78" y="595" on="1"/>
        <pt x="-104" y="595" on="0"/>
        <pt x="-125" y="617" on="0"/>
        <pt x="-125" y="633" on="1"/>
        <pt x="-125" y="637" on="0"/>
        <pt x="-123" y="649" on="0"/>
        <pt x="-120" y="663" on="1"/>
        <pt x="-116" y="683" on="0"/>
        <pt x="-89" y="707" on="0"/>
        <pt x="-60" y="707" on="1"/>
        <pt x="-34" y="707" on="0"/>
        <pt x="-13" y="685" on="0"/>
        <pt x="-13" y="669" on="1"/>
        <pt x="-13" y="665" on="0"/>
        <pt x="-15" y="653" on="0"/>
        <pt x="-18" y="639" on="1"/>
        <pt x="-22" y="619" on="0"/>
        <pt x="-49" y="595" on="0"/>
      </contour>
      <contour>
        <pt x="110" y="595" on="1"/>
        <pt x="84" y="595" on="0"/>
        <pt x="63" y="617" on="0"/>
        <pt x="63" y="633" on="1"/>
        <pt x="63" y="637" on="0"/>
        <pt x="65" y="649" on="0"/>
        <pt x="68" y="663" on="1"/>
        <pt x="72" y="683" on="0"/>
        <pt x="99" y="707" on="0"/>
        <pt x="128" y="707" on="1"/>
        <pt x="154" y="707" on="0"/>
        <pt x="175" y="685" on="0"/>
        <pt x="175" y="669" on="1"/>
        <pt x="175" y="665" on="0"/>
        <pt x="173" y="653" on="0"/>
        <pt x="170" y="639" on="1"/>
        <pt x="166" y="619" on="0"/>
        <pt x="139" y="595" on="0"/>
      </contour>
    </TTGlyph>
    <TTGlyph name="dieresismacron.case" xMin="-126" yMin="763" xMax="195" yMax="999">
      <contour>
        <pt x="-78" y="999" on="1"/>
        <pt x="195" y="999" on="1"/>
        <pt x="180" y="926" on="1"/>
        <pt x="-93" y="926" on="1"/>
      </contour>
      <contour>
        <pt x="-79" y="763" on="1"/>
        <pt x="-105" y="763" on="0"/>
        <pt x="-126" y="785" on="0"/>
        <pt x="-126" y="801" on="1"/>
        <pt x="-126" y="805" on="0"/>
        <pt x="-124" y="817" on="0"/>
        <pt x="-121" y="831" on="1"/>
        <pt x="-117" y="851" on="0"/>
        <pt x="-90" y="875" on="0"/>
        <pt x="-61" y="875" on="1"/>
        <pt x="-35" y="875" on="0"/>
        <pt x="-14" y="853" on="0"/>
        <pt x="-14" y="837" on="1"/>
        <pt x="-14" y="833" on="0"/>
        <pt x="-16" y="821" on="0"/>
        <pt x="-19" y="807" on="1"/>
        <pt x="-23" y="787" on="0"/>
        <pt x="-50" y="763" on="0"/>
      </contour>
      <contour>
        <pt x="109" y="763" on="1"/>
        <pt x="83" y="763" on="0"/>
        <pt x="62" y="785" on="0"/>
        <pt x="62" y="801" on="1"/>
        <pt x="62" y="805" on="0"/>
        <pt x="64" y="817" on="0"/>
        <pt x="67" y="831" on="1"/>
        <pt x="71" y="851" on="0"/>
        <pt x="98" y="875" on="0"/>
        <pt x="127" y="875" on="1"/>
        <pt x="153" y="875" on="0"/>
        <pt x="174" y="853" on="0"/>
        <pt x="174" y="837" on="1"/>
        <pt x="174" y="833" on="0"/>
        <pt x="172" y="821" on="0"/>
        <pt x="169" y="807" on="1"/>
        <pt x="165" y="787" on="0"/>
        <pt x="138" y="763" on="0"/>
      </contour>
    </TTGlyph>
    <TTGlyph name="dieresistonos" xMin="187" yMin="584" xMax="520" yMax="787">
      <contour>
        <pt x="342" y="584" on="1"/>
        <pt x="296" y="598" on="1"/>
        <pt x="360" y="787" on="1"/>
        <pt x="430" y="767" on="1"/>
      </contour>
      <contour>
        <pt x="228" y="616" on="1"/>
        <pt x="210" y="616" on="0"/>
        <pt x="187" y="635" on="0"/>
        <pt x="187" y="652" on="1"/>
        <pt x="187" y="657" on="0"/>
        <pt x="189" y="667" on="0"/>
        <pt x="191" y="676" on="1"/>
        <pt x="196" y="699" on="0"/>
        <pt x="223" y="726" on="0"/>
        <pt x="246" y="726" on="1"/>
        <pt x="263" y="726" on="0"/>
        <pt x="286" y="706" on="0"/>
        <pt x="286" y="689" on="1"/>
        <pt x="286" y="682" on="0"/>
        <pt x="282" y="665" on="1"/>
        <pt x="274" y="616" on="0"/>
      </contour>
      <contour>
        <pt x="461" y="616" on="1"/>
        <pt x="444" y="616" on="0"/>
        <pt x="421" y="635" on="0"/>
        <pt x="421" y="652" on="1"/>
        <pt x="421" y="657" on="0"/>
        <pt x="422" y="667" on="0"/>
        <pt x="424" y="676" on="1"/>
        <pt x="429" y="699" on="0"/>
        <pt x="456" y="726" on="0"/>
        <pt x="479" y="726" on="1"/>
        <pt x="497" y="726" on="0"/>
        <pt x="520" y="706" on="0"/>
        <pt x="520" y="689" on="1"/>
        <pt x="520" y="684" on="0"/>
        <pt x="518" y="675" on="0"/>
        <pt x="516" y="665" on="1"/>
        <pt x="507" y="616" on="0"/>
      </contour>
    </TTGlyph>
    <TTGlyph name="divide" xMin="75" yMin="47" xMax="543" yMax="563">
      <contour>
        <pt x="75" y="268" on="1"/>
        <pt x="91" y="344" on="1"/>
        <pt x="543" y="344" on="1"/>
        <pt x="527" y="268" on="1"/>
      </contour>
      <contour>
        <pt x="260" y="47" on="1"/>
        <pt x="231" y="47" on="0"/>
        <pt x="205" y="70" on="0"/>
        <pt x="205" y="89" on="1"/>
        <pt x="205" y="95" on="0"/>
        <pt x="208" y="111" on="0"/>
        <pt x="210" y="119" on="1"/>
        <pt x="215" y="145" on="0"/>
        <pt x="249" y="174" on="0"/>
        <pt x="281" y="174" on="1"/>
        <pt x="310" y="174" on="0"/>
        <pt x="336" y="151" on="0"/>
        <pt x="336" y="133" on="1"/>
        <pt x="336" y="127" on="0"/>
        <pt x="333" y="111" on="0"/>
        <pt x="331" y="103" on="1"/>
        <pt x="326" y="76" on="0"/>
        <pt x="292" y="47" on="0"/>
      </contour>
      <contour>
        <pt x="337" y="436" on="1"/>
        <pt x="308" y="436" on="0"/>
        <pt x="282" y="459" on="0"/>
        <pt x="282" y="477" on="1"/>
        <pt x="282" y="483" on="0"/>
        <pt x="285" y="499" on="0"/>
        <pt x="287" y="507" on="1"/>
        <pt x="292" y="533" on="0"/>
        <pt x="325" y="563" on="0"/>
        <pt x="358" y="563" on="1"/>
        <pt x="387" y="563" on="0"/>
        <pt x="413" y="540" on="0"/>
        <pt x="413" y="522" on="1"/>
        <pt x="413" y="516" on="0"/>
        <pt x="410" y="500" on="0"/>
        <pt x="408" y="492" on="1"/>
        <pt x="403" y="466" on="0"/>
        <pt x="370" y="436" on="0"/>
      </contour>
    </TTGlyph>
    <TTGlyph name="dollar" xMin="8" yMin="-82" xMax="564" yMax="780">
      <contour>
        <pt x="193" y="2" on="1"/>
        <pt x="131" y="11" on="0"/>
        <pt x="35" y="69" on="0"/>
        <pt x="8" y="118" on="1"/>
        <pt x="73" y="174" on="1"/>
        <pt x="119" y="94" on="0"/>
        <pt x="213" y="80" on="1"/>
        <pt x="262" y="327" on="1"/>
        <pt x="97" y="360" on="0"/>
        <pt x="97" y="495" on="1"/>
        <pt x="97" y="535" on="0"/>
        <pt x="127" y="607" on="0"/>
        <pt x="187" y="662" on="0"/>
        <pt x="276" y="696" on="0"/>
        <pt x="333" y="698" on="1"/>
        <pt x="350" y="780" on="1"/>
        <pt x="420" y="780" on="1"/>
        <pt x="402" y="693" on="1"/>
        <pt x="517" y="676" on="0"/>
        <pt x="564" y="589" on="1"/>
        <pt x="495" y="534" on="1"/>
        <pt x="481" y="563" on="0"/>
        <pt x="424" y="607" on="0"/>
        <pt x="383" y="616" on="1"/>
        <pt x="338" y="392" on="1"/>
        <pt x="428" y="375" on="0"/>
        <pt x="511" y="291" on="0"/>
        <pt x="511" y="222" on="1"/>
        <pt x="511" y="178" on="0"/>
        <pt x="479" y="101" on="0"/>
        <pt x="416" y="42" on="0"/>
        <pt x="323" y="4" on="0"/>
        <pt x="263" y="1" on="1"/>
        <pt x="246" y="-82" on="1"/>
        <pt x="176" y="-82" on="1"/>
      </contour>
      <contour>
        <pt x="419" y="211" on="1"/>
        <pt x="419" y="249" on="0"/>
        <pt x="375" y="303" on="0"/>
        <pt x="323" y="314" on="1"/>
        <pt x="276" y="79" on="1"/>
        <pt x="312" y="82" on="0"/>
        <pt x="366" y="105" on="0"/>
        <pt x="402" y="141" on="0"/>
        <pt x="419" y="186" on="0"/>
      </contour>
      <contour>
        <pt x="189" y="504" on="1"/>
        <pt x="189" y="427" on="0"/>
        <pt x="278" y="407" on="1"/>
        <pt x="320" y="619" on="1"/>
        <pt x="258" y="615" on="0"/>
        <pt x="189" y="554" on="0"/>
      </contour>
    </TTGlyph>
    <TTGlyph name="dotaccent" xMin="261" yMin="611" xMax="377" yMax="727">
      <contour>
        <pt x="310" y="611" on="1"/>
        <pt x="261" y="611" on="0"/>
        <pt x="261" y="651" on="1"/>
        <pt x="261" y="657" on="0"/>
        <pt x="265" y="676" on="1"/>
        <pt x="270" y="699" on="0"/>
        <pt x="297" y="727" on="0"/>
        <pt x="328" y="727" on="1"/>
        <pt x="377" y="727" on="0"/>
        <pt x="377" y="687" on="1"/>
        <pt x="377" y="681" on="0"/>
        <pt x="373" y="662" on="1"/>
        <pt x="368" y="639" on="0"/>
        <pt x="341" y="611" on="0"/>
      </contour>
    </TTGlyph>
    <TTGlyph name="dotaccent.case" xMin="261" yMin="781" xMax="377" yMax="897">
      <contour>
        <pt x="310" y="781" on="1"/>
        <pt x="261" y="781" on="0"/>
        <pt x="261" y="821" on="1"/>
        <pt x="261" y="827" on="0"/>
        <pt x="265" y="846" on="1"/>
        <pt x="270" y="869" on="0"/>
        <pt x="297" y="897" on="0"/>
        <pt x="328" y="897" on="1"/>
        <pt x="377" y="897" on="0"/>
        <pt x="377" y="857" on="1"/>
        <pt x="377" y="851" on="0"/>
        <pt x="373" y="832" on="1"/>
        <pt x="368" y="809" on="0"/>
        <pt x="341" y="781" on="0"/>
      </contour>
    </TTGlyph>
    <TTGlyph name="dotlessi" xMin="47" yMin="0" xMax="224" yMax="518">
      <contour>
        <pt x="120" y="0" on="1"/>
        <pt x="84" y="0" on="0"/>
        <pt x="47" y="37" on="0"/>
        <pt x="47" y="67" on="1"/>
        <pt x="47" y="72" on="0"/>
        <pt x="48" y="83" on="0"/>
        <pt x="49" y="88" on="1"/>
        <pt x="135" y="518" on="1"/>
        <pt x="224" y="518" on="1"/>
        <pt x="135" y="76" on="1"/>
        <pt x="205" y="76" on="1"/>
        <pt x="190" y="0" on="1"/>
      </contour>
    </TTGlyph>
    <TTGlyph name="e" xMin="46" yMin="-12" xMax="489" yMax="530">
      <contour>
        <pt x="246" y="-12" on="1"/>
        <pt x="149" y="-12" on="0"/>
        <pt x="46" y="100" on="0"/>
        <pt x="46" y="206" on="1"/>
        <pt x="46" y="270" on="0"/>
        <pt x="85" y="387" on="0"/>
        <pt x="156" y="477" on="0"/>
        <pt x="257" y="530" on="0"/>
        <pt x="319" y="530" on="1"/>
        <pt x="351" y="530" on="0"/>
        <pt x="412" y="514" on="0"/>
        <pt x="460" y="479" on="0"/>
        <pt x="489" y="426" on="0"/>
        <pt x="489" y="390" on="1"/>
        <pt x="489" y="305" on="0"/>
        <pt x="318" y="221" on="0"/>
        <pt x="137" y="219" on="1"/>
        <pt x="135" y="208" on="0"/>
        <pt x="135" y="188" on="0"/>
        <pt x="135" y="180" on="1"/>
        <pt x="135" y="129" on="0"/>
        <pt x="193" y="65" on="0"/>
        <pt x="252" y="65" on="1"/>
        <pt x="298" y="65" on="0"/>
        <pt x="373" y="108" on="0"/>
        <pt x="404" y="146" on="1"/>
        <pt x="461" y="96" on="1"/>
        <pt x="413" y="36" on="0"/>
        <pt x="304" y="-12" on="0"/>
      </contour>
      <contour>
        <pt x="311" y="457" on="1"/>
        <pt x="253" y="457" on="0"/>
        <pt x="168" y="379" on="0"/>
        <pt x="154" y="312" on="1"/>
        <pt x="148" y="284" on="1"/>
        <pt x="226" y="287" on="0"/>
        <pt x="324" y="302" on="0"/>
        <pt x="379" y="327" on="0"/>
        <pt x="399" y="364" on="0"/>
        <pt x="399" y="388" on="1"/>
        <pt x="399" y="408" on="0"/>
        <pt x="384" y="435" on="0"/>
        <pt x="359" y="451" on="0"/>
        <pt x="327" y="457" on="0"/>
      </contour>
    </TTGlyph>
    <TTGlyph name="eacute" xMin="46" yMin="-12" xMax="489" yMax="787">
      <component glyphName="e" x="0" y="0" flags="0x204"/>
      <component glyphName="acute" x="31" y="0" flags="0x4"/>
    </TTGlyph>
    <TTGlyph name="ebreve" xMin="46" yMin="-12" xMax="514" yMax="758">
      <component glyphName="e" x="0" y="0" flags="0x204"/>
      <component glyphName="breve" x="32" y="0" flags="0x4"/>
    </TTGlyph>
    <TTGlyph name="ecaron" xMin="46" yMin="-12" xMax="529" yMax="780">
      <component glyphName="e" x="0" y="0" flags="0x204"/>
      <component glyphName="caron" x="31" y="0" flags="0x4"/>
    </TTGlyph>
    <TTGlyph name="ecircumflex" xMin="46" yMin="-12" xMax="498" yMax="771">
      <component glyphName="e" x="0" y="0" flags="0x204"/>
      <component glyphName="circumflex" x="31" y="0" flags="0x4"/>
    </TTGlyph>
    <TTGlyph name="edieresis" xMin="46" yMin="-12" xMax="497" yMax="727">
      <component glyphName="e" x="0" y="0" flags="0x204"/>
      <component glyphName="dieresis" x="31" y="0" flags="0x4"/>
    </TTGlyph>
    <TTGlyph name="edotaccent" xMin="46" yMin="-12" xMax="489" yMax="727">
      <component glyphName="e" x="0" y="0" flags="0x204"/>
      <component glyphName="dotaccent" x="31" y="0" flags="0x4"/>
    </TTGlyph>
    <TTGlyph name="egrave" xMin="46" yMin="-12" xMax="489" yMax="786">
      <component glyphName="e" x="0" y="0" flags="0x204"/>
      <component glyphName="grave" x="31" y="0" flags="0x4"/>
    </TTGlyph>
</ttFont>
